<svg preserveAspectRatio="none" width="100%" height="100%" overflow="visible" style="display: block;" viewBox="0 0 15 12" fill="none" xmlns="http://www.w3.org/2000/svg">
<g id="Group">
<path id="Vector" d="M10.887 2.63937L12.1999 4.44844L14.3259 3.75906L13.011 5.56656L14.3237 7.37556L12.1984 6.68356L10.8835 8.49106L10.8849 6.256L8.75954 5.564L10.8857 4.87462L10.887 2.63937Z" fill="var(--fill-0, #F0F0F0)"/>
<path id="Vector_2" d="M7.30431 10.087C4.80706 10.087 2.78256 8.0625 2.78256 5.56525C2.78256 3.068 4.80706 1.0435 7.30431 1.0435C8.08294 1.0435 8.81556 1.24044 9.45519 1.587C8.45175 0.605626 7.07944 0 5.56519 0C2.49156 0 0 2.49163 0 5.56519C0 8.63875 2.49163 11.1304 5.56519 11.1304C7.07956 11.1304 8.45181 10.5247 9.45519 9.54338C8.81556 9.89006 8.08294 10.087 7.30431 10.087V10.087Z" fill="var(--fill-0, #F0F0F0)"/>
</g>
</svg>
