<svg preserveAspectRatio="none" width="100%" height="100%" overflow="visible" style="display: block;" viewBox="0 0 24 10" fill="none" xmlns="http://www.w3.org/2000/svg">
<g id="Group">
<path id="Vector" d="M23.4208 8.01032L22.5758 8.6707L22.9425 9.67826L22.0533 9.0787L21.2082 9.73895L21.5037 8.70801L20.6146 8.10826L21.6864 8.07088L21.9822 7.03995L22.3491 8.0477L23.4208 8.01032Z" fill="var(--fill-0, #F0F0F0)"/>
<path id="Vector_2" d="M21.2568 4.26216L20.6886 5.17172L21.378 5.9931L20.3373 5.73397L19.769 6.64329L19.694 5.57347L18.6535 5.31391L19.648 4.9121L19.5732 3.84222L20.2625 4.66391L21.2568 4.26216Z" fill="var(--fill-0, #F0F0F0)"/>
<path id="Vector_3" d="M17.9413 1.48013L17.7184 2.5292L18.6471 3.06545L17.5806 3.17788L17.3576 4.22663L16.9213 3.24701L15.8546 3.35895L16.6518 2.64132L16.2156 1.6617L17.1443 2.19782L17.9413 1.48013Z" fill="var(--fill-0, #F0F0F0)"/>
<path id="Vector_4" d="M13.8742 0L14.0237 1.06206L15.0797 1.24819L14.1159 1.71856L14.2652 2.78056L13.5202 2.00906L12.556 2.47919L13.0597 1.53212L12.3146 0.76075L13.3709 0.946938L13.8742 0Z" fill="var(--fill-0, #F0F0F0)"/>
<path id="Vector_5" d="M9.54644 0L10.05 0.946938L11.106 0.760625L10.3612 1.53231L10.8645 2.47931L9.90063 2.00906L9.1555 2.78037L9.30494 1.71856L8.341 1.24844L9.39719 1.06206L9.54644 0Z" fill="var(--fill-0, #F0F0F0)"/>
<path id="Vector_6" d="M5.47952 1.48016L6.27665 2.19785L7.20521 1.66173L6.76915 2.64173L7.56608 3.35923L6.49952 3.24704L6.06315 4.22666L5.84046 3.17773L4.77383 3.06573L5.70258 2.52935L5.47952 1.48016Z" fill="var(--fill-0, #F0F0F0)"/>
<path id="Vector_7" d="M2.16406 4.26222L3.15862 4.66397L3.84775 3.84247L3.77318 4.91253L4.76743 5.31434L3.72687 5.57366L3.65193 6.64334L3.08381 5.73403L2.04312 5.99334L2.7325 5.17178L2.16406 4.26222Z" fill="var(--fill-0, #F0F0F0)"/>
<path id="Vector_8" d="M0 8.01032L1.072 8.0477L1.43862 7.04007L1.73456 8.07107L2.80625 8.10851L1.91712 8.70826L2.21263 9.73913L1.36762 9.07888L0.478437 9.67844L0.84525 8.67069L0 8.01032Z" fill="var(--fill-0, #F0F0F0)"/>
</g>
</svg>
