<svg preserveAspectRatio="none" width="100%" height="100%" overflow="visible" style="display: block;" viewBox="0 0 83 20" fill="none" xmlns="http://www.w3.org/2000/svg">
<g id="RING">
<path d="M18.8329 11.7241C19.8762 11.8302 20.6808 12.1927 21.2467 12.8117C21.8126 13.4129 22.0955 14.244 22.0955 15.305V19.4695H16.6313V16.3395C16.6313 15.7206 16.5694 15.2608 16.4456 14.9602C16.3218 14.6419 16.1008 14.4209 15.7825 14.2971C15.4642 14.1556 14.9867 14.0849 14.3501 14.0849H5.49072V19.4695H0V0.530503H14.5358C17.0292 0.530503 18.9301 1.03448 20.2387 2.04244C21.5473 3.03271 22.2016 4.51813 22.2016 6.49867C22.2016 9.15119 21.0787 10.893 18.8329 11.7241ZM5.49072 5.01326V9.60212H13.183C13.9257 9.60212 14.5093 9.56676 14.9337 9.49602C15.3581 9.42529 15.7118 9.22193 15.9947 8.88594C16.2953 8.54996 16.4456 8.02829 16.4456 7.32095C16.4456 6.59593 16.2953 6.07427 15.9947 5.75597C15.7118 5.41998 15.3581 5.21662 14.9337 5.14589C14.5093 5.05747 13.9257 5.01326 13.183 5.01326H5.49072Z" fill="var(--fill-0, #1E293B)"/>
<path d="M24.6612 0.530503H30.1519V19.4695H24.6612V0.530503Z" fill="var(--fill-0, #1E293B)"/>
<path d="M51.8972 14.3767V0.530503H57.3614V19.4695H49.3242L38.1571 5.62334V19.4695H32.6664V0.530503H40.7301L51.8972 14.3767Z" fill="var(--fill-0, #1E293B)"/>
<path d="M59.3159 9.97347C59.3159 7.86914 59.8111 6.06543 60.8013 4.56233C61.8093 3.05924 63.2151 1.9275 65.0189 1.16711C66.8226 0.389036 68.9181 0 71.3053 0C73.4981 0 75.4256 0.318302 77.0878 0.954907C78.7501 1.59151 80.0498 2.47568 80.987 3.60743C81.9242 4.72148 82.4547 5.99469 82.5785 7.42706H76.743C76.5485 6.6313 76.0003 5.97701 75.0984 5.46419C74.1966 4.93369 72.941 4.66843 71.3319 4.66843C69.086 4.66843 67.4769 5.19894 66.5043 6.25995C65.5494 7.32095 65.0719 8.62069 65.0719 10.1592C65.0719 11.7507 65.5759 13.0769 66.5838 14.1379C67.6095 15.1813 69.4132 15.7029 71.995 15.7029C73.2151 15.7029 74.2761 15.6145 75.178 15.4377C76.0799 15.2431 76.9994 14.9425 77.9366 14.5358V12.7321H71.2258V9.15119H82.5785V17.2414C80.7218 18.2847 78.9446 19.0097 77.247 19.4164C75.5494 19.8055 73.7014 20 71.7032 20C69.2098 20 67.0259 19.611 65.1515 18.8329C63.2947 18.0548 61.8535 16.9142 60.8279 15.4111C59.8199 13.908 59.3159 12.0955 59.3159 9.97347Z" fill="var(--fill-0, #1E293B)"/>
</g>
</svg>
