<svg preserveAspectRatio="none" width="100%" height="100%" overflow="visible" style="display: block;" viewBox="0 0 14 18" fill="none" xmlns="http://www.w3.org/2000/svg">
<path id="Vector" d="M13.1769 6.12719C13.1769 2.74319 10.4336 0 7.04969 0C4.55256 0 2.40588 1.49438 1.45138 3.63713L0.695687 6.37681L1.39131 7.07244L0 9.85506L1.39131 10.5507L0.695687 11.2463V11.9419L1.39131 12.6376V14.0289L2.08694 14.7245L4.17387 14.0289C4.17387 14.0289 4.17388 14.7245 4.8695 15.4202C5.56513 16.1158 6.26087 17.5072 6.26087 17.5072C6.26087 17.5072 8.34781 18.2028 9.73912 16.1159C11.1304 14.0289 12.5217 13.3333 12.5217 13.3333L11.1807 10.6511C12.4071 9.53094 13.1769 7.91925 13.1769 6.12719V6.12719Z" fill="var(--fill-0, black)"/>
</svg>
