<svg preserveAspectRatio="none" width="100%" height="100%" overflow="visible" style="display: block;" viewBox="0 0 29 32" fill="none" xmlns="http://www.w3.org/2000/svg">
<g id="Group">
<path id="Vector" d="M14.4124 32C20.7557 32 26.2367 28.3084 28.8247 22.9565H0C2.588 28.3084 8.069 32 14.4124 32Z" fill="var(--fill-0, #338AF3)"/>
<path id="Vector_2" d="M14.4124 0C8.069 0 2.588 3.69156 0 9.0435H28.8247C26.2367 3.69156 20.7557 0 14.4124 0V0Z" fill="var(--fill-0, #338AF3)"/>
<path id="Vector_3" d="M8.25932 10.4348L8.77732 12.0291H10.4536L9.0975 13.0144L9.61557 14.6087L8.25932 13.6234L6.90307 14.6087L7.42113 13.0144L6.06494 12.0291H7.74125L8.25932 10.4348Z" fill="var(--fill-0, #338AF3)"/>
<path id="Vector_4" d="M8.25932 17.3914L8.77732 18.9857H10.4536L9.0975 19.971L9.61557 21.5652L8.25932 20.5799L6.90307 21.5652L7.42113 19.971L6.06494 18.9857H7.74125L8.25932 17.3914Z" fill="var(--fill-0, #338AF3)"/>
<path id="Vector_5" d="M20.566 10.4348L21.084 12.0291H22.7603L21.4041 13.0144L21.9222 14.6087L20.566 13.6234L19.2097 14.6087L19.7278 13.0144L18.3716 12.0291H20.048L20.566 10.4348Z" fill="var(--fill-0, #338AF3)"/>
<path id="Vector_6" d="M20.566 17.3914L21.084 18.9857H22.7603L21.4041 19.971L21.9222 21.5652L20.566 20.5799L19.2097 21.5652L19.7278 19.971L18.3716 18.9857H20.048L20.566 17.3914Z" fill="var(--fill-0, #338AF3)"/>
<path id="Vector_7" d="M14.4126 13.9131L14.9307 15.5075H16.607L15.2508 16.4927L15.7689 18.087L14.4126 17.1016L13.0564 18.087L13.5744 16.4927L12.2183 15.5075H13.8946L14.4126 13.9131Z" fill="var(--fill-0, #338AF3)"/>
</g>
</svg>
