<svg preserveAspectRatio="none" width="100%" height="100%" overflow="visible" style="display: block;" viewBox="0 0 19 19" fill="none" xmlns="http://www.w3.org/2000/svg">
<path id="Path" d="M15.6853 7.99616L14.7706 5.78733L16 4.33333L14.3333 2.66667L12.8873 3.90246L10.6315 2.97478L10.1128 1H8.48415L7.95757 3.00094L5.75368 3.92997L4.33333 2.66667L2.66667 4.33333L3.87781 5.82404L2.97708 8.03861L1 8.5V10.1667L3.00093 10.7129L3.92979 12.9164L2.66667 14.3333L4.33333 16L5.82597 14.7836L7.99751 15.6769L8.5 17.6667H10.1667L10.6704 15.6777L12.8793 14.763C13.2474 15.0261 14.3333 16 14.3333 16L16 14.3333L14.7633 12.8745L15.6782 10.665L17.6666 10.1477L17.6667 8.5L15.6853 7.99616Z" stroke="var(--stroke-0, #9099AF)" stroke-width="1.5" stroke-linecap="round" stroke-linejoin="round"/>
</svg>
