<svg preserveAspectRatio="none" width="100%" height="100%" overflow="visible" style="display: block;" viewBox="0 0 14 14" fill="none" xmlns="http://www.w3.org/2000/svg">
<path id="Vector" d="M13.4106 11.8769C12.5537 10.3729 11.2157 9.2011 9.61187 8.55C10.4094 7.95184 10.9986 7.11789 11.2958 6.1663C11.5931 5.2147 11.5834 4.1937 11.2681 3.24792C10.9529 2.30214 10.348 1.47952 9.53924 0.8966C8.73048 0.313678 7.75881 0 6.76187 0C5.76493 0 4.79326 0.313678 3.9845 0.8966C3.17573 1.47952 2.57088 2.30214 2.25562 3.24792C1.94036 4.1937 1.93067 5.2147 2.22793 6.1663C2.52519 7.11789 3.11432 7.95184 3.91187 8.55C2.30807 9.2011 0.970021 10.3729 0.113118 11.8769C0.0600217 11.9623 0.0246329 12.0574 0.00905604 12.1568C-0.00652085 12.2561 -0.00196794 12.3575 0.0224442 12.4551C0.0468563 12.5526 0.0906293 12.6442 0.151161 12.7245C0.211692 12.8048 0.287747 12.8721 0.374802 12.9224C0.461858 12.9727 0.558138 13.0049 0.657918 13.0173C0.757698 13.0296 0.858942 13.0218 0.95563 12.9942C1.05232 12.9667 1.14248 12.9199 1.22075 12.8568C1.29902 12.7937 1.3638 12.7155 1.41124 12.6269C2.54374 10.6694 4.54374 9.50188 6.76187 9.50188C8.97999 9.50188 10.98 10.67 12.1125 12.6269C12.2153 12.7922 12.3784 12.9111 12.5673 12.9583C12.7561 13.0056 12.956 12.9776 13.1246 12.8802C13.2932 12.7828 13.4173 12.6237 13.4706 12.4364C13.524 12.2492 13.5025 12.0485 13.4106 11.8769ZM3.51187 4.75188C3.51187 4.10909 3.70248 3.48073 4.05959 2.94627C4.41671 2.41181 4.92429 1.99525 5.51815 1.74927C6.11201 1.50328 6.76547 1.43892 7.39591 1.56432C8.02635 1.68973 8.60545 1.99926 9.05997 2.45378C9.51449 2.9083 9.82402 3.48739 9.94942 4.11783C10.0748 4.74827 10.0105 5.40174 9.76448 5.9956C9.51849 6.58946 9.10193 7.09704 8.56747 7.45415C8.03301 7.81127 7.40466 8.00188 6.76187 8.00188C5.90022 8.00088 5.07415 7.65815 4.46487 7.04888C3.85559 6.4396 3.51286 5.61352 3.51187 4.75188Z" fill="var(--fill-0, white)"/>
</svg>
