<svg preserveAspectRatio="none" width="100%" height="100%" overflow="visible" style="display: block;" viewBox="0 0 32 32" fill="none" xmlns="http://www.w3.org/2000/svg">
<g id="Group">
<path id="Vector" d="M18.2493 31.6321C20.8516 31.2351 23.2469 30.2104 25.2778 28.7185L15.8161 15.8161L18.2493 31.6321Z" fill="var(--fill-0, #D80027)"/>
<path id="Vector_2" d="M13.3827 0C10.7806 0.397 8.38519 1.42175 6.35419 2.91356L15.8161 15.8161L13.3827 0Z" fill="var(--fill-0, #D80027)"/>
<path id="Vector_3" d="M6.35419 28.7185C8.38506 30.2103 10.7804 31.2351 13.3826 31.6322L15.8161 15.8161L6.35419 28.7185Z" fill="var(--fill-0, #D80027)"/>
<path id="Vector_4" d="M2.91356 6.35419C1.42169 8.38519 0.397063 10.7805 0 13.3827L15.8161 15.8161L2.91356 6.35419Z" fill="var(--fill-0, #D80027)"/>
<path id="Vector_5" d="M0 18.2493C0.397 20.8516 1.42175 23.2469 2.91363 25.2778L15.8161 15.8161L0 18.2493Z" fill="var(--fill-0, #D80027)"/>
<path id="Vector_6" d="M31.6321 13.3828C31.2351 10.7806 30.2104 8.38519 28.7185 6.35425L15.8161 15.8161L31.6321 13.3828Z" fill="var(--fill-0, #D80027)"/>
<path id="Vector_7" d="M25.2778 2.9135C23.2469 1.42169 20.8516 0.397 18.2493 0L15.8161 15.8161L25.2778 2.9135Z" fill="var(--fill-0, #D80027)"/>
<path id="Vector_8" d="M28.7186 25.2779C30.2104 23.2469 31.2351 20.8515 31.6322 18.2494L15.8161 15.8161L28.7186 25.2779Z" fill="var(--fill-0, #D80027)"/>
<path id="Vector_9" d="M15.8161 21.3813C18.8896 21.3813 21.3813 18.8896 21.3813 15.8161C21.3813 12.7425 18.8896 10.2509 15.8161 10.2509C12.7425 10.2509 10.2509 12.7425 10.2509 15.8161C10.2509 18.8896 12.7425 21.3813 15.8161 21.3813Z" fill="var(--fill-0, #D80027)"/>
</g>
</svg>
