<svg preserveAspectRatio="none" width="100%" height="100%" overflow="visible" style="display: block;" viewBox="0 0 17 17" fill="none" xmlns="http://www.w3.org/2000/svg">
<path id="Vector" d="M9.6875 12.5C9.6875 12.7472 9.61419 12.9889 9.47684 13.1945C9.33949 13.4 9.14427 13.5602 8.91586 13.6548C8.68745 13.7495 8.43612 13.7742 8.19364 13.726C7.95116 13.6777 7.72844 13.5587 7.55362 13.3839C7.3788 13.2091 7.25975 12.9863 7.21152 12.7439C7.16329 12.5014 7.18804 12.2501 7.28265 12.0216C7.37726 11.7932 7.53748 11.598 7.74304 11.4607C7.9486 11.3233 8.19028 11.25 8.4375 11.25C8.76902 11.25 9.08697 11.3817 9.32139 11.6161C9.55581 11.8505 9.6875 12.1685 9.6875 12.5ZM16.875 8.4375C16.875 10.1063 16.3802 11.7376 15.453 13.1251C14.5259 14.5127 13.2081 15.5941 11.6664 16.2327C10.1246 16.8713 8.42814 17.0384 6.79143 16.7129C5.15471 16.3873 3.6513 15.5837 2.47129 14.4037C1.29128 13.2237 0.487691 11.7203 0.162128 10.0836C-0.163435 8.44686 0.00365585 6.75036 0.64227 5.20861C1.28088 3.66686 2.36234 2.3491 3.74988 1.42198C5.13742 0.494851 6.76872 0 8.4375 0C10.6745 0.00248142 12.8192 0.892227 14.401 2.47403C15.9828 4.05583 16.8725 6.2005 16.875 8.4375ZM15 8.4375C15 7.13956 14.6151 5.87077 13.894 4.79157C13.1729 3.71237 12.148 2.87124 10.9489 2.37454C9.74972 1.87784 8.43022 1.74788 7.15722 2.0011C5.88422 2.25431 4.7149 2.87933 3.79712 3.79711C2.87933 4.71489 2.25432 5.88422 2.0011 7.15722C1.74788 8.43022 1.87784 9.74972 2.37454 10.9489C2.87124 12.148 3.71238 13.1729 4.79157 13.894C5.87077 14.6151 7.13956 15 8.4375 15C10.1774 14.9981 11.8455 14.3061 13.0758 13.0758C14.3061 11.8455 14.9981 10.1774 15 8.4375ZM8.4375 3.4375C6.54219 3.4375 5 4.83906 5 6.5625V6.875C5 7.12364 5.09878 7.3621 5.27459 7.53791C5.45041 7.71373 5.68886 7.8125 5.9375 7.8125C6.18614 7.8125 6.4246 7.71373 6.60042 7.53791C6.77623 7.3621 6.875 7.12364 6.875 6.875V6.5625C6.875 5.87344 7.57813 5.3125 8.4375 5.3125C9.29688 5.3125 10 5.87344 10 6.5625C10 7.25156 9.29688 7.8125 8.4375 7.8125C8.18886 7.8125 7.95041 7.91127 7.77459 8.08709C7.59877 8.2629 7.5 8.50136 7.5 8.75V9.375C7.49944 9.60662 7.58465 9.83025 7.73919 10.0028C7.89373 10.1753 8.10666 10.2845 8.33695 10.3094C8.56723 10.3342 8.79856 10.2729 8.98634 10.1373C9.17412 10.0017 9.30505 9.80141 9.35391 9.575C10.8055 9.20937 11.875 7.99766 11.875 6.5625C11.875 4.83906 10.3328 3.4375 8.4375 3.4375Z" fill="var(--fill-0, #CBD5E1)"/>
</svg>
