<svg preserveAspectRatio="none" width="100%" height="100%" overflow="visible" style="display: block;" viewBox="0 0 22 18" fill="none" xmlns="http://www.w3.org/2000/svg">
<g id="Group">
<path id="Vector" d="M5.85 2.55625L7.23125 6.80625H11.7L8.0875 9.4375L9.46875 13.6875L5.85 11.0625L2.23125 13.6875L3.61875 9.4375L0 6.80625H4.46875L5.85 2.55625Z" fill="var(--fill-0, #FFDA44)"/>
<path id="Vector_2" d="M16.0627 17.6L15.0064 16.3L13.4439 16.9063L14.3502 15.5L13.2939 14.1938L14.9127 14.625L15.8252 13.2188L15.9127 14.8938L17.5377 15.325L15.9689 15.925L16.0627 17.6Z" fill="var(--fill-0, #FFDA44)"/>
<path id="Vector_3" d="M18.1627 13.7875L18.6627 12.1875L17.2939 11.2188L18.9689 11.1938L19.4627 9.59375L20.0064 11.1812L21.6814 11.1625L20.3377 12.1625L20.8752 13.75L19.5064 12.7812L18.1627 13.7875Z" fill="var(--fill-0, #FFDA44)"/>
<path id="Vector_4" d="M20.9936 4.56255L20.2561 6.0688L21.4561 7.23755L19.7998 7.00005L19.0623 8.50005L18.7748 6.85005L17.1123 6.61255L18.5998 5.8313L18.3123 4.17505L19.5123 5.3438L20.9936 4.56255Z" fill="var(--fill-0, #FFDA44)"/>
<path id="Vector_5" d="M16.1062 2.28882e-05L15.9812 1.66877L17.5374 2.30002L15.9062 2.70002L15.7874 4.37502L14.9062 2.95002L13.2749 3.35002L14.3562 2.06877L13.4687 0.650023L15.0249 1.28127L16.1062 2.28882e-05Z" fill="var(--fill-0, #FFDA44)"/>
</g>
</svg>
