<svg preserveAspectRatio="none" width="100%" height="100%" overflow="visible" style="display: block;" viewBox="0 0 17 27" fill="none" xmlns="http://www.w3.org/2000/svg">
<path id="Vector" d="M16.1159 17.3913H13.1014L11.8261 18.7826V21.5652H9.04344V20.1739H10.4348V17.3913H4.17387V19.1304H2.78256V15.8159C2.35569 15.4338 2.08694 14.8788 2.08694 14.2608V5.21737C2.08694 4.06481 3.02131 3.13044 4.17387 3.13044V16H6.9565L7.91125 15.2043C7.7445 14.8071 7.65213 14.3709 7.65213 13.9131V11.8261H5.56519V7.65225H9.73906C9.73906 6.95662 10.7826 6.26094 10.7826 6.26094C10.7826 6.26094 11.8261 6.95656 11.8261 7.65225V8.69575V11.8262C12.6 11.8354 13.8296 11.8153 15.1581 11.8262C14.8091 11.2162 14.6086 10.4924 14.6086 9.73925C14.6086 8.51169 15.1386 7.40806 15.9822 6.64431C14.7662 3.94962 12.8259 1.652 10.4092 0H0V26.4347H10.4092C13.3479 24.4259 15.5822 21.4627 16.6662 17.9916L16.1159 17.3913Z" fill="var(--fill-0, #A2001D)"/>
</svg>
