<svg preserveAspectRatio="none" width="100%" height="100%" overflow="visible" style="display: block;" viewBox="0 0 9 7" fill="none" xmlns="http://www.w3.org/2000/svg">
<path id="Vector" d="M7.85319 0.27613C7.94059 0.363227 8.00993 0.466721 8.05725 0.580675C8.10457 0.69463 8.12893 0.816804 8.12893 0.940192C8.12893 1.06358 8.10457 1.18576 8.05725 1.29971C8.00993 1.41366 7.94059 1.51716 7.85319 1.60425L3.47819 5.97925C3.39109 6.06665 3.2876 6.136 3.17364 6.18332C3.05969 6.23064 2.93751 6.25499 2.81413 6.25499C2.69074 6.25499 2.56856 6.23064 2.45461 6.18332C2.34065 6.136 2.23716 6.06665 2.15006 5.97925L0.275064 4.10425C0.187858 4.01705 0.118682 3.91352 0.0714866 3.79958C0.0242911 3.68564 2.43109e-09 3.56352 0 3.44019C-2.43109e-09 3.31686 0.0242911 3.19474 0.0714866 3.0808C0.118682 2.96686 0.187858 2.86334 0.275064 2.77613C0.362269 2.68892 0.465798 2.61975 0.579738 2.57255C0.693678 2.52536 0.815798 2.50107 0.939126 2.50107C1.06245 2.50107 1.18457 2.52536 1.29851 2.57255C1.41245 2.61975 1.51598 2.68892 1.60319 2.77613L2.81491 3.98629L6.52663 0.273786C6.61385 0.186774 6.71737 0.117808 6.83126 0.0708297C6.94515 0.0238516 7.06719 -0.000216208 7.19039 1.46337e-06C7.3136 0.000219135 7.43555 0.0247182 7.54927 0.0720984C7.663 0.119479 7.76627 0.18881 7.85319 0.27613Z" fill="var(--fill-0, white)"/>
</svg>
