<svg preserveAspectRatio="none" width="100%" height="100%" overflow="visible" style="display: block;" viewBox="0 0 9 9" fill="none" xmlns="http://www.w3.org/2000/svg">
<g id="Group">
<path id="Vector" d="M1.46294 0L1.80837 1.06294H2.92594L2.02181 1.71975L2.36713 2.78269L1.46294 2.12575L0.55875 2.78269L0.904187 1.71975L0 1.06294H1.11762L1.46294 0Z" fill="var(--fill-0, #F0F0F0)"/>
<path id="Vector_2" d="M7.17163 0L7.51707 1.06294H8.63457L7.73044 1.71975L8.07582 2.78269L7.17163 2.12575L6.26744 2.78269L6.61288 1.71975L5.70869 1.06294H6.82626L7.17163 0Z" fill="var(--fill-0, #F0F0F0)"/>
<path id="Vector_3" d="M1.46294 5.56544L1.80837 6.62838H2.92594L2.02181 7.28525L2.36713 8.34819L1.46294 7.69125L0.55875 8.34819L0.904187 7.28525L0 6.62838H1.11762L1.46294 5.56544Z" fill="var(--fill-0, #F0F0F0)"/>
<path id="Vector_4" d="M7.17163 5.56544L7.51707 6.62838H8.63457L7.73044 7.28525L8.07582 8.34819L7.17163 7.69125L6.26744 8.34819L6.61288 7.28525L5.70869 6.62838H6.82626L7.17163 5.56544Z" fill="var(--fill-0, #F0F0F0)"/>
<path id="Vector_5" d="M4.31737 2.78267L4.66281 3.84561H5.78031L4.87618 4.50248L5.22156 5.56542L4.31737 4.90848L3.41318 5.56542L3.75856 4.50248L2.85437 3.84561H3.972L4.31737 2.78267Z" fill="var(--fill-0, #F0F0F0)"/>
</g>
</svg>
