<svg preserveAspectRatio="none" width="100%" height="100%" overflow="visible" style="display: block;" viewBox="0 0 20 20" fill="none" xmlns="http://www.w3.org/2000/svg">
<g id="frame">
<path id="Vector" d="M14.0167 1.66667H5.98333C4.20833 1.66667 2.76667 3.11667 2.76667 4.88333V16.625C2.76667 18.125 3.84167 18.7583 5.15833 18.0333L9.225 15.775C9.65833 15.5333 10.3583 15.5333 10.7833 15.775L14.85 18.0333C16.1667 18.7667 17.2417 18.1333 17.2417 16.625V4.88333C17.2333 3.11667 15.7917 1.66667 14.0167 1.66667Z" stroke="var(--stroke-0, #9099AF)" stroke-width="1.5" stroke-linecap="round" stroke-linejoin="round"/>
<path id="Vector_2" d="M14.0167 1.66667H5.98333C4.20833 1.66667 2.76667 3.11667 2.76667 4.88333V16.625C2.76667 18.125 3.84167 18.7583 5.15833 18.0333L9.225 15.775C9.65833 15.5333 10.3583 15.5333 10.7833 15.775L14.85 18.0333C16.1667 18.7667 17.2417 18.1333 17.2417 16.625V4.88333C17.2333 3.11667 15.7917 1.66667 14.0167 1.66667Z" stroke="var(--stroke-0, #9099AF)" stroke-width="1.5" stroke-linecap="round" stroke-linejoin="round"/>
<g id="Vector_3" opacity="0">
</g>
</g>
</svg>
