<svg preserveAspectRatio="none" width="100%" height="100%" overflow="visible" style="display: block;" viewBox="0 0 12 14" fill="none" xmlns="http://www.w3.org/2000/svg">
<g id="Group">
<path id="Vector" d="M8.05368 7.65218L8.31268 8.44937H9.15087L8.47275 8.942L8.73181 9.73918L8.05368 9.2465L7.37556 9.73918L7.63456 8.942L6.9565 8.44937H7.79462L8.05368 7.65218Z" fill="var(--fill-0, #F0F0F0)"/>
<path id="Vector_2" d="M5.91308 0L6.34489 1.32863H7.74177L6.61158 2.14969L7.04327 3.47831L5.91308 2.65712L4.78296 3.47831L5.21471 2.14969L4.08446 1.32863H5.48146L5.91308 0Z" fill="var(--fill-0, #F0F0F0)"/>
<path id="Vector_3" d="M5.91308 9.73919L6.34477 11.0678H7.74177L6.61146 11.8888L7.04327 13.2174L5.91308 12.3963L4.78296 13.2174L5.21458 11.8888L4.08446 11.0678H5.48127L5.91308 9.73919Z" fill="var(--fill-0, #F0F0F0)"/>
<path id="Vector_4" d="M9.99746 3.47831L10.4293 4.80694H11.8261L10.696 5.62794L11.1276 6.95656L9.99746 6.13538L8.86734 6.95656L9.29909 5.62794L8.1689 4.80694H9.56584L9.99746 3.47831Z" fill="var(--fill-0, #F0F0F0)"/>
<path id="Vector_5" d="M1.82863 3.47831L2.26044 4.80694H3.65725L2.52713 5.62794L2.95875 6.95656L1.82863 6.13538L0.698438 6.95656L1.13025 5.62794L0 4.80694H1.39694L1.82863 3.47831Z" fill="var(--fill-0, #F0F0F0)"/>
</g>
</svg>
