<svg preserveAspectRatio="none" width="100%" height="100%" overflow="visible" style="display: block;" viewBox="0 0 19 23" fill="none" xmlns="http://www.w3.org/2000/svg">
<g id="Group">
<path id="Vector" d="M14.5052 5.4355C14.5052 5.22275 14.6782 5.04981 14.891 5.04981H15.7175C17.024 5.04981 18.0869 3.98694 18.0869 2.6805C18.0869 1.37406 17.0241 0.311125 15.7175 0.311125H14.9326C14.6764 0.118687 14.3327 0 13.9536 0C13.1628 0 12.5217 0.512812 12.5217 1.14544C12.5217 1.77194 13.1506 2.28019 13.9308 2.29006L13.9304 2.29462H15.7175C15.9303 2.29462 16.1032 2.46763 16.1032 2.68038C16.1032 2.89313 15.9303 3.06606 15.7175 3.06606H14.891C13.5845 3.06606 12.5217 4.12894 12.5217 5.43538C12.5217 6.74181 13.5844 7.80475 14.891 7.80475H18.0869V5.82113H14.891C14.6782 5.82119 14.5052 5.64825 14.5052 5.4355V5.4355Z" fill="var(--fill-0, #F0F0F0)"/>
<path id="Vector_2" d="M1.98344 5.4355C1.98344 5.22275 2.15638 5.04981 2.36919 5.04981H3.19569C4.50219 5.04981 5.56513 3.98694 5.56513 2.6805C5.56513 1.37406 4.50225 0.311125 3.19569 0.311125H2.41081C2.15463 0.118687 1.81094 0 1.43181 0C0.641002 0 -6.10352e-05 0.512812 -6.10352e-05 1.14544C-6.10352e-05 1.77194 0.628751 2.28019 1.409 2.29006L1.40863 2.29462H3.19575C3.40856 2.29462 3.5815 2.46763 3.5815 2.68038C3.5815 2.89313 3.40856 3.06606 3.19575 3.06606H2.36925C1.06275 3.06606 -6.10352e-05 4.12894 -6.10352e-05 5.43538C-6.10352e-05 6.74181 1.06269 7.80475 2.36925 7.80475H5.56506V5.82113H2.36919C2.15638 5.82119 1.98344 5.64825 1.98344 5.4355V5.4355Z" fill="var(--fill-0, #F0F0F0)"/>
<path id="Vector_3" d="M14.5052 20.1969C14.5052 19.9841 14.6782 19.8112 14.891 19.8112H15.7175C17.024 19.8112 18.0869 18.7483 18.0869 17.4419C18.0869 16.1354 17.0241 15.0725 15.7175 15.0725H14.9326C14.6764 14.88 14.3327 14.7614 13.9536 14.7614C13.1627 14.7614 12.5217 15.2742 12.5217 15.9068C12.5217 16.5333 13.1505 17.0415 13.9307 17.0514L13.9304 17.056H15.7174C15.9302 17.056 16.1032 17.229 16.1032 17.4417C16.1032 17.6545 15.9302 17.8274 15.7174 17.8274H14.8909C13.5844 17.8274 12.5216 18.8903 12.5216 20.1967C12.5216 21.5032 13.5844 22.5661 14.8909 22.5661H18.0869V20.5825H14.891C14.6782 20.5826 14.5052 20.4095 14.5052 20.1969V20.1969Z" fill="var(--fill-0, #F0F0F0)"/>
<path id="Vector_4" d="M1.98356 20.1969C1.98356 19.9841 2.1565 19.8112 2.36931 19.8112H3.19581C4.50231 19.8112 5.56525 18.7483 5.56525 17.4419C5.56525 16.1354 4.50238 15.0725 3.19581 15.0725H2.41094C2.15475 14.88 1.81106 14.7614 1.43194 14.7614C0.641063 14.7614 0 15.2742 0 15.9068C0 16.5333 0.628813 17.0415 1.40906 17.0514L1.40869 17.056H3.19581C3.40863 17.056 3.58156 17.229 3.58156 17.4417C3.58156 17.6545 3.40863 17.8274 3.19581 17.8274H2.36931C1.06281 17.8274 0 18.8903 0 20.1967C0 21.5032 1.06275 22.5661 2.36931 22.5661H5.56519V20.5825H2.36931C2.1565 20.5826 1.98356 20.4095 1.98356 20.1969Z" fill="var(--fill-0, #F0F0F0)"/>
</g>
</svg>
