<svg preserveAspectRatio="none" width="100%" height="100%" overflow="visible" style="display: block;" viewBox="0 0 80 28" fill="none" xmlns="http://www.w3.org/2000/svg">
<g id="layerz">
<path d="M0 21.6728V0H3.75051V21.6728H0Z" fill="var(--fill-0, #1E293B)"/>
<path d="M11.7369 22.0164C10.649 22.0164 9.70418 21.835 8.90254 21.4724C8.10091 21.1097 7.48059 20.5944 7.0416 19.9264C6.60261 19.2393 6.38312 18.4472 6.38312 17.5501C6.38312 16.6912 6.57398 15.9277 6.95571 15.2597C7.33744 14.5726 7.92913 14 8.73076 13.5419C9.5324 13.0838 10.544 12.7594 11.7655 12.5685L16.8616 11.7382V14.6012L12.4813 15.3456C11.7369 15.4792 11.1834 15.7178 10.8207 16.0613C10.4581 16.4049 10.2768 16.8534 10.2768 17.407C10.2768 17.9414 10.4772 18.3708 10.878 18.6953C11.2979 19.0007 11.8132 19.1534 12.424 19.1534C13.2066 19.1534 13.8937 18.9911 14.4854 18.6667C15.0961 18.3231 15.5638 17.8555 15.8882 17.2638C16.2318 16.6721 16.4036 16.0232 16.4036 15.317V11.3088C16.4036 10.6408 16.1364 10.0873 15.6019 9.64826C15.0866 9.19018 14.3995 8.96114 13.5406 8.96114C12.7389 8.96114 12.0232 9.18064 11.3933 9.61963C10.7826 10.0395 10.334 10.6026 10.0477 11.3088L6.98434 9.82004C7.28973 8.99932 7.76689 8.29312 8.41584 7.70143C9.08387 7.09066 9.86642 6.6135 10.7635 6.26994C11.6606 5.92638 12.634 5.7546 13.6837 5.7546C14.9625 5.7546 16.0886 5.99318 17.0621 6.47035C18.0355 6.92843 18.7894 7.57737 19.3238 8.41718C19.8773 9.2379 20.1541 10.2018 20.1541 11.3088V21.6728H16.604V19.0102L17.4056 18.953C17.0048 19.621 16.5276 20.184 15.9741 20.6421C15.4206 21.0811 14.7908 21.4247 14.0845 21.6728C13.3783 21.9018 12.5958 22.0164 11.7369 22.0164Z" fill="var(--fill-0, #1E293B)"/>
<path d="M25.3097 28C24.8898 28 24.4794 27.9618 24.0786 27.8855C23.6778 27.8282 23.3151 27.7232 22.9907 27.5706V24.4213C23.2388 24.4785 23.5346 24.5358 23.8782 24.593C24.2408 24.6503 24.5749 24.6789 24.8802 24.6789C25.7391 24.6789 26.3594 24.4785 26.7412 24.0777C27.142 23.6769 27.4951 23.152 27.8005 22.5031L28.8312 20.0982L28.7739 23.2474L21.9886 6.09816H26.0254L30.778 18.7526H29.3465L34.0704 6.09816H38.1359L31.3506 23.2474C30.9498 24.259 30.4631 25.1179 29.8905 25.8241C29.3179 26.5303 28.6498 27.0648 27.8864 27.4274C27.142 27.8091 26.2831 28 25.3097 28Z" fill="var(--fill-0, #1E293B)"/>
<path d="M47.1019 22.0164C45.4987 22.0164 44.0958 21.6537 42.8933 20.9284C41.6909 20.2031 40.7556 19.2202 40.0876 17.9796C39.4196 16.7389 39.0856 15.3647 39.0856 13.8569C39.0856 12.2918 39.4196 10.908 40.0876 9.70552C40.7747 8.48398 41.7004 7.52011 42.8647 6.81391C44.0481 6.1077 45.3651 5.7546 46.8156 5.7546C48.0372 5.7546 49.106 5.95501 50.0222 6.35583C50.9574 6.75665 51.7495 7.31016 52.3985 8.01636C53.0474 8.72256 53.5436 9.53374 53.8872 10.4499C54.2308 11.347 54.4025 12.3204 54.4025 13.3701C54.4025 13.6374 54.3835 13.9141 54.3453 14.2004C54.3262 14.4867 54.2785 14.7348 54.2021 14.9448H42.1776V12.0818H52.0835L50.3085 13.4274C50.4803 12.5494 50.4325 11.7669 50.1653 11.0798C49.9172 10.3926 49.4973 9.84867 48.9056 9.44785C48.333 9.04703 47.6364 8.84663 46.8156 8.84663C46.0331 8.84663 45.3364 9.04703 44.7257 9.44785C44.1149 9.82958 43.6473 10.4022 43.3228 11.1656C43.0174 11.91 42.9029 12.8166 42.9792 13.8855C42.9029 14.8398 43.0269 15.6892 43.3514 16.4335C43.695 17.1588 44.1912 17.7219 44.8402 18.1227C45.5082 18.5235 46.2717 18.7239 47.1306 18.7239C47.9895 18.7239 48.7147 18.5426 49.3064 18.18C49.9172 17.8173 50.3944 17.3306 50.7379 16.7198L53.7727 18.2086C53.4673 18.953 52.9901 19.6115 52.3412 20.184C51.6922 20.7566 50.9192 21.2052 50.0222 21.5297C49.1442 21.8541 48.1708 22.0164 47.1019 22.0164Z" fill="var(--fill-0, #1E293B)"/>
<path d="M57.0452 21.6728V6.09816H60.5667V9.56237L60.2804 9.04703C60.643 7.88275 61.2061 7.07157 61.9695 6.6135C62.7521 6.15542 63.6873 5.92638 64.7753 5.92638H65.6914V9.24744H64.3458C63.277 9.24744 62.4181 9.58146 61.7691 10.2495C61.1202 10.8984 60.7957 11.8146 60.7957 12.998V21.6728H57.0452Z" fill="var(--fill-0, #1E293B)"/>
<path d="M66.2074 21.6728V18.638L75.2545 8.15951L75.8271 9.44785H66.6083V6.09816H79.1481V9.16155L70.2729 19.6401L69.7003 18.3517H79.2054V21.6728H66.2074Z" fill="var(--fill-0, #1E293B)"/>
</g>
</svg>
