<svg preserveAspectRatio="none" width="100%" height="100%" overflow="visible" style="display: block;" viewBox="0 0 12 16" fill="none" xmlns="http://www.w3.org/2000/svg">
<g id="Group">
<path id="Vector" d="M11.1304 10.706L8.85631 11.7756L10.0673 13.978L7.598 13.5056L7.28513 16.0001L5.56519 14.1654L3.84519 16.0001L3.53238 13.5056L1.06306 13.9779L2.274 11.7756L0 10.706L2.274 9.63624L1.06306 7.43405L3.53231 7.9063L3.84525 5.41193L5.56519 7.24649L7.28519 5.41193L7.598 7.9063L10.0674 7.43405L8.8565 9.63643L11.1304 10.706Z" fill="var(--fill-0, #FFDA44)"/>
<path id="Vector_2" d="M9.73899 1.0435H6.60855C6.60855 0.467312 6.1413 0 5.56505 0C4.9888 0 4.52155 0.46725 4.52155 1.0435H1.39111C1.39111 1.61975 1.89311 2.087 2.46936 2.087H2.43455C2.43455 2.66325 2.90168 3.1305 3.47805 3.1305C3.47805 3.70675 3.94518 4.174 4.52155 4.174H6.60849C7.18468 4.174 7.65199 3.70681 7.65199 3.1305C8.22818 3.1305 8.69549 2.66331 8.69549 2.087H8.66068C9.23699 2.087 9.73899 1.61981 9.73899 1.0435V1.0435Z" fill="var(--fill-0, #FFDA44)"/>
</g>
</svg>
