<svg preserveAspectRatio="none" width="100%" height="100%" overflow="visible" style="display: block;" viewBox="0 0 37 34" fill="none" xmlns="http://www.w3.org/2000/svg">
<g id="Vector">
<path id="Vector_2" d="M15.0861 12.1181C16.9621 11.0237 19.2819 11.0237 21.158 12.1181L34.7494 20.0464C36.7422 21.2089 36.7422 24.0884 34.7494 25.2509L21.158 33.1792C19.2819 34.2736 16.9621 34.2736 15.0861 33.1792L1.49464 25.2509C-0.498225 24.0884 -0.498225 21.2089 1.49464 20.0464L15.0861 12.1181Z" fill="var(--fill-0, #4D7C0F)"/>
<path id="Vector_3" d="M15.0861 0.820766C16.9621 -0.273588 19.2819 -0.273589 21.158 0.820765L34.7494 8.7491C36.7423 9.9116 36.7423 12.7911 34.7494 13.9536L21.158 21.8819C19.2819 22.9763 16.9621 22.9763 15.0861 21.8819L1.49465 13.9536C-0.498216 12.7911 -0.498216 9.9116 1.49465 8.7491L15.0861 0.820766Z" fill="var(--fill-0, #84CC16)"/>
</g>
</svg>
