<svg preserveAspectRatio="none" width="100%" height="100%" overflow="visible" style="display: block;" viewBox="0 0 7 28" fill="none" xmlns="http://www.w3.org/2000/svg">
<g id="Group">
<path id="Vector" d="M5.21764 12.614L3.47852 9.45884L5.21764 6.35315L6.95677 9.45884L5.21764 12.614Z" fill="var(--fill-0, #A2001D)"/>
<path id="Vector_2" d="M1.73913 12.6141L0 9.45887L1.73913 6.35318L3.47825 9.45887L1.73913 12.6141Z" fill="var(--fill-0, #A2001D)"/>
<path id="Vector_3" d="M5.21764 21.1939L3.47852 18.0387L5.21764 14.933L6.95677 18.0387L5.21764 21.1939Z" fill="var(--fill-0, #A2001D)"/>
<path id="Vector_4" d="M1.73913 21.1938L0 18.0386L1.73913 14.9329L3.47825 18.0386L1.73913 21.1938Z" fill="var(--fill-0, #A2001D)"/>
<path id="Vector_5" d="M6.95626 0.87925L6.46388 0C5.58076 0.52325 4.75245 1.12906 3.98926 1.80681L5.21713 4.03438L6.95626 0.87925Z" fill="var(--fill-0, #A2001D)"/>
<path id="Vector_6" d="M5.21744 23.5126L3.97656 25.7286C4.73906 26.4073 5.56681 27.014 6.44956 27.5383L6.95662 26.6184L5.21744 23.5126Z" fill="var(--fill-0, #A2001D)"/>
</g>
</svg>
