<svg preserveAspectRatio="none" width="100%" height="100%" overflow="visible" style="display: block;" viewBox="0 0 13 9" fill="none" xmlns="http://www.w3.org/2000/svg">
<path id="Vector" d="M9.04338 4.67075C8.65063 4.67075 8.27775 4.74906 7.9315 4.87369C8.12119 4.45094 8.24837 3.98056 8.24837 3.47825C8.24837 1.49069 6.26081 0 6.26081 0C6.26081 0 4.27325 1.49069 4.27325 3.47825C4.27325 3.9805 4.40044 4.45094 4.59013 4.87369C4.24381 4.74919 3.87094 4.67075 3.47825 4.67075C1.49069 4.67075 0 6.65831 0 6.65831C0 6.65831 1.49069 8.64594 3.47825 8.64594C4.64356 8.64594 5.63744 7.96294 6.26088 7.39756C6.88431 7.96288 7.87819 8.64594 9.0435 8.64594C11.0311 8.64594 12.5217 6.65831 12.5217 6.65831C12.5217 6.65831 11.0309 4.67075 9.04338 4.67075V4.67075Z" fill="var(--fill-0, #F0F0F0)"/>
</svg>
