<svg preserveAspectRatio="none" width="100%" height="100%" overflow="visible" style="display: block;" viewBox="0 0 20 20" fill="none" xmlns="http://www.w3.org/2000/svg">
<g id="Group">
<path id="Vector" d="M19.9154 8.69566H11.3044H11.3044V0.0846484C10.8774 0.0290625 10.4421 0 10 0C9.55785 0 9.12262 0.0290625 8.69566 0.0846484V8.69559V8.69563H0.0846484C0.0290625 9.12262 0 9.55793 0 10C0 10.4421 0.0290625 10.8774 0.0846484 11.3043H8.69559H8.69563V19.9154C9.12262 19.9709 9.55785 20 10 20C10.4421 20 10.8774 19.971 11.3043 19.9154V11.3044V11.3044H19.9154C19.9709 10.8774 20 10.4421 20 10C20 9.55793 19.9709 9.12262 19.9154 8.69566V8.69566Z" fill="var(--fill-0, #D80027)"/>
<path id="Vector_2" d="M12.6086 12.6087L17.071 17.071C17.2762 16.8659 17.472 16.6514 17.6588 16.429L13.8384 12.6086H12.6086V12.6087Z" fill="var(--fill-0, #D80027)"/>
<path id="Vector_3" d="M7.39146 12.6088H7.39138L2.92908 17.0711C3.13423 17.2763 3.34873 17.4721 3.57107 17.6589L7.39146 13.8384V12.6088Z" fill="var(--fill-0, #D80027)"/>
<path id="Vector_4" d="M7.39146 7.39139V7.39131L2.92912 2.92892C2.72389 3.13408 2.52811 3.34857 2.34131 3.57092L6.16174 7.39135H7.39146V7.39139Z" fill="var(--fill-0, #D80027)"/>
<path id="Vector_5" d="M12.6086 7.39135L17.071 2.92893C16.8659 2.7237 16.6514 2.52791 16.429 2.34116L12.6086 6.16159V7.39135Z" fill="var(--fill-0, #D80027)"/>
</g>
</svg>
