<svg preserveAspectRatio="none" width="100%" height="100%" overflow="visible" style="display: block;" viewBox="0 0 6 9" fill="none" xmlns="http://www.w3.org/2000/svg">
<path id="Vector" d="M4.22925 4.446L2.27331 3.59844C2.27331 3.59844 2.73094 2.0795 2.75531 1.97556C2.77313 1.89962 2.78262 1.82044 2.78262 1.73906C2.78262 1.45087 2.66581 1.19 2.47694 1.00125L2.96881 0.509375C2.65412 0.194687 2.21931 0 1.73906 0C1.25881 0 0.824 0.194625 0.509313 0.509375L1.00119 1.00125C0.812312 1.19006 0.695562 1.45094 0.695562 1.73906C0.695562 1.84444 0.7115 1.946 0.740562 2.04194L0 2.78244H1.346C1.346 2.78244 0.7895 3.61831 0.485687 4.30475C0.181875 4.99113 0.489875 5.82906 1.192 6.14119L1.598 6.32162L2.27331 6.95638V7.652L1.57769 8.34763H2.969V6.95631L3.60381 6.3215H4.91681C4.92312 6.30844 4.92975 6.29569 4.93575 6.28231C5.24769 5.58025 4.93144 4.758 4.22925 4.446Z" fill="var(--fill-0, black)"/>
</svg>
