<svg preserveAspectRatio="none" width="100%" height="100%" overflow="visible" style="display: block;" viewBox="0 0 13 16" fill="none" xmlns="http://www.w3.org/2000/svg">
<g id="Vector">
<path id="Vector_2" fill-rule="evenodd" clip-rule="evenodd" d="M3.62269 15.0255L3.88346 13.3135L3.30257 13.2995H0.528692L2.45644 0.665927C2.46244 0.627671 2.48186 0.592158 2.51021 0.566895C2.5387 0.541632 2.57502 0.527773 2.61301 0.527773H7.29018C8.84305 0.527773 9.91461 0.861682 10.474 1.52084C10.7363 1.83006 10.9033 2.15329 10.9842 2.50885C11.069 2.88203 11.0704 3.32782 10.9877 3.87163L10.9817 3.91118V4.25967L11.244 4.41327C11.4648 4.53439 11.6404 4.67298 11.775 4.83164C11.9993 5.09611 12.1445 5.43218 12.2058 5.83048C12.2692 6.24018 12.2482 6.72783 12.1445 7.27987C12.0248 7.91477 11.8313 8.46782 11.57 8.92025C11.3298 9.33717 11.0236 9.68306 10.66 9.951C10.3129 10.2057 9.90064 10.399 9.43442 10.5227C8.98258 10.6442 8.46747 10.7056 7.9025 10.7056H7.53852C7.27831 10.7056 7.0255 10.8024 6.82703 10.9761C6.628 11.1534 6.49643 11.3956 6.45606 11.6605L6.42855 11.8147L5.96777 14.8323L5.94696 14.943C5.94138 14.9781 5.93188 14.9956 5.91791 15.0074C5.90548 15.0182 5.8876 15.0255 5.87014 15.0255H3.62269" fill="var(--fill-0, #28356A)"/>
<path id="Vector_3" fill-rule="evenodd" clip-rule="evenodd" d="M11.4929 3.95143C11.479 4.04367 11.463 4.13794 11.4451 4.23481C10.8283 7.50807 8.71801 8.63886 6.02291 8.63886H4.65064C4.32102 8.63886 4.04321 8.88615 3.99195 9.22222L3.09037 15.1331C3.05699 15.3539 3.22152 15.5526 3.4369 15.5526H5.87081C6.15895 15.5526 6.4038 15.3362 6.44919 15.0425L6.47307 14.9147L6.93134 11.9089L6.96081 11.7441C7.00564 11.4493 7.25104 11.2328 7.53919 11.2328H7.90317C10.2612 11.2328 12.1073 10.2433 12.6468 7.37973C12.8721 6.18355 12.7555 5.18471 12.1591 4.48225C11.9786 4.27047 11.7548 4.09463 11.4929 3.95143" fill="var(--fill-0, #298FC2)"/>
<path id="Vector_4" fill-rule="evenodd" clip-rule="evenodd" d="M10.8474 3.68554C10.7531 3.6571 10.6559 3.6314 10.5561 3.60816C10.4559 3.5855 10.3532 3.56543 10.2475 3.54782C9.87747 3.48603 9.47201 3.45673 9.03777 3.45673H5.37182C5.28145 3.45673 5.19569 3.4778 5.11901 3.51591C4.94987 3.59993 4.8243 3.76537 4.79385 3.96791L4.01393 9.07341L3.99158 9.22225C4.04284 8.88617 4.32065 8.63888 4.65027 8.63888H6.02254C8.71764 8.63888 10.8279 7.50752 11.4447 4.23484C11.4632 4.13797 11.4787 4.0437 11.4925 3.95145C11.3365 3.86585 11.1675 3.79266 10.9855 3.73029C10.9405 3.71484 10.8941 3.69998 10.8474 3.68554" fill="var(--fill-0, #22284F)"/>
<path id="Vector_5" fill-rule="evenodd" clip-rule="evenodd" d="M4.7939 3.96793C4.82435 3.76539 4.94991 3.59995 5.11905 3.51651C5.19629 3.47826 5.28149 3.45718 5.37186 3.45718H9.03781C9.47205 3.45718 9.87752 3.48663 10.2475 3.54842C10.3532 3.56588 10.4559 3.58609 10.5562 3.60876C10.6559 3.63186 10.7531 3.6577 10.8474 3.68599C10.8942 3.70043 10.9406 3.71544 10.9859 3.73031C11.1679 3.79268 11.3371 3.86644 11.4931 3.95147C11.6766 2.74187 11.4916 1.91828 10.8588 1.17251C10.1612 0.351377 8.90219 0 7.29108 0H2.61377C2.2847 0 2.00396 0.247292 1.95312 0.583944L0.00498574 13.3474C-0.0334239 13.5999 0.154993 13.8277 0.401373 13.8277H3.28894L4.7939 3.96793" fill="var(--fill-0, #28356A)"/>
</g>
</svg>
