<svg preserveAspectRatio="none" width="100%" height="100%" overflow="visible" style="display: block;" viewBox="0 0 9 9" fill="none" xmlns="http://www.w3.org/2000/svg">
<g id="Group 2">
<path id="Union" d="M4.375 0C4.85825 1.85583e-07 5.25 0.391751 5.25 0.875V3.5H7.875C8.35825 3.5 8.75 3.89175 8.75 4.375C8.75 4.85825 8.35825 5.25 7.875 5.25H5.25V7.875C5.25 8.35825 4.85825 8.75 4.375 8.75C3.89175 8.75 3.5 8.35825 3.5 7.875V5.25H0.875C0.391751 5.25 0 4.85825 0 4.375C0 3.89175 0.391751 3.5 0.875 3.5H3.5V0.875C3.5 0.391751 3.89175 2.11235e-08 4.375 0Z" fill="var(--fill-0, #18191C)"/>
</g>
</svg>
