<svg preserveAspectRatio="none" width="100%" height="100%" overflow="visible" style="display: block;" viewBox="0 0 87 20" fill="none" xmlns="http://www.w3.org/2000/svg">
<g id="zeero">
<path d="M0 19.6226V15.283L8.11321 5.4717V5.09434H1.50943L0 3.58491V0.377358H15.4717V4.71698L7.35849 14.5283V14.9057H15.4717V19.6226H0Z" fill="var(--fill-0, #1E293B)"/>
<path d="M22.8479 7.92453H28.8856V6.22641C28.8856 4.98113 28.2441 4.33962 26.9988 4.33962H24.7347C23.4894 4.33962 22.8479 4.98113 22.8479 6.22641V7.92453ZM17.3762 14.717V4.90566C17.3762 2.30189 19.6781 0 22.2818 0H29.4516C32.0554 0 34.3573 2.30189 34.3573 4.90566V12.0755H22.8479V13.3962C22.8479 14.6415 23.4894 15.283 24.7347 15.283H33.4139V19.6226H22.2818C19.6781 19.6226 17.3762 17.3208 17.3762 14.717Z" fill="var(--fill-0, #1E293B)"/>
<path d="M41.9104 7.92453H47.9481V6.22641C47.9481 4.98113 47.3066 4.33962 46.0613 4.33962H43.7972C42.5519 4.33962 41.9104 4.98113 41.9104 6.22641V7.92453ZM36.4387 14.717V4.90566C36.4387 2.30189 38.7406 0 41.3443 0H48.5141C51.1179 0 53.4198 2.30189 53.4198 4.90566V12.0755H41.9104V13.3962C41.9104 14.6415 42.5519 15.283 43.7972 15.283H52.4764V19.6226H41.3443C38.7406 19.6226 36.4387 17.3208 36.4387 14.717Z" fill="var(--fill-0, #1E293B)"/>
<path d="M55.8785 19.6226V0.377358H59.6521L60.4068 2.45283H60.5955C60.8597 2 61.1615 1.58491 61.5766 1.24528C62.2936 0.64151 63.3125 0 64.9351 0H68.3314V5.28302H63.6144C62.1049 5.28302 61.3502 6.03774 61.3502 7.54717V19.6226H55.8785Z" fill="var(--fill-0, #1E293B)"/>
<path d="M69.4782 15.0943V4.90566C69.4782 2.30189 71.7801 0 74.3838 0H81.931C84.5348 0 86.8367 2.30189 86.8367 4.90566V15.0943C86.8367 17.6981 84.5348 20 81.931 20H74.3838C71.7801 20 69.4782 17.6981 69.4782 15.0943ZM76.8367 15.0943H79.4782C80.7235 15.0943 81.365 14.4528 81.365 13.2075V6.79245C81.365 5.54717 80.7235 4.90566 79.4782 4.90566H76.8367C75.5914 4.90566 74.9499 5.54717 74.9499 6.79245V13.2075C74.9499 14.4528 75.5914 15.0943 76.8367 15.0943Z" fill="var(--fill-0, #1E293B)"/>
</g>
</svg>
