<svg preserveAspectRatio="none" width="100%" height="100%" overflow="visible" style="display: block;" viewBox="0 0 32 32" fill="none" xmlns="http://www.w3.org/2000/svg">
<g id="Group">
<path id="Vector" d="M7.58569 2.90906H25.1339C22.5314 1.07669 19.3583 0 15.9335 0C13.8466 0 10.1882 1.07669 7.58569 2.90906Z" fill="var(--fill-0, #D80027)"/>
<path id="Vector_2" d="M15.2379 8.7273H30.1888C29.6568 7.68649 29.0141 6.71155 28.2763 5.81824H15.2379V8.7273Z" fill="var(--fill-0, #D80027)"/>
<path id="Vector_3" d="M15.2379 14.5455H31.8671C31.7771 13.5466 31.5962 12.5739 31.3311 11.6364H15.2379V14.5455Z" fill="var(--fill-0, #D80027)"/>
<path id="Vector_4" d="M0.536 20.3637H31.331C31.5961 19.4263 31.777 18.4535 31.867 17.4546H0C0.09 18.4535 0.270875 19.4262 0.536 20.3637V20.3637Z" fill="var(--fill-0, #D80027)"/>
<path id="Vector_5" d="M3.59075 26.1817H28.2762C29.0141 25.2883 29.6567 24.3134 30.1888 23.2727H1.67825C2.21031 24.3135 2.85294 25.2884 3.59075 26.1817V26.1817Z" fill="var(--fill-0, #D80027)"/>
<path id="Vector_6" d="M15.9335 32C19.3583 32 22.5314 30.9233 25.1339 29.0909H6.73306C9.33556 30.9233 12.5087 32 15.9335 32Z" fill="var(--fill-0, #D80027)"/>
</g>
</svg>
