<svg preserveAspectRatio="none" width="100%" height="100%" overflow="visible" style="display: block;" viewBox="0 0 30 21" fill="none" xmlns="http://www.w3.org/2000/svg">
<g id="Group">
<path id="Vector" d="M29.8977 9.58337H11.238L1.65319 0C1.34338 0.32675 1.00757 0.783 0.799878 1.10794L9.96607 10.2789L0.792191 19.453C0.973816 19.7761 1.3695 20.2544 1.64732 20.5656L11.2382 10.9747H29.8999C29.9099 10.7439 29.913 10.5122 29.913 10.2791C29.9129 9.96669 29.9043 9.73637 29.8977 9.58337Z" fill="var(--fill-0, #FFDA44)"/>
<path id="Vector_2" d="M1.79962 13.6956V12.3554C3.137 12.3554 4.22494 11.2673 4.22494 9.93005C4.22494 8.98386 3.45513 8.21411 2.509 8.21411C1.86444 8.21411 1.34 8.73849 1.34 9.38318C1.34 9.79536 1.67531 10.1307 2.08756 10.1307C2.32056 10.1307 2.51012 9.94105 2.51012 9.70805H3.85025C3.85025 10.6801 3.0595 11.4709 2.08762 11.4709C0.936437 11.4709 0 10.5343 0 9.3833C0 7.99974 1.12563 6.87418 2.50906 6.87418C4.19419 6.87418 5.56519 8.24518 5.56519 9.93024C5.56512 12.0063 3.87594 13.6956 1.79962 13.6956V13.6956Z" fill="var(--fill-0, #FFDA44)"/>
</g>
</svg>
