<svg preserveAspectRatio="none" width="100%" height="100%" overflow="visible" style="display: block;" viewBox="0 0 12 15" fill="none" xmlns="http://www.w3.org/2000/svg">
<g id="Group">
<path id="Vector" d="M9.84636 3.47821L10.1917 4.54109H11.3092L10.4052 5.19802L10.7505 6.26084L9.84636 5.60402L8.9423 6.26084L9.28761 5.19802L8.38342 4.54109H9.50099L9.84636 3.47821Z" fill="var(--fill-0, #F0F0F0)"/>
<path id="Vector_2" d="M5.3068 11.1304L5.73855 12.4591H7.13543L6.00524 13.2801L6.43699 14.6087L5.3068 13.7876L4.17668 14.6087L4.60837 13.2801L3.47824 12.4591H4.87512L5.3068 11.1304Z" fill="var(--fill-0, #F0F0F0)"/>
<path id="Vector_3" d="M5.3068 0L5.73855 1.32869H7.13543L6.00524 2.14962L6.43699 3.47825L5.3068 2.65712L4.17668 3.47825L4.60837 2.14962L3.47824 1.32869H4.87512L5.3068 0Z" fill="var(--fill-0, #F0F0F0)"/>
<path id="Vector_4" d="M1.82856 6.26086L2.26031 7.58955H3.65712L2.527 8.41049L2.95875 9.73911L1.82856 8.91799L0.698437 9.73911L1.13013 8.41049L0 7.58955H1.39681L1.82856 6.26086Z" fill="var(--fill-0, #F0F0F0)"/>
</g>
</svg>
