<svg preserveAspectRatio="none" width="100%" height="100%" overflow="visible" style="display: block;" viewBox="0 0 16 17" fill="none" xmlns="http://www.w3.org/2000/svg">
<path id="Vector" d="M14.0625 1.25H12.5V0.9375C12.5 0.68886 12.4012 0.450403 12.2254 0.274587C12.0496 0.0987721 11.8111 0 11.5625 0C11.3139 0 11.0754 0.0987721 10.8996 0.274587C10.7238 0.450403 10.625 0.68886 10.625 0.9375V1.25H5V0.9375C5 0.68886 4.90123 0.450403 4.72541 0.274587C4.5496 0.0987721 4.31114 0 4.0625 0C3.81386 0 3.5754 0.0987721 3.39959 0.274587C3.22377 0.450403 3.125 0.68886 3.125 0.9375V1.25H1.5625C1.1481 1.25 0.750671 1.41462 0.457646 1.70765C0.16462 2.00067 0 2.3981 0 2.8125V15.3125C0 15.7269 0.16462 16.1243 0.457646 16.4174C0.750671 16.7104 1.1481 16.875 1.5625 16.875H14.0625C14.4769 16.875 14.8743 16.7104 15.1674 16.4174C15.4604 16.1243 15.625 15.7269 15.625 15.3125V2.8125C15.625 2.3981 15.4604 2.00067 15.1674 1.70765C14.8743 1.41462 14.4769 1.25 14.0625 1.25ZM3.125 3.125C3.125 3.37364 3.22377 3.6121 3.39959 3.78791C3.5754 3.96373 3.81386 4.0625 4.0625 4.0625C4.31114 4.0625 4.5496 3.96373 4.72541 3.78791C4.90123 3.6121 5 3.37364 5 3.125H10.625C10.625 3.37364 10.7238 3.6121 10.8996 3.78791C11.0754 3.96373 11.3139 4.0625 11.5625 4.0625C11.8111 4.0625 12.0496 3.96373 12.2254 3.78791C12.4012 3.6121 12.5 3.37364 12.5 3.125H13.75V5H1.875V3.125H3.125ZM1.875 15V6.875H13.75V15H1.875Z" fill="var(--fill-0, #475569)"/>
</svg>
