<svg preserveAspectRatio="none" width="100%" height="100%" overflow="visible" style="display: block;" viewBox="0 0 89 24" fill="none" xmlns="http://www.w3.org/2000/svg">
<g id="brotha">
<path d="M4.31678 22.0027H4.25235V23.5168H0V0H4.60671V7.47382H4.67114C5.73423 6.47517 7.18389 5.95973 9.02013 5.95973C13.4336 5.95973 16.655 9.79329 16.655 14.9799C16.655 20.1664 13.4336 24 9.02013 24C7.05503 24 5.31544 23.1624 4.31678 22.0027ZM12.0483 14.9799C12.0483 11.9195 10.6309 10.1799 8.15034 10.1799C6.08859 10.1799 4.60671 11.6617 4.60671 13.7557V16.204C4.60671 18.2658 6.08859 19.7799 8.15034 19.7799C10.6309 19.7799 12.0483 18.0403 12.0483 14.9799Z" fill="var(--fill-0, #1E293B)"/>
<path d="M18.224 23.5168V6.44295H22.5408V7.95705H22.6052C23.3784 6.79731 24.6347 6.12081 26.2777 6.12081C27.0831 6.12081 27.824 6.21745 28.5005 6.41074L27.7273 10.7919C27.0508 10.6309 26.4388 10.5342 25.8267 10.5342C23.8616 10.5342 22.8307 11.855 22.8307 14.3356V23.5168H18.224Z" fill="var(--fill-0, #1E293B)"/>
<path d="M27.6863 14.9799C27.6863 9.63221 31.1333 5.95973 36.1266 5.95973C41.1521 5.95973 44.5991 9.6 44.5991 14.9799C44.5991 20.3597 41.1521 24 36.1266 24C31.1333 24 27.6863 20.3275 27.6863 14.9799ZM39.9924 14.9799C39.9924 11.9195 38.5749 10.1477 36.1266 10.1477C33.7105 10.1477 32.293 11.9195 32.293 14.9799C32.293 18.0403 33.7105 19.8121 36.1266 19.8121C38.5749 19.8121 39.9924 18.0403 39.9924 14.9799Z" fill="var(--fill-0, #1E293B)"/>
<path d="M56.172 10.502H51.9518V17.7181C51.9518 18.7812 52.3706 19.1034 53.6914 19.1034H55.5599V23.5168H53.2404C49.0203 23.5168 47.3451 21.9705 47.3451 18.0081V10.502H44.4136V6.44295H47.3451V2.15839H51.9518V6.44295H56.172V10.502Z" fill="var(--fill-0, #1E293B)"/>
<path d="M57.4178 23.5168V0H62.0245V7.95705H62.0889C63.0232 6.70067 64.7305 5.95973 66.5668 5.95973C70.2393 5.95973 72.8164 8.53691 72.8164 12.2738V23.5168H68.2097V13.4013C68.2097 11.3718 67.0822 10.2121 65.1171 10.2121C63.1842 10.2121 62.0245 11.4362 62.0245 13.4013V23.5168H57.4178Z" fill="var(--fill-0, #1E293B)"/>
<path d="M74.435 18.8779C74.435 16.0107 76.1424 14.4644 80.5236 13.4013C83.2296 12.757 84.0672 12.2738 84.0672 11.3718C84.0672 10.3732 83.2296 9.79329 81.7155 9.79329C79.9437 9.79329 78.8162 10.7597 78.4618 12.5315L74.2417 11.5973C74.4994 9.88993 75.3048 8.53691 76.69 7.50604C78.0752 6.47517 79.7504 5.95973 81.7155 5.95973C86.0001 5.95973 88.7061 8.44027 88.7061 12.4349V23.5168H84.5826V22.1638H84.5182C83.7128 23.3557 82.1021 24 80.0403 24C76.6578 24 74.435 21.9705 74.435 18.8779ZM84.2283 17.7503V15.2698H84.1638C83.8739 15.7852 83.1652 16.204 81.6189 16.6228C79.5571 17.1705 78.8484 17.6859 78.8484 18.5879C78.8484 19.6188 79.5571 20.1342 80.9424 20.1342C82.8752 20.1342 84.2283 19.1678 84.2283 17.7503Z" fill="var(--fill-0, #1E293B)"/>
</g>
</svg>
