<svg preserveAspectRatio="none" width="100%" height="100%" overflow="visible" style="display: block;" viewBox="0 0 20 20" fill="none" xmlns="http://www.w3.org/2000/svg">
<g id="Group">
<path id="Vector" d="M1.7227 3.5672C0.937187 4.58919 0.344883 5.76712 0 7.04677H5.20227L1.7227 3.5672Z" fill="var(--fill-0, #0052B4)"/>
<path id="Vector_2" d="M19.3111 7.04688C18.9662 5.76727 18.3738 4.58934 17.5884 3.56735L14.1089 7.04688H19.3111Z" fill="var(--fill-0, #0052B4)"/>
<path id="Vector_3" d="M0 12.2643C0.344922 13.5439 0.937226 14.7218 1.7227 15.7437L5.20215 12.2643H0Z" fill="var(--fill-0, #0052B4)"/>
<path id="Vector_4" d="M15.7439 1.72273C14.7219 0.937227 13.5441 0.344922 12.2644 0V5.20223L15.7439 1.72273Z" fill="var(--fill-0, #0052B4)"/>
<path id="Vector_5" d="M3.5675 17.5882C4.5895 18.3737 5.76743 18.966 7.04704 19.3109V14.1087L3.5675 17.5882Z" fill="var(--fill-0, #0052B4)"/>
<path id="Vector_6" d="M7.047 0C5.76739 0.344922 4.58946 0.937226 3.5675 1.7227L7.047 5.20219V0Z" fill="var(--fill-0, #0052B4)"/>
<path id="Vector_7" d="M12.2644 19.3109C13.544 18.966 14.7219 18.3737 15.7439 17.5882L12.2644 14.1087V19.3109Z" fill="var(--fill-0, #0052B4)"/>
<path id="Vector_8" d="M14.1089 12.2643L17.5884 15.7438C18.3738 14.7218 18.9662 13.5439 19.3111 12.2643H14.1089Z" fill="var(--fill-0, #0052B4)"/>
</g>
</svg>
