<svg preserveAspectRatio="none" width="100%" height="100%" overflow="visible" style="display: block;" viewBox="0 0 13 10" fill="none" xmlns="http://www.w3.org/2000/svg">
<g id="Group">
<path id="Vector" d="M2.087 4.8695C2.087 2.53837 3.72531 0.591 5.91306 0.113188C5.57681 0.0398125 5.228 0 4.86956 0C2.18013 0 0 2.18013 0 4.86956C0 7.559 2.18013 9.73912 4.86956 9.73912C5.22788 9.73912 5.57675 9.69931 5.91306 9.62588C3.72531 9.14806 2.087 7.20069 2.087 4.8695V4.8695Z" fill="var(--fill-0, #F0F0F0)"/>
<path id="Vector_2" d="M8.34764 0.347778L8.69302 1.41059H9.81058L8.90639 2.06753L9.25177 3.13034L8.34764 2.47353L7.44352 3.13034L7.78889 2.06753L6.88477 1.41059H8.00227L8.34764 0.347778Z" fill="var(--fill-0, #F0F0F0)"/>
<path id="Vector_3" d="M5.63695 2.43475L5.98226 3.49762H7.09983L6.1957 4.1545L6.54108 5.21731L5.63695 4.5605L4.7327 5.21731L5.07814 4.1545L4.17395 3.49762H5.29151L5.63695 2.43475Z" fill="var(--fill-0, #F0F0F0)"/>
<path id="Vector_4" d="M11.0588 2.43478L11.4042 3.49765H12.5217L11.6175 4.15453L11.963 5.21734L11.0588 4.56053L10.1547 5.21734L10.5 4.15453L9.59592 3.49765H10.7134L11.0588 2.43478Z" fill="var(--fill-0, #F0F0F0)"/>
<path id="Vector_5" d="M10.0153 5.56521L10.3607 6.62808H11.4782L10.5741 7.28496L10.9195 8.34777L10.0153 7.69096L9.11121 8.34777L9.45658 7.28496L8.55246 6.62808H9.6699L10.0153 5.56521Z" fill="var(--fill-0, #F0F0F0)"/>
<path id="Vector_6" d="M6.68032 5.56521L7.02563 6.62808H8.14325L7.23906 7.28496L7.5845 8.34777L6.68032 7.69096L5.77613 8.34777L6.1215 7.28496L5.21738 6.62808H6.33494L6.68032 5.56521Z" fill="var(--fill-0, #F0F0F0)"/>
</g>
</svg>
