<svg preserveAspectRatio="none" width="100%" height="100%" overflow="visible" style="display: block;" viewBox="0 0 20 20" fill="none" xmlns="http://www.w3.org/2000/svg">
<g id="notification">
<path id="Vector" d="M10.0166 2.42499C7.25828 2.42499 5.01662 4.66665 5.01662 7.42499V9.83332C5.01662 10.3417 4.79995 11.1167 4.54162 11.55L3.58328 13.1417C2.99162 14.125 3.39995 15.2167 4.48328 15.5833C8.07495 16.7833 11.95 16.7833 15.5416 15.5833C16.55 15.25 16.9916 14.0583 16.4416 13.1417L15.4833 11.55C15.2333 11.1167 15.0166 10.3417 15.0166 9.83332V7.42499C15.0166 4.67499 12.7666 2.42499 10.0166 2.42499Z" stroke="var(--stroke-0, #9099AF)" stroke-width="1.5" stroke-miterlimit="10" stroke-linecap="round"/>
<path id="Vector_2" d="M11.5583 2.66667C11.3 2.59167 11.0333 2.53334 10.7583 2.5C9.95831 2.4 9.19164 2.45834 8.47498 2.66667C8.71664 2.05 9.31664 1.61667 10.0166 1.61667C10.7166 1.61667 11.3166 2.05 11.5583 2.66667Z" stroke="var(--stroke-0, #9099AF)" stroke-width="1.5" stroke-miterlimit="10" stroke-linecap="round" stroke-linejoin="round"/>
<path id="Vector_3" d="M12.5167 15.8833C12.5167 17.2583 11.3917 18.3833 10.0167 18.3833C9.33339 18.3833 8.70006 18.1 8.25006 17.65C7.80006 17.2 7.51672 16.5667 7.51672 15.8833" stroke="var(--stroke-0, #9099AF)" stroke-width="1.5" stroke-miterlimit="10"/>
<g id="Vector_4" opacity="0">
</g>
</g>
</svg>
