<svg preserveAspectRatio="none" width="100%" height="100%" overflow="visible" style="display: block;" viewBox="0 0 26 22" fill="none" xmlns="http://www.w3.org/2000/svg">
<g id="Group">
<path id="Vector" d="M19.692 18.0869L20.1311 19.005L21.1226 18.7759L20.6786 19.6915L21.4759 20.3238L20.4831 20.5475L20.486 21.5652L19.692 20.9285L18.8981 21.5652L18.9009 20.5475L17.9082 20.3238L18.7055 19.6915L18.2615 18.7759L19.253 19.005L19.692 18.0869Z" fill="var(--fill-0, #FFDA44)"/>
<path id="Vector_2" d="M15.6071 8.3479L16.0462 9.26596L17.0377 9.03678L16.5936 9.95253L17.3909 10.5848L16.3982 10.8085L16.401 11.8262L15.6071 11.1895L14.8132 11.8262L14.8159 10.8085L13.8232 10.5848L14.6206 9.95253L14.1765 9.03678L15.1681 9.26596L15.6071 8.3479Z" fill="var(--fill-0, #FFDA44)"/>
<path id="Vector_3" d="M19.692 2.78265L20.131 3.70072L21.1225 3.47147L20.6786 4.38722L21.4758 5.01953L20.4831 5.24322L20.4858 6.2609L19.692 5.62422L18.8981 6.2609L18.9008 5.24322L17.9082 5.01953L18.7055 4.38722L18.2615 3.47147L19.2529 3.70072L19.692 2.78265Z" fill="var(--fill-0, #FFDA44)"/>
<path id="Vector_4" d="M23.2594 6.95654L23.6985 7.87461L24.69 7.64542L24.246 8.56117L25.0433 9.19342L24.0506 9.41717L24.0533 10.4349L23.2594 9.79817L22.4655 10.4349L22.4682 9.41717L21.4756 9.19342L22.2729 8.56117L21.8288 7.64542L22.8203 7.87461L23.2594 6.95654Z" fill="var(--fill-0, #FFDA44)"/>
<path id="Vector_5" d="M20.7085 11.826L21.0539 12.889H22.1715L21.2673 13.5459L21.6127 14.6087L20.7085 13.9519L19.8044 14.6087L20.1497 13.5459L19.2456 12.889H20.3632L20.7085 11.826Z" fill="var(--fill-0, #FFDA44)"/>
<path id="Vector_6" d="M12.8698 15.6522C10.3725 15.6522 8.34799 13.6277 8.34799 11.1304C8.34799 8.63319 10.3724 6.60869 12.8698 6.60869C13.6484 6.60869 14.3811 6.80562 15.0207 7.15219C14.0173 6.17081 12.6451 5.56519 11.1306 5.56519C8.05706 5.56519 5.56543 8.05681 5.56543 11.1304C5.56543 14.2039 8.05706 16.6956 11.1306 16.6956C12.6451 16.6956 14.0173 16.0899 15.0207 15.1086C14.3811 15.4552 13.6484 15.6522 12.8698 15.6522V15.6522Z" fill="var(--fill-0, #FFDA44)"/>
<path id="Vector_7" d="M5.19192 1.39131C4.71067 0.559813 3.81223 0 2.78248 0C1.75273 0 0.854297 0.559813 0.373047 1.39131H5.19192Z" fill="var(--fill-0, #FFDA44)"/>
<path id="Vector_8" d="M5.20125 1.40736L2.78256 3.82605L0.363875 1.40736C0.132687 1.81305 0 2.28224 0 2.78261C0 4.31943 1.24581 5.56524 2.78262 5.56524C4.31944 5.56524 5.56525 4.31949 5.56525 2.78261C5.56519 2.28224 5.43244 1.81305 5.20125 1.40736V1.40736Z" fill="var(--fill-0, #FFDA44)"/>
</g>
</svg>
