<svg preserveAspectRatio="none" width="100%" height="100%" overflow="visible" style="display: block;" viewBox="0 0 19 19" fill="none" xmlns="http://www.w3.org/2000/svg">
<g id="Group">
<path id="Vector" d="M9.04349 0L9.73411 2.12575H11.9694L10.1611 3.43956L10.8517 5.56525L9.04349 4.2515L7.23518 5.56525L7.92599 3.43956L6.11768 2.12575H8.35286L9.04349 0Z" fill="var(--fill-0, #F0F0F0)"/>
<path id="Vector_2" d="M0 9.04362L2.12575 8.35286V6.11761L3.43956 7.92599L5.56525 7.2353L4.2515 9.04362L5.56525 10.8517L3.43956 10.161L2.12575 11.9693V9.73418L0 9.04362Z" fill="var(--fill-0, #F0F0F0)"/>
<path id="Vector_3" d="M9.04361 18.087L8.35293 15.9612H6.11768L7.92605 14.6474L7.23536 12.5217L9.04361 13.8355L10.8518 12.5217L10.1611 14.6474L11.9694 15.9612H9.73424L9.04361 18.087Z" fill="var(--fill-0, #F0F0F0)"/>
<path id="Vector_4" d="M18.0872 9.04349L15.9615 9.73417V11.9694L14.6477 10.1611L12.522 10.8517L13.8357 9.04349L12.522 7.2353L14.6477 7.92605L15.9615 6.11768V8.35286L18.0872 9.04349Z" fill="var(--fill-0, #F0F0F0)"/>
</g>
</svg>
