<svg preserveAspectRatio="none" width="100%" height="100%" overflow="visible" style="display: block;" viewBox="0 0 11 9" fill="none" xmlns="http://www.w3.org/2000/svg">
<path id="Vector" d="M10.4142 6.19888e-05H8.32081C8.33813 0.230124 8.34794 0.46225 8.34794 0.695687C8.34794 2.24344 7.96106 3.74363 7.28662 4.8115C7.07856 5.14088 6.72894 5.606 6.26094 5.91975V0H4.174V5.91975C3.70606 5.606 3.35638 5.14094 3.14831 4.8115C2.47381 3.74363 2.087 2.24344 2.087 0.695687C2.087 0.46225 2.09687 0.230062 2.11412 6.19888e-05H0.02075C0.00731255 0.228999 0 0.460875 0 0.695687C0 4.98669 2.29175 8.34788 5.21737 8.34788C8.143 8.34788 10.4348 4.98669 10.4348 0.695687C10.4349 0.460875 10.4276 0.228999 10.4142 6.19888e-05V6.19888e-05Z" fill="var(--fill-0, #D80027)"/>
</svg>
