<svg preserveAspectRatio="none" width="100%" height="100%" overflow="visible" style="display: block;" viewBox="0 0 16 7" fill="none" xmlns="http://www.w3.org/2000/svg">
<g id="Group">
<path id="Vector" d="M1.34163 3.1305C1.34163 1.63193 2.39481 0.38006 3.80125 0.0729346C3.58512 0.0256846 3.36081 0.00012207 3.13044 0.00012207C1.40156 0.00012207 0 1.40162 0 3.13056C0 4.8595 1.40144 6.261 3.13044 6.261C3.36081 6.261 3.58506 6.23537 3.80125 6.18818C2.39487 5.88093 1.34163 4.62906 1.34163 3.1305V3.1305Z" fill="var(--fill-0, #F0F0F0)"/>
<path id="Vector_2" d="M5.6515 4.5535L5.86338 5.20568H6.54913L5.99438 5.60881L6.20625 6.261L5.6515 5.85793L5.09663 6.261L5.30857 5.60881L4.75375 5.20568H5.4395L5.6515 4.5535Z" fill="var(--fill-0, #F0F0F0)"/>
<path id="Vector_3" d="M7.84022 4.5535L8.05216 5.20568H8.73791L8.1831 5.60881L8.39503 6.261L7.84022 5.85793L7.28541 6.261L7.49735 5.60881L6.9426 5.20568H7.62828L7.84022 4.5535Z" fill="var(--fill-0, #F0F0F0)"/>
<path id="Vector_4" d="M10.0291 4.5535L10.2409 5.20568H10.9268L10.3719 5.60881L10.5838 6.261L10.0291 5.85793L9.47419 6.261L9.68619 5.60881L9.13132 5.20568H9.81713L10.0291 4.5535Z" fill="var(--fill-0, #F0F0F0)"/>
<path id="Vector_5" d="M12.2178 4.5535L12.4297 5.20568H13.1154L12.5607 5.60881L12.7726 6.261L12.2178 5.85793L11.6629 6.261L11.8749 5.60881L11.32 5.20568H12.0058L12.2178 4.5535Z" fill="var(--fill-0, #F0F0F0)"/>
<path id="Vector_6" d="M14.4066 4.5535L14.6186 5.20568H15.3043L14.7496 5.60881L14.9615 6.261L14.4066 5.85793L13.8518 6.261L14.0638 5.60881L13.509 5.20568H14.1947L14.4066 4.5535Z" fill="var(--fill-0, #F0F0F0)"/>
<path id="Vector_7" d="M7.8405 2.27673L8.05243 2.92886H8.73818L8.18337 3.33205L8.39531 3.98417L7.8405 3.58111L7.28568 3.98417L7.49762 3.33205L6.94287 2.92886H7.62856L7.8405 2.27673Z" fill="var(--fill-0, #F0F0F0)"/>
<path id="Vector_8" d="M10.0291 2.27676L10.2409 2.92889H10.9268L10.3719 3.33208L10.5838 3.9842L10.0291 3.58114L9.47419 3.9842L9.68619 3.33208L9.13132 2.92889H9.81713L10.0291 2.27676Z" fill="var(--fill-0, #F0F0F0)"/>
<path id="Vector_9" d="M12.2178 2.27676L12.4297 2.92889H13.1154L12.5607 3.33208L12.7726 3.9842L12.2178 3.58114L11.6629 3.9842L11.8749 3.33208L11.32 2.92889H12.0058L12.2178 2.27676Z" fill="var(--fill-0, #F0F0F0)"/>
<path id="Vector_10" d="M14.4066 2.27676L14.6186 2.92889H15.3043L14.7496 3.33208L14.9615 3.9842L14.4066 3.58114L13.8518 3.9842L14.0638 3.33208L13.509 2.92889H14.1947L14.4066 2.27676Z" fill="var(--fill-0, #F0F0F0)"/>
<path id="Vector_11" d="M10.0291 0L10.2409 0.65225H10.9268L10.3719 1.05531L10.5838 1.70756L10.0291 1.3045L9.47419 1.70756L9.68619 1.05531L9.13132 0.65225H9.81713L10.0291 0Z" fill="var(--fill-0, #F0F0F0)"/>
<path id="Vector_12" d="M12.2178 3.05176e-05L12.4297 0.65228H13.1154L12.5607 1.05534L12.7726 1.70759L12.2178 1.30453L11.6629 1.70759L11.8749 1.05534L11.32 0.65228H12.0058L12.2178 3.05176e-05Z" fill="var(--fill-0, #F0F0F0)"/>
<path id="Vector_13" d="M14.4066 0L14.6186 0.65225H15.3043L14.7496 1.05531L14.9615 1.70756L14.4066 1.3045L13.8518 1.70756L14.0638 1.05531L13.509 0.65225H14.1947L14.4066 0Z" fill="var(--fill-0, #F0F0F0)"/>
</g>
</svg>
