<svg preserveAspectRatio="none" width="100%" height="100%" overflow="visible" style="display: block;" viewBox="0 0 32 16" fill="none" xmlns="http://www.w3.org/2000/svg">
<g id="Group">
<path id="Vector" d="M15.9794 15.1785C20.9808 15.1785 25.4454 12.8832 28.3795 9.28922C27.8518 8.9294 27.5669 8.34778 26.6459 8.34778C25.3125 8.34778 25.3125 9.5669 23.9793 9.5669C22.646 9.5669 22.646 8.34778 21.3127 8.34778C19.9794 8.34778 19.9794 9.5669 18.646 9.5669C17.3127 9.5669 17.3126 8.34778 15.9792 8.34778C14.6459 8.34778 14.6459 9.5669 13.3126 9.5669C11.9795 9.5669 11.9795 8.34778 10.6462 8.34778C9.31273 8.34778 9.31273 9.5669 7.97929 9.5669C6.64585 9.5669 6.64585 8.34778 5.31241 8.34778C4.39154 8.34778 4.1066 8.92928 3.5791 9.28909C6.5131 12.8832 10.978 15.1785 15.9794 15.1785V15.1785Z" fill="var(--fill-0, #0052B4)"/>
<path id="Vector_2" d="M29.3123 1.21912C27.979 1.21912 27.979 0 26.6456 0C25.3123 0 25.3123 1.21912 23.9791 1.21912C22.6458 1.21912 22.6458 0 21.3125 0C19.9792 0 19.9792 1.21912 18.6458 1.21912C17.3124 1.21912 17.3124 0 15.9789 0C14.6456 0 14.6456 1.21912 13.3124 1.21912C11.9793 1.21912 11.9793 0 10.6459 0C9.3125 0 9.3125 1.21912 7.97906 1.21912C6.64563 1.21912 6.64563 0 5.31219 0C3.97906 0 3.97906 1.21912 2.64575 1.21912C1.31963 1.21912 1.31194 0.0134377 0 0.000562668C0.0369375 0.732438 0.124312 1.45094 0.256437 2.15356C1.31919 2.30975 1.41225 3.35244 2.64581 3.35244C3.97913 3.35244 3.97913 2.13344 5.31225 2.13344C6.64569 2.13344 6.64569 3.35244 7.97913 3.35244C9.31256 3.35244 9.31256 2.13344 10.646 2.13344C11.9793 2.13344 11.9793 3.35244 13.3124 3.35244C14.6458 3.35244 14.6458 2.13344 15.979 2.13344C17.3124 2.13344 17.3124 3.35244 18.6459 3.35244C19.9793 3.35244 19.9793 2.13344 21.3126 2.13344C22.6459 2.13344 22.6459 3.35244 23.9791 3.35244C25.3124 3.35244 25.3124 2.13344 26.6457 2.13344C27.9791 2.13344 27.9791 3.35244 29.3124 3.35244C30.5461 3.35244 30.6391 2.30981 31.7019 2.15362C31.8341 1.45094 31.9214 0.732499 31.9585 0.000623703C30.6463 0.0135612 30.6385 1.21912 29.3123 1.21912V1.21912Z" fill="var(--fill-0, #0052B4)"/>
<path id="Vector_3" d="M26.6457 4.17395C25.3124 4.17395 25.3124 5.39308 23.9791 5.39308C22.6459 5.39308 22.6458 4.17395 21.3126 4.17395C19.9792 4.17395 19.9792 5.39308 18.6459 5.39308C17.3124 5.39308 17.3124 4.17395 15.979 4.17395C14.6457 4.17395 14.6457 5.39308 13.3124 5.39308C11.9793 5.39308 11.9793 4.17395 10.646 4.17395C9.31256 4.17395 9.31256 5.39308 7.97912 5.39308C6.64568 5.39308 6.64568 4.17395 5.31225 4.17395C3.97912 4.17395 3.97912 5.39308 2.64581 5.39308C1.69312 5.39308 1.421 4.77083 0.856934 4.41533C1.23243 5.50026 1.72093 6.53232 2.30925 7.49707C2.41156 7.51595 2.52293 7.52639 2.64581 7.52639C3.97912 7.52639 3.97912 6.30739 5.31225 6.30739C6.64568 6.30739 6.64568 7.52639 7.97912 7.52639C9.31256 7.52639 9.31256 6.30739 10.646 6.30739C11.9793 6.30739 11.9793 7.52639 13.3124 7.52639C14.6457 7.52639 14.6457 6.30739 15.979 6.30739C17.3124 6.30739 17.3124 7.52639 18.6459 7.52639C19.9793 7.52639 19.9793 6.30739 21.3126 6.30739C22.6459 6.30739 22.6459 7.52639 23.9791 7.52639C25.3124 7.52639 25.3124 6.30739 26.6457 6.30739C27.9791 6.30739 27.9791 7.52639 29.3124 7.52639C29.4354 7.52639 29.5467 7.51595 29.6491 7.49701C30.2374 6.53233 30.7258 5.50026 31.1015 4.41539C30.5374 4.7707 30.2652 5.39308 29.3124 5.39308C27.9791 5.39308 27.9791 4.17395 26.6457 4.17395Z" fill="var(--fill-0, #0052B4)"/>
</g>
</svg>
