<svg preserveAspectRatio="none" width="100%" height="100%" overflow="visible" style="display: block;" viewBox="0 0 25 25" fill="none" xmlns="http://www.w3.org/2000/svg">
<path id="Vector" d="M12.5 0.0625C12.8812 0.0625 13.247 0.213815 13.5166 0.483398C13.7862 0.752982 13.9375 1.11875 13.9375 1.5V11.0625H23.5C23.8812 11.0625 24.247 11.2138 24.5166 11.4834C24.7862 11.753 24.9375 12.1188 24.9375 12.5C24.9375 12.8812 24.7862 13.247 24.5166 13.5166C24.247 13.7862 23.8812 13.9375 23.5 13.9375H13.9375V23.5C13.9375 23.8812 13.7862 24.247 13.5166 24.5166C13.247 24.7862 12.8812 24.9375 12.5 24.9375C12.1188 24.9375 11.753 24.7862 11.4834 24.5166C11.2138 24.247 11.0625 23.8812 11.0625 23.5V13.9375H1.5C1.11875 13.9375 0.752982 13.7862 0.483398 13.5166C0.213815 13.247 0.0625 12.8812 0.0625 12.5C0.0625 12.1188 0.213815 11.753 0.483398 11.4834C0.752982 11.2138 1.11875 11.0625 1.5 11.0625H11.0625V1.5C11.0625 1.11875 11.2138 0.752982 11.4834 0.483398C11.753 0.213815 12.1188 0.0625 12.5 0.0625Z" fill="var(--fill-0, #CBD5E1)" stroke="var(--stroke-0, #CBD5E1)" stroke-width="0.125"/>
</svg>
