<svg preserveAspectRatio="none" width="100%" height="100%" overflow="visible" style="display: block;" viewBox="0 0 19 18" fill="none" xmlns="http://www.w3.org/2000/svg">
<path id="Vector" d="M18.911 6.86975H11.6876L9.4555 0L7.22337 6.86975H0L5.84381 11.1155L3.61163 17.9854L9.4555 13.7396L15.2994 17.9855L13.0672 11.1156L18.911 6.86975ZM7.47938 10.5841L8.23419 8.261H10.6768L11.4316 10.5841V10.5841L9.4555 12.0198L7.47944 10.5841L7.47938 10.5841ZM10.2248 6.86975H8.68631L9.4555 4.50225L10.2248 6.86975ZM12.6151 9.72425L12.1396 8.26106H14.6289L12.6151 9.72425ZM6.77131 8.26106L6.29588 9.72425L4.28194 8.26106H6.77131ZM6.25806 14.3429L7.02731 11.9755L8.272 12.8797L6.25806 14.3429ZM10.639 12.8798L11.8837 11.9756L12.6529 14.343L10.639 12.8798Z" fill="var(--fill-0, #FFDA44)"/>
</svg>
