<svg preserveAspectRatio="none" width="100%" height="100%" overflow="visible" style="display: block;" viewBox="0 0 32 25" fill="none" xmlns="http://www.w3.org/2000/svg">
<g id="Group">
<path id="Vector" d="M30.7846 19.3437L19.0864 14.4963L19.9343 17.1516L27.3129 24.5302C28.7862 23.0571 29.9736 21.2982 30.7846 19.3437Z" fill="var(--fill-0, #0052B4)"/>
<path id="Vector_2" d="M32 13.2174C32 11.0471 31.5674 8.978 30.7845 7.09106L16 13.2174H32Z" fill="var(--fill-0, #0052B4)"/>
<path id="Vector_3" d="M27.3129 1.9045C26.6096 1.20138 25.8416 0.563062 25.0179 0H21.477L16 13.2174L27.3129 1.9045Z" fill="var(--fill-0, #0052B4)"/>
<path id="Vector_4" d="M16 0H10.5231L16 13.2174V0Z" fill="var(--fill-0, #0052B4)"/>
<path id="Vector_5" d="M4.68712 1.9045C3.21387 3.37762 2.02656 5.13643 1.21556 7.09099L16 13.2174L4.68712 1.9045Z" fill="var(--fill-0, #0052B4)"/>
<path id="Vector_6" d="M0 13.2174C0 15.3877 0.432562 17.4568 1.2155 19.3437L16 13.2174H0Z" fill="var(--fill-0, #0052B4)"/>
</g>
</svg>
