<svg preserveAspectRatio="none" width="100%" height="100%" overflow="visible" style="display: block;" viewBox="0 0 32 3" fill="none" xmlns="http://www.w3.org/2000/svg">
<g id="Group">
<path id="Vector" d="M31.9912 0C31.9926 0.0444375 31.9941 0.0888751 31.9951 0.1335C31.9941 0.0889376 31.9925 0.0444375 31.9912 0Z" fill="var(--fill-0, #F0F0F0)"/>
<path id="Vector_2" d="M0.00488281 0.1335C0.00594531 0.0889376 0.00744531 0.0445 0.00882031 0C0.00750781 0.0445 0.00588281 0.0890001 0.00488281 0.1335V0.1335Z" fill="var(--fill-0, #F0F0F0)"/>
<path id="Vector_3" d="M0 0.502749C0 0.379312 0.001875 0.256374 0.0046875 0.133499C0.0018125 0.256374 0 0.379312 0 0.502749Z" fill="var(--fill-0, #F0F0F0)"/>
<path id="Vector_4" d="M0 0.502747C0 0.794184 0.00825 1.08375 0.0238125 1.37131C1.33275 1.386 1.34144 2.58968 2.66663 2.58968C3.99994 2.58968 3.99994 1.37068 5.33306 1.37068C6.6665 1.37068 6.6665 2.58968 7.99994 2.58968C9.33337 2.58968 9.33338 1.37068 10.6668 1.37068C12.0001 1.37068 12.0001 2.58968 13.3333 2.58968C14.6666 2.58968 14.6666 1.37068 15.9998 1.37068C17.3332 1.37068 17.3332 2.58968 18.6667 2.58968C20.0001 2.58968 20.0001 1.37068 21.3334 1.37068C22.6667 1.37068 22.6667 2.58968 23.9999 2.58968C25.3332 2.58968 25.3333 1.37068 26.6665 1.37068C27.9999 1.37068 27.9999 2.58968 29.3332 2.58968C30.6585 2.58968 30.6672 1.386 31.9764 1.37131C31.9918 1.08368 32 0.794184 32 0.502747H0Z" fill="var(--fill-0, #F0F0F0)"/>
<path id="Vector_5" d="M31.9951 0.133545C31.9979 0.256295 31.9998 0.379295 31.9998 0.502795C31.9998 0.379358 31.998 0.25642 31.9951 0.133545Z" fill="var(--fill-0, #F0F0F0)"/>
</g>
</svg>
