<svg preserveAspectRatio="none" width="100%" height="100%" overflow="visible" style="display: block;" viewBox="0 0 12 13" fill="none" xmlns="http://www.w3.org/2000/svg">
<g id="Group">
<path id="Vector" d="M5.95455 0L6.21355 0.797125H7.05173L6.37367 1.28981L6.63267 2.08694L5.95455 1.59425L5.27642 2.08694L5.53548 1.28981L4.85742 0.797125H5.69561L5.95455 0Z" fill="var(--fill-0, #FFDA44)"/>
<path id="Vector_2" d="M5.95455 10.4348L6.21355 11.232H7.05173L6.37367 11.7246L6.63267 12.5218L5.95455 12.0291L5.27642 12.5218L5.53548 11.7246L4.85742 11.232H5.69561L5.95455 10.4348Z" fill="var(--fill-0, #FFDA44)"/>
<path id="Vector_3" d="M1.09713 6.90581L1.35612 7.70287H2.19431L1.51625 8.1955L1.77525 8.99274L1.09713 8.50006L0.419 8.99274L0.678125 8.1955L0 7.70287H0.838125L1.09713 6.90581Z" fill="var(--fill-0, #FFDA44)"/>
<path id="Vector_4" d="M2.95266 1.04346L3.21166 1.84064H4.04978L3.37178 2.33327L3.63078 3.13046L2.95266 2.63777L2.27453 3.13046L2.53366 2.33327L1.85547 1.84064H2.69366L2.95266 1.04346Z" fill="var(--fill-0, #FFDA44)"/>
<path id="Vector_5" d="M0 4.32619L0.838 4.32625L1.09706 3.52894L1.35612 4.32619L2.19431 4.32613L1.51619 4.81881L1.77525 5.616L1.09706 5.12331L0.419 5.61581L0.678 4.81875L0 4.32619Z" fill="var(--fill-0, #FFDA44)"/>
<path id="Vector_6" d="M2.27466 11.3259L2.53366 10.5289L1.85547 10.0363H2.69366L2.95272 9.23914L3.21178 10.0363H4.04991L3.37178 10.5289L3.63078 11.3261L2.95266 10.8334L2.27466 11.3259Z" fill="var(--fill-0, #FFDA44)"/>
<path id="Vector_7" d="M10.81 6.90576L10.5511 7.70282H9.71289L10.3909 8.19545L10.1319 8.9927L10.81 8.50001L11.4881 8.9927L11.2291 8.19545L11.9072 7.70282H11.069L10.81 6.90576Z" fill="var(--fill-0, #FFDA44)"/>
<path id="Vector_8" d="M8.95455 1.04346L8.69561 1.84064H7.85742L8.53542 2.33327L8.27642 3.13046L8.95455 2.63777L9.63267 3.13046L9.37361 2.33327L10.0517 1.84064H9.21355L8.95455 1.04346Z" fill="var(--fill-0, #FFDA44)"/>
<path id="Vector_9" d="M11.9072 4.32618L11.0691 4.32624L10.8101 3.52893L10.5511 4.32618L9.71289 4.32612L10.391 4.81881L10.1319 5.61599L10.8101 5.12331L11.4881 5.61581L11.2291 4.81874L11.9072 4.32618Z" fill="var(--fill-0, #FFDA44)"/>
<path id="Vector_10" d="M9.63267 11.3259L9.37373 10.5289L10.0519 10.0363H9.21367L8.95461 9.23914L8.69561 10.0363H7.85742L8.53555 10.5289L8.27655 11.3261L8.95467 10.8334L9.63267 11.3259Z" fill="var(--fill-0, #FFDA44)"/>
</g>
</svg>
