<svg preserveAspectRatio="none" width="100%" height="100%" overflow="visible" style="display: block;" viewBox="0 0 16 17" fill="none" xmlns="http://www.w3.org/2000/svg">
<g id="Group">
<path id="Vector" d="M4.48145 4.72312L5.83782 5.70749L5.32095 7.30174L6.67632 6.31574L8.03282 7.30012L7.51395 5.70637L8.86919 4.7205L7.19326 4.72149L6.67432 3.12781L6.15738 4.72206L4.48145 4.72312Z" fill="var(--fill-0, #FFDA44)"/>
<path id="Vector_2" d="M10.675 1.06914C9.41419 0.3412 8.03563 -0.00236277 6.675 1.22274e-05V2.08651C7.68069 2.0847 8.69956 2.33845 9.6315 2.87657C12.4551 4.50682 13.4261 8.13032 11.7958 10.9539C10.1656 13.7776 6.54213 14.7485 3.71844 13.1183C2.89581 12.6433 2.23175 11.9984 1.74225 11.2543L0 12.4045C0.662313 13.4113 1.56206 14.283 2.675 14.9255C6.49525 17.1311 11.3976 15.8176 13.6031 11.9973C15.8088 8.17707 14.4953 3.27476 10.675 1.06914V1.06914Z" fill="var(--fill-0, #FFDA44)"/>
<path id="Vector_3" d="M2.06207 6.60602C1.50894 7.61721 1.88032 8.88539 2.89144 9.43852L9.6695 13.1423C9.20857 13.9848 9.45338 15.0104 10.2959 15.4713L12.1269 16.4729C12.9694 16.9339 14.0264 16.6244 14.4873 15.7818L15.4889 13.9509L2.06207 6.60602Z" fill="var(--fill-0, #FFDA44)"/>
</g>
</svg>
