<svg preserveAspectRatio="none" width="100%" height="100%" overflow="visible" style="display: block;" viewBox="0 0 12 11" fill="none" xmlns="http://www.w3.org/2000/svg">
<path id="Vector" d="M11.1304 1.73913H7.30431C7.30431 0.778625 6.52569 0 5.56519 0C4.60469 0 3.82606 0.778625 3.82606 1.73913H0C0 2.68481 0.823812 3.45138 1.76937 3.45138H1.71237C1.71237 4.39713 2.479 5.16381 3.42475 5.16381C3.42475 6.00112 4.02612 6.69687 4.82037 6.84562L3.471 9.892C4.11756 10.1548 4.82419 10.3009 5.56519 10.3009C6.30612 10.3009 7.01281 10.1548 7.65931 9.892L6.31 6.84562C7.10425 6.69687 7.70563 6.00112 7.70563 5.16381C8.65138 5.16381 9.418 4.39713 9.418 3.45138H9.36094C10.3066 3.45138 11.1304 2.68475 11.1304 1.73913V1.73913Z" fill="var(--fill-0, #FF9811)"/>
</svg>
