<svg preserveAspectRatio="none" width="100%" height="100%" overflow="visible" style="display: block;" viewBox="0 0 22 22" fill="none" xmlns="http://www.w3.org/2000/svg">
<path id="Vector" d="M10.9375 0.0546875C11.2711 0.0546875 11.5913 0.186966 11.8271 0.422852C12.063 0.658737 12.1953 0.978908 12.1953 1.3125V9.67969H20.5625C20.8961 9.67969 21.2163 9.81197 21.4521 10.0479C21.688 10.2837 21.8203 10.6039 21.8203 10.9375C21.8203 11.2711 21.688 11.5913 21.4521 11.8271C21.2163 12.063 20.8961 12.1953 20.5625 12.1953H12.1953V20.5625C12.1953 20.8961 12.063 21.2163 11.8271 21.4521C11.5913 21.688 11.2711 21.8203 10.9375 21.8203C10.6039 21.8203 10.2837 21.688 10.0479 21.4521C9.81197 21.2163 9.67969 20.8961 9.67969 20.5625V12.1953H1.3125C0.978908 12.1953 0.658737 12.063 0.422852 11.8271C0.186966 11.5913 0.0546875 11.2711 0.0546875 10.9375C0.0546875 10.6039 0.186966 10.2837 0.422852 10.0479C0.658737 9.81197 0.978907 9.67969 1.3125 9.67969H9.67969V1.3125C9.67969 0.978907 9.81197 0.658737 10.0479 0.422852C10.2837 0.186966 10.6039 0.0546875 10.9375 0.0546875Z" fill="var(--fill-0, #4338CA)" stroke="var(--stroke-0, #4338CA)" stroke-width="0.109375"/>
</svg>
