<svg preserveAspectRatio="none" width="100%" height="100%" overflow="visible" style="display: block;" viewBox="0 0 9 17" fill="none" xmlns="http://www.w3.org/2000/svg">
<path id="Vector" d="M0.0481485 4.61455C0.00077459 4.50036 -0.0116705 4.37469 0.0123875 4.25343C0.0364454 4.13216 0.0959253 4.02076 0.183304 3.9333L3.9333 0.183304C3.99135 0.125194 4.06028 0.0790944 4.13615 0.0476417C4.21203 0.016189 4.29336 0 4.37549 0C4.45763 0 4.53896 0.016189 4.61483 0.0476417C4.6907 0.0790944 4.75963 0.125194 4.81768 0.183304L8.56768 3.9333C8.65519 4.02071 8.71479 4.13212 8.73895 4.25343C8.7631 4.37473 8.75073 4.50047 8.70338 4.61474C8.65603 4.729 8.57585 4.82665 8.47298 4.89532C8.37011 4.96399 8.24918 5.00059 8.12549 5.00049H0.625492C0.50188 5.00047 0.381051 4.96379 0.278284 4.89509C0.175518 4.82639 0.0954303 4.72877 0.0481485 4.61455ZM8.12549 11.2505H0.625492C0.501807 11.2504 0.380875 11.287 0.278004 11.3557C0.175132 11.4243 0.0949484 11.522 0.0476031 11.6362C0.000257809 11.7505 -0.0121201 11.8763 0.0120364 11.9976C0.0361929 12.1189 0.0957973 12.2303 0.183304 12.3177L3.9333 16.0677C3.99135 16.1258 4.06028 16.1719 4.13615 16.2033C4.21203 16.2348 4.29336 16.251 4.37549 16.251C4.45763 16.251 4.53896 16.2348 4.61483 16.2033C4.6907 16.1719 4.75963 16.1258 4.81768 16.0677L8.56768 12.3177C8.65519 12.2303 8.71479 12.1189 8.73895 11.9976C8.7631 11.8763 8.75073 11.7505 8.70338 11.6362C8.65603 11.522 8.57585 11.4243 8.47298 11.3557C8.37011 11.287 8.24918 11.2504 8.12549 11.2505Z" fill="var(--fill-0, #475569)"/>
</svg>
