<svg preserveAspectRatio="none" width="100%" height="100%" overflow="visible" style="display: block;" viewBox="0 0 14 20" fill="none" xmlns="http://www.w3.org/2000/svg">
<g id="Group">
<path id="Vector" d="M9.56437 9.73913L7.61037 8.82L8.65094 6.92756L6.52906 7.3335L6.26019 5.18994L4.78219 6.76644L3.30425 5.18994L3.03531 7.3335L0.9135 6.9275L1.95406 8.82L0 9.73913L1.95406 10.6582L0.9135 12.5507L3.0355 12.1448L3.30419 14.2883L4.78219 12.7118L6.26019 14.2883L6.52906 12.1448L8.65081 12.5507L7.61031 10.6583L9.56437 9.73913Z" fill="var(--fill-0, #FFDA44)"/>
<path id="Vector_2" d="M2.876 0L3.52625 0.908937L4.59156 0.5715L3.92793 1.47075L4.57818 2.37969L3.51781 2.0265L2.85425 2.92569L2.86256 1.80819L1.80225 1.45494L2.86775 1.1175L2.876 0Z" fill="var(--fill-0, #FFDA44)"/>
<path id="Vector_3" d="M2.876 16.5526L3.52625 17.4615L4.59156 17.124L3.92793 18.0234L4.57818 18.9323L3.51781 18.5791L2.85425 19.4783L2.86256 18.3608L1.80225 18.0075L2.86775 17.6701L2.876 16.5526Z" fill="var(--fill-0, #FFDA44)"/>
<path id="Vector_4" d="M12.1504 8.27629L11.5002 9.18523L10.4348 8.84767L11.0985 9.74698L10.4482 10.656L11.5086 10.3027L12.1722 11.2019L12.1638 10.0845L13.2242 9.73123L12.1587 9.39379L12.1504 8.27629Z" fill="var(--fill-0, #FFDA44)"/>
</g>
</svg>
