<svg preserveAspectRatio="none" width="100%" height="100%" overflow="visible" style="display: block;" viewBox="0 0 13 13" fill="none" xmlns="http://www.w3.org/2000/svg">
<path id="Vector" d="M10.9674 6.97788C10.2524 6.26281 9.32325 5.84037 8.32481 5.76781L11.3136 3.44325C10.1232 2.25294 8.52787 1.71537 6.97112 1.82906C6.78475 1.15931 6.42944 0.526688 5.90275 0L4.72219 2.36112C4.64475 2.22 4.54669 2.08719 4.42706 1.96763C3.74781 1.28844 2.64669 1.28844 1.96756 1.96763C1.28844 2.64681 1.28831 3.74794 1.96756 4.42712C2.08712 4.54669 2.22 4.64475 2.36112 4.72225L0 5.90281C0.526812 6.42969 1.15987 6.78525 1.83 6.9715C1.71594 8.52825 2.25294 10.1234 3.44331 11.3137L6.05456 7.95637C6.251 7.76294 6.51044 7.65612 6.78644 7.65612C7.06519 7.65612 7.32719 7.76462 7.52425 7.96181C7.72138 8.15888 7.82994 8.42094 7.82994 8.69963C7.82994 8.97838 7.72138 9.24037 7.52425 9.4375L8.50813 10.4214C8.96794 9.9615 9.22125 9.35006 9.22125 8.69969C9.22125 8.16756 9.0515 7.66169 8.73812 7.24344C9.19475 7.36537 9.62631 7.60425 9.98381 7.96181C11.0688 9.04675 11.0688 10.8121 9.98381 11.897L10.9677 12.8809C11.756 12.0925 12.1902 11.0444 12.1902 9.92944C12.19 8.81438 11.7558 7.76625 10.9674 6.97788V6.97788Z" fill="var(--fill-0, #FFDA44)"/>
</svg>
