<svg preserveAspectRatio="none" width="100%" height="100%" overflow="visible" style="display: block;" viewBox="0 0 6 6" fill="none" xmlns="http://www.w3.org/2000/svg">
<g id="Group">
<path id="Vector" d="M0.347438 2.78262C0.230125 2.78262 0.114312 2.78862 0 2.8C0.0041875 3.47444 0.248188 4.09175 0.651188 4.57131C0.866188 3.99275 1.18719 3.46519 1.592 3.01369C1.20538 2.865 0.785938 2.78262 0.347438 2.78262Z" fill="var(--fill-0, #FFDA44)"/>
<path id="Vector_2" d="M1.84619 5.40343C2.13869 5.50793 2.45363 5.56525 2.78213 5.56525C3.11063 5.56525 3.42557 5.50793 3.71807 5.40343C3.55863 4.77768 3.22944 4.21906 2.78213 3.78006C2.33482 4.219 2.00563 4.77768 1.84619 5.40343Z" fill="var(--fill-0, #FFDA44)"/>
<path id="Vector_3" d="M5.19193 1.39175C4.71081 0.560125 3.81225 0 2.78225 0C1.75225 0 0.853684 0.560063 0.372559 1.39175C1.24968 1.39619 2.07218 1.63469 2.78225 2.0465C3.49231 1.63469 4.31468 1.39619 5.19193 1.39175Z" fill="var(--fill-0, #FFDA44)"/>
<path id="Vector_4" d="M3.97266 3.01378C4.37747 3.46521 4.69847 3.99278 4.91347 4.5714C5.31647 4.09184 5.56047 3.47453 5.56466 2.80009C5.45028 2.78865 5.33447 2.78271 5.21722 2.78271C4.77884 2.78265 4.35941 2.86503 3.97266 3.01378V3.01378Z" fill="var(--fill-0, #FFDA44)"/>
</g>
</svg>
