<svg preserveAspectRatio="none" width="100%" height="100%" overflow="visible" style="display: block;" viewBox="0 0 12 8" fill="none" xmlns="http://www.w3.org/2000/svg">
<g id="Group">
<path id="Vector" d="M4.5218 7.74494L3.82617 6.35369V3.57106L5.5653 2.17975L7.30442 3.57106V5.658L8.00005 4.96237V6.35369L6.60873 7.74494H4.5218Z" fill="var(--fill-0, #F0F0F0)"/>
<path id="Vector_2" d="M0.780188 3.47824L0.964375 4.04512H1.56037L1.07819 4.39555L1.26244 4.96237L0.780188 4.61199L0.297937 4.96237L0.482188 4.39555L0 4.04512H0.596L0.780188 3.47824Z" fill="var(--fill-0, #F0F0F0)"/>
<path id="Vector_3" d="M2.1713 2.08691L2.35549 2.65379H2.95155L2.4693 3.00423L2.65349 3.57104L2.1713 3.22073L1.68911 3.57104L1.87336 3.00423L1.39111 2.65379H1.98705L2.1713 2.08691Z" fill="var(--fill-0, #F0F0F0)"/>
<path id="Vector_4" d="M3.5629 0.695618L3.74709 1.26249H4.34303L3.8609 1.61293L4.04503 2.17974L3.5629 1.82943L3.08065 2.17974L3.26484 1.61293L2.78271 1.26249H3.37865L3.5629 0.695618Z" fill="var(--fill-0, #F0F0F0)"/>
<path id="Vector_5" d="M10.3499 3.47827L10.1658 4.04515H9.56982L10.0519 4.39558L9.86776 4.9624L10.3499 4.61202L10.8322 4.9624L10.648 4.39558L11.1301 4.04515H10.5342L10.3499 3.47827Z" fill="var(--fill-0, #F0F0F0)"/>
<path id="Vector_6" d="M8.95932 2.08691L8.77514 2.65379H8.1792L8.66132 3.00423L8.47714 3.57104L8.95932 3.22073L9.44157 3.57104L9.25732 3.00423L9.73951 2.65379H9.14357L8.95932 2.08691Z" fill="var(--fill-0, #F0F0F0)"/>
<path id="Vector_7" d="M7.56779 0.695618L7.38354 1.26249H6.7876L7.26972 1.61293L7.08554 2.17974L7.56779 1.82943L8.04997 2.17974L7.86579 1.61293L8.34791 1.26249H7.75197L7.56779 0.695618Z" fill="var(--fill-0, #F0F0F0)"/>
<path id="Vector_8" d="M5.56486 0L5.38061 0.566875H4.78467L5.26679 0.91725L5.08261 1.48406L5.56486 1.13375L6.04704 1.48406L5.86286 0.91725L6.34498 0.566875H5.74904L5.56486 0Z" fill="var(--fill-0, #F0F0F0)"/>
</g>
</svg>
