<svg preserveAspectRatio="none" width="100%" height="100%" overflow="visible" style="display: block;" viewBox="0 0 13 17" fill="none" xmlns="http://www.w3.org/2000/svg">
<g id="Group">
<path id="Vector" d="M2.78273 4.17387H9.73923V1.39131L8.34792 2.08694L6.26098 0L4.17404 2.08694L2.78273 1.39131V4.17387Z" fill="var(--fill-0, #FFDA44)"/>
<path id="Vector_2" d="M12.5219 8.34781H9.04494C9.18131 8.11193 9.26056 7.83899 9.26056 7.54699C9.26056 6.66031 8.54175 5.94162 7.65519 5.94162C7.04263 5.94162 6.51062 6.28487 6.23994 6.78924C5.96925 6.28481 5.43725 5.94162 4.82469 5.94162C3.93812 5.94162 3.21931 6.66031 3.21931 7.54699C3.21931 7.83906 3.29869 8.11199 3.43494 8.34781H0C0 9.41174 0.926687 10.2742 1.99056 10.2742H1.92644C1.92644 11.1469 2.50688 11.8837 3.30269 12.1204L1.73912 13.6841L3.21481 15.1598L5.30812 13.0665C5.39012 13.0966 5.47494 13.1206 5.56262 13.1371L4.29775 15.993C4.90387 16.2395 5.56631 16.3763 6.261 16.3763C6.95562 16.3763 7.61806 16.2395 8.22425 15.993L6.95938 13.1371C7.047 13.1206 7.13181 13.0966 7.21375 13.0665L9.30706 15.1598L10.7827 13.6841L9.21906 12.1205C10.0148 11.8837 10.5953 11.1469 10.5953 10.2742H10.5311C11.5951 10.2742 12.5219 9.41174 12.5219 8.34781V8.34781Z" fill="var(--fill-0, #FFDA44)"/>
</g>
</svg>
