<svg preserveAspectRatio="none" width="100%" height="100%" overflow="visible" style="display: block;" viewBox="0 0 13 14" fill="none" xmlns="http://www.w3.org/2000/svg">
<g id="Group">
<path id="Vector" d="M10.7806 5.21642C10.7806 7.71323 8.7565 9.73742 6.25962 9.73742C3.76275 9.73742 1.73862 7.7133 1.73862 5.21642C1.73862 4.43792 1.93544 3.70536 2.28206 3.0658C1.301 4.06911 0.695312 5.44111 0.695312 6.95523C0.695312 10.0283 3.1865 12.5195 6.25962 12.5195C9.33275 12.5195 11.8239 10.0284 11.8239 6.95523C11.8239 5.44111 11.2183 4.06911 10.2372 3.0658C10.5838 3.70548 10.7806 4.43792 10.7806 5.21642V5.21642Z" fill="var(--fill-0, #D80027)"/>
<path id="Vector_2" d="M5.21631 0H7.30293V10.4331H5.21631V0Z" fill="var(--fill-0, #D80027)"/>
<path id="Vector_3" d="M9.73705 2.08655H2.78174C2.78174 2.56674 3.20005 2.95599 3.68018 2.95599H3.65118C3.65118 3.43617 4.04049 3.82542 4.52061 3.82542C4.52061 4.30561 4.90993 4.69486 5.39005 4.69486H7.12886C7.60905 4.69486 7.9983 4.30561 7.9983 3.82542C8.47849 3.82542 8.86774 3.43617 8.86774 2.95599H8.8388C9.3188 2.95592 9.73705 2.5668 9.73705 2.08655Z" fill="var(--fill-0, #D80027)"/>
<path id="Vector_4" d="M1.39111 11.1286H11.1286V13.2152H1.39111V11.1286Z" fill="var(--fill-0, #D80027)"/>
<path id="Vector_5" d="M8.34619 11.8241H12.5194V13.9107H8.34619V11.8241Z" fill="var(--fill-0, #D80027)"/>
<path id="Vector_6" d="M0 11.8241H4.17319V13.9108H0V11.8241Z" fill="var(--fill-0, #D80027)"/>
</g>
</svg>
