<svg preserveAspectRatio="none" width="100%" height="100%" overflow="visible" style="display: block;" viewBox="0 0 28 23" fill="none" xmlns="http://www.w3.org/2000/svg">
<g id="Group">
<path id="Vector" d="M4.68628 0C-1.56209 6.24837 -1.56209 16.3791 4.68628 22.6275C7.26834 20.0454 9.75166 17.5621 16 11.3137L4.68628 0Z" fill="var(--fill-0, #D80027)"/>
<path id="Vector_2" d="M20.174 11.3137C20.174 8.98262 21.8123 7.03519 24 6.55744C23.6638 6.484 23.3149 6.44419 22.9565 6.44419C20.2671 6.44419 18.087 8.62431 18.087 11.3137C18.087 14.0032 20.2671 16.1833 22.9565 16.1833C23.3148 16.1833 23.6637 16.1435 24 16.0701C21.8123 15.5923 20.174 13.6449 20.174 11.3137Z" fill="var(--fill-0, #D80027)"/>
<path id="Vector_3" d="M24.2046 8.18331L24.8954 10.3092H27.1305L25.3222 11.6228L26.013 13.7486L24.2046 12.4348L22.3964 13.7486L23.0872 11.6228L21.2788 10.3092H23.5139L24.2046 8.18331Z" fill="var(--fill-0, #D80027)"/>
</g>
</svg>
