<svg preserveAspectRatio="none" width="100%" height="100%" overflow="visible" style="display: block;" viewBox="0 0 20 20" fill="none" xmlns="http://www.w3.org/2000/svg">
<g id="Group">
<path id="Vector" d="M9.7393 0L10.2574 1.59431H11.9336L10.5774 2.57962L11.0955 4.17394L9.7393 3.18856L8.38305 4.17394L8.90111 2.57962L7.54492 1.59431H9.22123L9.7393 0Z" fill="var(--fill-0, #FFDA44)"/>
<path id="Vector_2" d="M2.85241 2.8525L4.34616 3.6135L5.53147 2.42825L5.26916 4.08388L6.76285 4.84494L5.10716 5.10719L4.84491 6.76294L4.08385 5.26925L2.42822 5.53157L3.61354 4.34625L2.85241 2.8525Z" fill="var(--fill-0, #FFDA44)"/>
<path id="Vector_3" d="M0 9.73913L1.59431 9.22107V7.54475L2.57956 8.901L4.17394 8.38294L3.1885 9.73913L4.17394 11.0953L2.57956 10.5773L1.59431 11.9335V10.2572L0 9.73913Z" fill="var(--fill-0, #FFDA44)"/>
<path id="Vector_4" d="M2.85241 16.6258L3.61347 15.132L2.42822 13.9467L4.08391 14.2091L4.84485 12.7154L5.10716 14.3711L6.76279 14.6333L5.26929 15.3944L5.53147 17.05L4.34616 15.8647L2.85241 16.6258Z" fill="var(--fill-0, #FFDA44)"/>
<path id="Vector_5" d="M9.7393 19.4783L9.22117 17.8839H7.54492L8.90117 16.8986L8.38305 15.3044L9.7393 16.2897L11.0955 15.3044L10.5774 16.8986L11.9336 17.8839H10.2573L9.7393 19.4783Z" fill="var(--fill-0, #FFDA44)"/>
<path id="Vector_6" d="M16.6256 16.6258L15.132 15.8648L13.9466 17.0501L14.2089 15.3943L12.7153 14.6333L14.371 14.3711L14.6332 12.7154L15.3942 14.2091L17.0498 13.9467L15.8645 15.1321L16.6256 16.6258Z" fill="var(--fill-0, #FFDA44)"/>
<path id="Vector_7" d="M19.4782 9.73912L17.8839 10.2572V11.9335L16.8986 10.5772L15.3044 11.0953L16.2897 9.73912L15.3044 8.38293L16.8986 8.901L17.8839 7.54475V9.22112L19.4782 9.73912Z" fill="var(--fill-0, #FFDA44)"/>
<path id="Vector_8" d="M16.6256 2.85247L15.8646 4.34622L17.0499 5.53153L15.3941 5.26916L14.6332 6.76285L14.371 5.10716L12.7153 4.84485L14.2089 4.08385L13.9466 2.42828L15.132 3.61353L16.6256 2.85247Z" fill="var(--fill-0, #FFDA44)"/>
</g>
</svg>
