<svg preserveAspectRatio="none" width="100%" height="100%" overflow="visible" style="display: block;" viewBox="0 0 14 12" fill="none" xmlns="http://www.w3.org/2000/svg">
<g id="Group">
<path id="Vector" d="M7.30431 10.087C4.80706 10.087 2.78256 8.0625 2.78256 5.56525C2.78256 3.068 4.80706 1.0435 7.30431 1.0435C8.08294 1.0435 8.81563 1.24038 9.45525 1.587C8.45175 0.605688 7.0795 0 5.56519 0C2.49156 0 0 2.49163 0 5.56519C0 8.63875 2.49163 11.1304 5.56519 11.1304C7.07956 11.1304 8.45181 10.5247 9.45525 9.54338C8.81563 9.89013 8.08294 10.087 7.30431 10.087Z" fill="var(--fill-0, #F0F0F0)"/>
<path id="Vector_2" d="M10.7828 2.43481L11.3817 4.11925L12.9963 3.35163L12.2288 4.96625L13.9132 5.56525L12.2288 6.16425L12.9963 7.77888L11.3817 7.01125L10.7828 8.69569L10.1839 7.01125L8.56922 7.77888L9.33684 6.16425L7.65234 5.56525L9.33684 4.96625L8.56922 3.35163L10.1839 4.11925L10.7828 2.43481Z" fill="var(--fill-0, #F0F0F0)"/>
</g>
</svg>
