<svg preserveAspectRatio="none" width="100%" height="100%" overflow="visible" style="display: block;" viewBox="0 0 32 32" fill="none" xmlns="http://www.w3.org/2000/svg">
<g id="Group">
<path id="Vector" d="M16 32C24.8366 32 32 24.8366 32 16C32 7.16344 24.8366 0 16 0C7.16344 0 0 7.16344 0 16C0 24.8366 7.16344 32 16 32Z" fill="var(--fill-0, #F0F0F0)"/>
<path id="Vector_2" d="M3.65725 5.81824H28.3428C27.431 4.71418 26.3735 3.73512 25.2004 2.90918H6.79956C5.6265 3.73499 4.56906 4.71412 3.65725 5.81824V5.81824Z" fill="var(--fill-0, #F0F0F0)"/>
<path id="Vector_3" d="M0 16C0 16.4904 0.0233125 16.9753 0.0665 17.4546H31.9335C31.9767 16.9753 32 16.4904 32 16C32 15.5096 31.9767 15.0247 31.9335 14.5455H0.0665C0.0233125 15.0247 0 15.5096 0 16H0Z" fill="var(--fill-0, #F0F0F0)"/>
<path id="Vector_4" d="M1.74475 23.2727H30.2552C30.7264 22.3511 31.1106 21.3779 31.3975 20.3637H0.6025C0.889312 21.3779 1.27369 22.3511 1.74475 23.2727V23.2727Z" fill="var(--fill-0, #F0F0F0)"/>
<path id="Vector_5" d="M6.79956 29.0909H25.2004C26.3734 28.265 27.4309 27.2859 28.3427 26.1819H3.65725C4.56906 27.2858 5.6265 28.265 6.79956 29.0909V29.0909Z" fill="var(--fill-0, #F0F0F0)"/>
<path id="Vector_6" d="M0.602438 11.6364H31.3976C31.1107 10.6221 30.7264 9.64889 30.2553 8.72733H1.74475C1.27369 9.64889 0.889313 10.6221 0.602438 11.6364V11.6364Z" fill="var(--fill-0, #F0F0F0)"/>
</g>
</svg>
