<svg preserveAspectRatio="none" width="100%" height="100%" overflow="visible" style="display: block;" viewBox="0 0 10 10" fill="none" xmlns="http://www.w3.org/2000/svg">
<g id="Group">
<path id="Vector" d="M1.27673 2.64958L1.46292 2.51433L3.19805 3.77502L2.53536 1.73521L4.27036 0.474335H3.61373C2.76411 1.12052 1.98117 1.84952 1.27673 2.64958V2.64958Z" fill="var(--fill-0, #FFDA44)"/>
<path id="Vector_2" d="M8.34789 0L8.69326 1.06281H9.81076L8.9067 1.71975L9.25189 2.78256L8.34789 2.12569L7.44383 2.78256L7.78895 1.71975L6.88489 1.06281H8.00245L8.34789 0Z" fill="var(--fill-0, #FFDA44)"/>
<path id="Vector_3" d="M1.46294 6.9565L1.80831 8.01931H2.92581L2.02181 8.67631L2.367 9.73912L1.46294 9.08218L0.558813 9.73912L0.904 8.67631L0 8.01931H1.1175L1.46294 6.9565Z" fill="var(--fill-0, #FFDA44)"/>
</g>
</svg>
