<svg preserveAspectRatio="none" width="100%" height="100%" overflow="visible" style="display: block;" viewBox="0 0 62 24" fill="none" xmlns="http://www.w3.org/2000/svg">
<g id="blox">
<path d="M4.97326 21.8182H4.90909V23.4225H0V0H5.35829V7.57219H5.42246C6.41711 6.54545 7.95722 5.93583 9.65775 5.93583C13.9251 5.83957 17.2941 9.85027 17.2299 14.8877C17.2299 20.0535 14.0856 23.8075 9.65775 23.8075C7.73262 23.8075 6 23.0695 4.97326 21.8182ZM11.8717 14.9198C11.8717 12.2567 10.6524 10.7807 8.50267 10.7807C6.70588 10.7807 5.35829 12.0642 5.35829 13.8289V15.8503C5.35829 17.6791 6.6738 18.9947 8.50267 18.9947C10.6524 18.9947 11.8717 17.4866 11.8717 14.9198Z" fill="var(--fill-0, #1E293B)"/>
<path d="M19.1044 23.4225V0H24.4627V23.4225H19.1044Z" fill="var(--fill-0, #1E293B)"/>
<path d="M26.2841 14.9519C26.2841 9.59358 29.8777 5.83957 34.9793 5.83957C40.0809 5.83957 43.7386 9.59358 43.7386 14.9519C43.7386 20.2781 40.0809 24 34.9793 24C29.8777 24 26.2841 20.2781 26.2841 14.9519ZM38.3803 14.9519C38.3803 12.2567 37.1611 10.6845 35.0114 10.6845C32.8616 10.6845 31.6424 12.2567 31.6424 14.9519C31.6424 17.615 32.8616 19.1551 35.0114 19.1551C37.1611 19.1551 38.3803 17.615 38.3803 14.9519Z" fill="var(--fill-0, #1E293B)"/>
<path d="M42.6392 23.4225L48.6713 14.8235L42.7675 6.41711H49.1205L51.9119 11.1658H51.9761L54.7996 6.41711H61.0884L55.2167 14.8235L61.2167 23.4225H54.928L51.9761 18.4813H51.9119L48.9921 23.4225H42.6392Z" fill="var(--fill-0, #1E293B)"/>
</g>
</svg>
