<svg preserveAspectRatio="none" width="100%" height="100%" overflow="visible" style="display: block;" viewBox="0 0 21 21" fill="none" xmlns="http://www.w3.org/2000/svg">
<g id="Group 3">
<path id="Ellipse 4" d="M21 10.5C21 16.299 16.299 21 10.5 21C4.70101 21 0 16.299 0 10.5C0 4.70101 4.70101 0 10.5 0C16.299 0 21 4.70101 21 10.5Z" fill="var(--fill-0, #BBBBBB)"/>
<g id="Frame 2">
<path id="Ellipse 4 (Stroke)" fill-rule="evenodd" clip-rule="evenodd" d="M10.5 19.25C15.3325 19.25 19.25 15.3325 19.25 10.5C19.25 5.66751 15.3325 1.75 10.5 1.75C5.66751 1.75 1.75 5.66751 1.75 10.5C1.75 15.3325 5.66751 19.25 10.5 19.25ZM10.5 21C16.299 21 21 16.299 21 10.5C21 4.70101 16.299 0 10.5 0C4.70101 0 0 4.70101 0 10.5C0 16.299 4.70101 21 10.5 21Z" fill="var(--fill-0, white)"/>
</g>
<g id="Group 2">
<path id="Union" d="M10.5 6.125C10.9832 6.125 11.375 6.51675 11.375 7V9.625H14C14.4832 9.625 14.875 10.0168 14.875 10.5C14.875 10.9832 14.4832 11.375 14 11.375H11.375V14C11.375 14.4832 10.9832 14.875 10.5 14.875C10.0168 14.875 9.625 14.4832 9.625 14V11.375H7C6.51675 11.375 6.125 10.9832 6.125 10.5C6.125 10.0168 6.51675 9.625 7 9.625H9.625V7C9.625 6.51675 10.0168 6.125 10.5 6.125Z" fill="var(--fill-0, white)"/>
</g>
</g>
</svg>
