<svg preserveAspectRatio="none" width="100%" height="100%" overflow="visible" style="display: block;" viewBox="0 0 32 8" fill="none" xmlns="http://www.w3.org/2000/svg">
<g id="Group">
<path id="Vector" d="M29.3123 1.21912C27.979 1.21912 27.979 0 26.6456 0C25.3123 0 25.3123 1.21912 23.9791 1.21912C22.6458 1.21912 22.6458 0 21.3125 0C19.9792 0 19.9792 1.21912 18.6458 1.21912C17.3124 1.21912 17.3124 0 15.9789 0C14.6456 0 14.6456 1.21912 13.3124 1.21912C11.9793 1.21912 11.9793 0 10.6459 0C9.3125 0 9.3125 1.21912 7.97906 1.21912C6.64563 1.21912 6.64563 0 5.31219 0C3.97906 0 3.97906 1.21912 2.64575 1.21912C1.31963 1.21912 1.31194 0.0134377 0 0.000562668C0.0369375 0.732438 0.124312 1.45094 0.256437 2.15356C1.31919 2.30975 1.41225 3.35244 2.64581 3.35244C3.97913 3.35244 3.97913 2.13344 5.31225 2.13344C6.64569 2.13344 6.64569 3.35244 7.97913 3.35244C9.31256 3.35244 9.31256 2.13344 10.646 2.13344C11.9793 2.13344 11.9793 3.35244 13.3124 3.35244C14.6458 3.35244 14.6458 2.13344 15.979 2.13344C17.3124 2.13344 17.3124 3.35244 18.6459 3.35244C19.9793 3.35244 19.9793 2.13344 21.3126 2.13344C22.6459 2.13344 22.6459 3.35244 23.9791 3.35244C25.3124 3.35244 25.3124 2.13344 26.6457 2.13344C27.9791 2.13344 27.9791 3.35244 29.3124 3.35244C30.5461 3.35244 30.6391 2.30981 31.7019 2.15362C31.8341 1.45094 31.9214 0.732499 31.9585 0.000623703C30.6463 0.0135612 30.6385 1.21912 29.3123 1.21912V1.21912Z" fill="var(--fill-0, #0052B4)"/>
<path id="Vector_2" d="M26.6457 4.17392C25.3124 4.17392 25.3124 5.39305 23.9791 5.39305C22.6459 5.39305 22.6458 4.17392 21.3126 4.17392C19.9792 4.17392 19.9792 5.39305 18.6459 5.39305C17.3124 5.39305 17.3124 4.17392 15.979 4.17392C14.6457 4.17392 14.6457 5.39305 13.3124 5.39305C11.9793 5.39305 11.9793 4.17392 10.646 4.17392C9.31256 4.17392 9.31256 5.39305 7.97912 5.39305C6.64568 5.39305 6.64568 4.17392 5.31225 4.17392C3.97912 4.17392 3.97912 5.39305 2.64581 5.39305C1.69312 5.39305 1.421 4.77079 0.856934 4.41529C1.23243 5.50023 1.72093 6.53229 2.30925 7.49704C2.41156 7.51592 2.52293 7.52636 2.64581 7.52636C3.97912 7.52636 3.97912 6.30736 5.31225 6.30736C6.64568 6.30736 6.64568 7.52636 7.97912 7.52636C9.31256 7.52636 9.31256 6.30736 10.646 6.30736C11.9793 6.30736 11.9793 7.52636 13.3124 7.52636C14.6457 7.52636 14.6457 6.30736 15.979 6.30736C17.3124 6.30736 17.3124 7.52636 18.6459 7.52636C19.9793 7.52636 19.9793 6.30736 21.3126 6.30736C22.6459 6.30736 22.6459 7.52636 23.9791 7.52636C25.3124 7.52636 25.3124 6.30736 26.6457 6.30736C27.9791 6.30736 27.9791 7.52636 29.3124 7.52636C29.4353 7.52636 29.5467 7.51592 29.6491 7.49698C30.2374 6.5323 30.7259 5.50023 31.1015 4.41536C30.5374 4.77067 30.2652 5.39305 29.3124 5.39305C27.9791 5.39305 27.9791 4.17392 26.6457 4.17392Z" fill="var(--fill-0, #0052B4)"/>
</g>
</svg>
