<svg preserveAspectRatio="none" width="100%" height="100%" overflow="visible" style="display: block;" viewBox="0 0 16 16" fill="none" xmlns="http://www.w3.org/2000/svg">
<path id="Vector" d="M7.8125 0.046875C8.04871 0.046875 8.27536 0.140593 8.44238 0.307617C8.60941 0.474642 8.70312 0.701292 8.70312 0.9375V6.92188H14.6875C14.9237 6.92188 15.1504 7.01559 15.3174 7.18262C15.4844 7.34964 15.5781 7.57629 15.5781 7.8125C15.5781 8.04871 15.4844 8.27536 15.3174 8.44238C15.1504 8.60941 14.9237 8.70312 14.6875 8.70312H8.70312V14.6875C8.70312 14.9237 8.60941 15.1504 8.44238 15.3174C8.27536 15.4844 8.04871 15.5781 7.8125 15.5781C7.57629 15.5781 7.34964 15.4844 7.18262 15.3174C7.01559 15.1504 6.92188 14.9237 6.92188 14.6875V8.70312H0.9375C0.701292 8.70312 0.474642 8.60941 0.307617 8.44238C0.140593 8.27536 0.046875 8.04871 0.046875 7.8125C0.046875 7.57629 0.140593 7.34964 0.307617 7.18262C0.474642 7.01559 0.701292 6.92188 0.9375 6.92188H6.92188V0.9375C6.92188 0.701292 7.01559 0.474642 7.18262 0.307617C7.34964 0.140593 7.57629 0.046875 7.8125 0.046875Z" fill="var(--fill-0, #A5B4FC)" stroke="var(--stroke-0, #A5B4FC)" stroke-width="0.09375"/>
</svg>
