<svg preserveAspectRatio="none" width="100%" height="100%" overflow="visible" style="display: block;" viewBox="0 0 32 32" fill="none" xmlns="http://www.w3.org/2000/svg">
<g id="Group">
<path id="Vector" d="M15.9999 0C10.7654 0 6.11828 2.51394 3.19922 6.4H28.8005C25.8815 2.51388 21.2343 0 15.9999 0V0Z" fill="var(--fill-0, #0052B4)"/>
<path id="Vector_2" d="M15.9999 31.9998C21.2344 31.9998 25.8815 29.4859 28.8006 25.5998H3.19922C6.11822 29.4859 10.7654 31.9998 15.9999 31.9998Z" fill="var(--fill-0, #0052B4)"/>
<path id="Vector_3" d="M0 15.9999C0 17.0959 0.1105 18.166 0.320437 19.1999H31.6796C31.8896 18.166 32 17.0959 32 15.9999C32 14.904 31.8895 13.8339 31.6796 12.7999H0.320437C0.1105 13.8339 0 14.904 0 15.9999V15.9999Z" fill="var(--fill-0, #0052B4)"/>
</g>
</svg>
