<svg preserveAspectRatio="none" width="100%" height="100%" overflow="visible" style="display: block;" viewBox="0 0 26 7" fill="none" xmlns="http://www.w3.org/2000/svg">
<g id="Group">
<path id="Vector" d="M25.1155 1.73769H19.8561C19.8561 0.778001 19.0781 0 18.1184 0L16.7282 2.78031C16.7282 2.78031 18.2111 6.95081 18.1647 6.95081H19.9024C20.8622 6.95081 21.6401 6.17288 21.6401 5.21313C22.5999 5.21313 23.3778 4.43519 23.3778 3.47544H23.3199C24.2796 3.47538 25.1155 2.69744 25.1155 1.73769Z" fill="var(--fill-0, #ACABB1)"/>
<path id="Vector_2" d="M0 1.73769H5.25944C5.25944 0.778001 6.03744 0 6.99712 0L8.38731 2.78031C8.38731 2.78031 6.90444 6.95081 6.95081 6.95081H5.21312C4.25337 6.95081 3.47544 6.17288 3.47544 5.21313C2.51569 5.21313 1.73775 4.43519 1.73775 3.47544H1.79562C0.835875 3.47538 0 2.69744 0 1.73769V1.73769Z" fill="var(--fill-0, #ACABB1)"/>
</g>
</svg>
