<svg preserveAspectRatio="none" width="100%" height="100%" overflow="visible" style="display: block;" viewBox="0 0 32 32" fill="none" xmlns="http://www.w3.org/2000/svg">
<g id="Group">
<path id="Vector" d="M27.0332 4.5715C24.1474 1.744 20.1963 0 15.8371 0C14.4458 0 10.3749 1.744 7.48926 4.5715H27.0332Z" fill="var(--fill-0, #6DA544)"/>
<path id="Vector_2" d="M15.8367 13.7143H31.6735C31.4426 12.1003 30.9712 10.564 30.2961 9.14288H15.1411L15.8367 13.7143Z" fill="var(--fill-0, #6DA544)"/>
<path id="Vector_3" d="M1.37744 22.8572H30.2961C30.9712 21.4361 31.4426 19.8997 31.6735 18.2857H0C0.230937 19.8998 0.70225 21.4362 1.37744 22.8572V22.8572Z" fill="var(--fill-0, #6DA544)"/>
<path id="Vector_4" d="M4.64062 27.4285C7.52644 30.256 11.4776 32 15.8368 32C20.1959 32 24.1471 30.256 27.0329 27.4285H4.64062Z" fill="var(--fill-0, #6DA544)"/>
</g>
</svg>
