<svg preserveAspectRatio="none" width="100%" height="100%" overflow="visible" style="display: block;" viewBox="0 0 9 9" fill="none" xmlns="http://www.w3.org/2000/svg">
<g id="G">
<path id="Blue" d="M8.50844 4.50212C8.50844 4.2024 8.48432 3.90268 8.43609 3.60908H4.34238V5.30341H6.68767C6.59121 5.84779 6.2777 6.33713 5.81949 6.64296V7.74397H7.21823C8.03818 6.97938 8.50844 5.84779 8.50844 4.50212Z" fill="var(--fill-0, #4285F4)"/>
<path id="Green" d="M4.34255 8.80829C5.51218 8.80829 6.50094 8.41682 7.2184 7.74399L5.81966 6.64298C5.42778 6.91211 4.92737 7.06503 4.34255 7.06503C3.20909 7.06503 2.25047 6.28821 1.90682 5.24837H0.465878V6.38608C1.20142 7.87244 2.70265 8.80829 4.34255 8.80829Z" fill="var(--fill-0, #34A853)"/>
<path id="Yellow" d="M1.90704 5.24843C1.72614 4.70404 1.72614 4.11072 1.90704 3.56022V2.42863H0.465874C-0.155215 3.67032 -0.155215 5.13833 0.465874 6.38002L1.90704 5.24843Z" fill="var(--fill-0, #FBBC04)"/>
<path id="Red" d="M4.34255 1.74353C4.96354 1.7313 5.56041 1.96985 6.00656 2.40413L7.24854 1.14409C6.45874 0.397857 5.42175 -0.0119617 4.34255 0.000271663C2.70265 0.000271663 1.20142 0.942243 0.465878 2.4286L1.90682 3.5663C2.25047 2.52035 3.20909 1.74353 4.34255 1.74353Z" fill="var(--fill-0, #EA4335)"/>
</g>
</svg>
