<svg preserveAspectRatio="none" width="100%" height="100%" overflow="visible" style="display: block;" viewBox="0 0 30 16" fill="none" xmlns="http://www.w3.org/2000/svg">
<g id="Group">
<path id="Vector" d="M16.9583 10.0869H29.7426C29.1378 8.567 28.3064 7.16213 27.2906 5.913H16.9583H16.9583V0.135438C16.2751 0.0465 15.5786 0 14.8713 0C14.1639 0 13.4675 0.0465 12.7844 0.135438V5.91294V5.913H2.45206C1.43625 7.16213 0.604875 8.567 0 10.0869H12.7842H12.7843V16H16.9583V10.087V10.0869Z" fill="var(--fill-0, #D80027)"/>
<path id="Vector_2" d="M10.6975 3.82607V3.826L8.28543 1.41394C7.8395 1.61563 7.40487 1.83782 6.98193 2.078L8.73 3.82607H10.6975Z" fill="var(--fill-0, #D80027)"/>
<path id="Vector_3" d="M19.0454 3.82601L21.4575 1.41395C20.9987 1.20651 20.5283 1.02051 20.0477 0.856201L19.0454 1.85851V3.82601Z" fill="var(--fill-0, #D80027)"/>
</g>
</svg>
