<svg preserveAspectRatio="none" width="100%" height="100%" overflow="visible" style="display: block;" viewBox="0 0 5 14" fill="none" xmlns="http://www.w3.org/2000/svg">
<g id="Group">
<path id="Vector" d="M1.44636 8.42767L0.0487976 7.38654V5.91429L1.44636 4.87317H3.42292L4.82049 5.91429V7.38654L3.42292 8.42767H1.44636Z" fill="var(--fill-0, #496E2D)"/>
<path id="Vector_2" d="M4.8695 10.7183H4.26075V10.1096H3.19106L2.43469 9.35324L1.67837 10.1096H0.608687V10.7183H0V11.9357H0.608687V12.5444H1.67831L2.43475 13.3008L3.19106 12.5444H4.26075V11.9357H4.8695V10.7183Z" fill="var(--fill-0, #496E2D)"/>
<path id="Vector_3" d="M4.8695 1.36513H4.26075V0.756375H3.19106L2.43469 0L1.67837 0.756375H0.608687V1.36513H0V2.5825H0.608687V3.19119H1.67831L2.43475 3.94769L3.19106 3.19119H4.26075V2.5825H4.8695V1.36513Z" fill="var(--fill-0, #496E2D)"/>
</g>
</svg>
