<svg preserveAspectRatio="none" width="100%" height="100%" overflow="visible" style="display: block;" viewBox="0 0 19 14" fill="none" xmlns="http://www.w3.org/2000/svg">
<g id="Group">
<path id="Vector" d="M2.26088 10.087C2.26088 11.2396 3.19525 12.1739 4.34782 12.1739H10.6087C10.6087 13.1344 11.3873 13.9131 12.3478 13.9131H14.4348C15.3953 13.9131 16.1739 13.1344 16.1739 12.1739V10.087H2.26088Z" fill="var(--fill-0, #F0F0F0)"/>
<path id="Vector_2" d="M16.3478 6.10352e-05V4.86962C16.3478 5.63681 15.7237 6.26094 14.9565 6.26094V8.34787C16.8744 8.34787 18.4347 6.7875 18.4347 4.86962V6.10352e-05H16.3478Z" fill="var(--fill-0, #F0F0F0)"/>
<path id="Vector_3" d="M1.39131 4.86981C1.39131 5.63699 0.767187 6.26112 0 6.26112V8.34806C1.91794 8.34806 3.47825 6.78768 3.47825 4.86981V0.000244141H1.39131V4.86981Z" fill="var(--fill-0, #F0F0F0)"/>
<path id="Vector_4" d="M13.2174 6.10352e-05H15.3043V4.86962H13.2174V6.10352e-05Z" fill="var(--fill-0, #F0F0F0)"/>
<path id="Vector_5" d="M10.0869 2.78262C10.0869 2.97444 9.93087 3.13044 9.73912 3.13044C9.54737 3.13044 9.39131 2.97437 9.39131 2.78262V0H7.30437V2.78262C7.30437 2.97444 7.14831 3.13044 6.95656 3.13044C6.76481 3.13044 6.60874 2.97437 6.60874 2.78262V0H4.52174V2.78262C4.52174 4.12519 5.61399 5.21744 6.95656 5.21744C7.47362 5.21744 7.95312 5.05494 8.34787 4.77894C8.74256 5.05487 9.22212 5.21744 9.73918 5.21744C9.84331 5.21744 9.94568 5.21012 10.0464 5.19731C9.89849 5.80662 9.34974 6.26087 8.69568 6.26087V8.34781C10.6136 8.34781 12.1739 6.78744 12.1739 4.86956V2.78262V0H10.087V2.78262H10.0869Z" fill="var(--fill-0, #F0F0F0)"/>
<path id="Vector_6" d="M4.52174 6.26094H7.65218V8.34787H4.52174V6.26094Z" fill="var(--fill-0, #F0F0F0)"/>
</g>
</svg>
