<svg preserveAspectRatio="none" width="100%" height="100%" overflow="visible" style="display: block;" viewBox="0 0 10 7" fill="none" xmlns="http://www.w3.org/2000/svg">
<g id="Group">
<path id="Vector" d="M4.86925 3.89906C3.65194 3.89906 3.65194 5.01213 2.43463 5.01213C1.21731 5.01213 1.21731 3.89906 0 3.89906V5.84687C1.21731 5.84687 1.21731 6.95994 2.43463 6.95994C3.65194 6.95994 3.65194 5.84687 4.86925 5.84687C6.08669 5.84687 6.08669 6.95994 7.30419 6.95994C8.52169 6.95994 8.52162 5.84687 9.73912 5.84687V3.89906C8.52169 3.89906 8.52169 5.01213 7.30419 5.01213C6.08669 5.01213 6.08669 3.89906 4.86925 3.89906V3.89906Z" fill="var(--fill-0, #F3F3F3)"/>
<path id="Vector_2" d="M4.86925 0C3.65194 0 3.65194 1.11306 2.43463 1.11306C1.21731 1.11306 1.21731 0 0 0V1.94781C1.21731 1.94781 1.21731 3.06087 2.43463 3.06087C3.65194 3.06087 3.65194 1.94781 4.86925 1.94781C6.08669 1.94781 6.08669 3.06087 7.30419 3.06087C8.52169 3.06087 8.52162 1.94781 9.73912 1.94781V0C8.52169 0 8.52169 1.11306 7.30419 1.11306C6.08669 1.11306 6.08669 0 4.86925 0Z" fill="var(--fill-0, #F3F3F3)"/>
</g>
</svg>
