<svg preserveAspectRatio="none" width="100%" height="100%" overflow="visible" style="display: block;" viewBox="0 0 22 20" fill="none" xmlns="http://www.w3.org/2000/svg">
<g id="Group">
<path id="Vector" d="M17.75 8.48V6.78H13.35V13.18H15.05V11.18H17.05V9.48H15.05V8.48H17.75V8.48ZM10.45 6.78H12.15V13.18H10.45V6.78ZM6.85 8.38C7.25 8.38 7.75 8.58 8.05 8.88L9.25 7.88C8.65 7.18 7.75 6.78 6.85 6.78C5.05 6.78 3.65 8.18 3.65 9.98C3.65 11.78 5.05 13.18 6.85 13.18C7.85 13.18 8.65 12.78 9.25 12.08V9.58H6.45V10.78H7.65V11.38C7.45 11.48 7.15 11.58 6.85 11.58C5.95 11.58 5.25 10.88 5.25 9.98C5.25 9.18 5.95 8.38 6.85 8.38V8.38Z" fill="var(--fill-0, #1DA1F2)"/>
<path id="Vector_2" d="M19.25 0H2.25C1.01 0 0 1.007 0 2.247V17.754C0 18.992 1.01 20 2.25 20H19.25C20.49 20 21.5 18.992 21.5 17.754V2.247C21.5 1.007 20.49 0 19.25 0V0ZM20 17.754C20 18.164 19.664 18.5 19.25 18.5H2.25C1.836 18.5 1.5 18.164 1.5 17.754V2.247C1.5 1.835 1.836 1.5 2.25 1.5H19.25C19.664 1.5 20 1.835 20 2.247V17.754Z" fill="var(--fill-0, #1DA1F2)"/>
</g>
</svg>
