<svg preserveAspectRatio="none" width="100%" height="100%" overflow="visible" style="display: block;" viewBox="0 0 13 12" fill="none" xmlns="http://www.w3.org/2000/svg">
<g id="Group">
<path id="Vector" d="M9.62348 8.21133C7.59929 9.67389 4.77267 9.21864 3.31017 7.19452C1.84754 5.17027 2.30285 2.3437 4.32704 0.881204C4.95817 0.425204 5.66729 0.155643 6.38873 0.0619551C5.00079 -0.145607 3.5336 0.167142 2.30629 1.05395C-0.184958 2.85408 -0.745396 6.33289 1.05467 8.82427C2.85473 11.3155 6.3336 11.876 8.82498 10.0757C10.0524 9.18889 10.81 7.89433 11.0486 6.51127C10.7332 7.16664 10.2547 7.75527 9.62348 8.21133V8.21133Z" fill="var(--fill-0, #F0F0F0)"/>
<path id="Vector_2" d="M9.53673 0L10.677 1.22881L12.198 0.524313L11.3815 1.98831L12.5217 3.21725L10.877 2.89319L10.0606 4.35731L9.86054 2.69294L8.21579 2.36887L9.73685 1.66438L9.53673 0Z" fill="var(--fill-0, #F0F0F0)"/>
</g>
</svg>
