<svg preserveAspectRatio="none" width="100%" height="100%" overflow="visible" style="display: block;" viewBox="0 0 24 24" fill="none" xmlns="http://www.w3.org/2000/svg">
<g id="Vector">
<path d="M11.6408 11.0766C12.5353 11.3138 14.4818 11.8298 14.8211 10.4768C15.1672 9.09243 13.2761 8.67433 12.3502 8.46962C12.2453 8.44642 12.1527 8.42596 12.0773 8.40715L11.4233 11.0201C11.4855 11.0355 11.5589 11.0549 11.6408 11.0766Z" fill="var(--fill-0, #F7931A)"/>
<path d="M10.6277 15.2836C11.6991 15.5658 14.0423 16.183 14.4151 14.6921C14.7968 13.1676 12.5249 12.6599 11.4164 12.4121C11.2925 12.3844 11.1831 12.36 11.0937 12.3377L10.3724 15.2175C10.4457 15.2356 10.5316 15.2583 10.6277 15.2836Z" fill="var(--fill-0, #F7931A)"/>
<path fill-rule="evenodd" clip-rule="evenodd" d="M23.8398 11.9199C23.8398 18.5031 18.5031 23.8398 11.9199 23.8398C5.33673 23.8398 0 18.5031 0 11.9199C0 5.33673 5.33673 0 11.9199 0C18.5031 0 23.8398 5.33673 23.8398 11.9199ZM14.7836 7.49123C16.4417 8.06062 17.6546 8.91321 17.4167 10.4999C17.2439 11.6618 16.5974 12.2237 15.7384 12.4205C16.9169 13.0316 17.3185 14.1914 16.9453 15.5939C16.2367 17.6121 14.5524 17.782 12.3122 17.3602L11.7682 19.5297L10.4551 19.2032L10.9915 17.0628C10.6511 16.9786 10.3032 16.8884 9.94475 16.7923L9.40602 18.9431L8.09435 18.6167L8.63757 16.4427L5.99254 15.7779L6.645 14.2799C6.645 14.2799 7.61323 14.5356 7.59976 14.5169C7.97164 14.6086 8.137 14.3671 8.2021 14.2069L9.67613 8.31848C9.69259 8.04049 9.59607 7.69022 9.06407 7.55756C9.08427 7.5434 8.11006 7.3213 8.11006 7.3213L8.45949 5.92391L11.1083 6.57752L11.647 4.42815L12.9594 4.75458L12.4319 6.86147C12.7851 6.94121 13.1397 7.02245 13.4847 7.10816L14.0085 5.01468L15.3216 5.34111L14.7836 7.49123Z" fill="var(--fill-0, #F7931A)"/>
</g>
</svg>
