<svg preserveAspectRatio="none" width="100%" height="100%" overflow="visible" style="display: block;" viewBox="0 0 18 22" fill="none" xmlns="http://www.w3.org/2000/svg">
<g id="Vector">
<path id="Vector_2" fill-rule="evenodd" clip-rule="evenodd" d="M5.02028 20.8221L5.38165 18.4496L4.57665 18.4302H0.732655L3.4041 0.922833C3.41242 0.869819 3.43932 0.820605 3.47862 0.785596C3.5181 0.750586 3.56842 0.731381 3.62107 0.731381H10.1026C12.2546 0.731381 13.7395 1.19411 14.5147 2.10756C14.8782 2.53608 15.1097 2.984 15.2218 3.47673C15.3393 3.99388 15.3412 4.61165 15.2266 5.36525L15.2183 5.42007V5.903L15.5818 6.11586C15.8878 6.2837 16.1311 6.47576 16.3177 6.69562C16.6285 7.06212 16.8296 7.52785 16.9146 8.0798C17.0025 8.64755 16.9734 9.32334 16.8296 10.0883C16.6638 10.9682 16.3957 11.7346 16.0335 12.3616C15.7006 12.9393 15.2764 13.4187 14.7725 13.79C14.2916 14.1429 13.7202 14.4107 13.0741 14.5822C12.4479 14.7506 11.7341 14.8357 10.9512 14.8357H10.4468C10.0862 14.8357 9.73585 14.9699 9.46081 15.2106C9.185 15.4562 9.00267 15.7919 8.94673 16.159L8.9086 16.3727L8.27006 20.5544L8.24122 20.7079C8.23348 20.7565 8.22032 20.7807 8.20096 20.7971C8.18374 20.8121 8.15896 20.8221 8.13477 20.8221H5.02028" fill="var(--fill-0, #28356A)"/>
<path id="Vector_3" fill-rule="evenodd" clip-rule="evenodd" d="M15.9267 5.47584C15.9075 5.60367 15.8852 5.73431 15.8605 5.86854C15.0057 10.4046 12.0813 11.9716 8.34647 11.9716H6.4448C5.98801 11.9716 5.60303 12.3143 5.53199 12.78L4.2826 20.9713C4.23634 21.2772 4.46435 21.5526 4.76281 21.5526H8.13569C8.535 21.5526 8.8743 21.2528 8.9372 20.8456L8.9703 20.6686L9.60536 16.5033L9.6462 16.2748C9.70833 15.8663 10.0484 15.5662 10.4477 15.5662H10.9521C14.2199 15.5662 16.7781 14.195 17.5258 10.2267C17.838 8.56908 17.6764 7.18491 16.8499 6.21144C16.5998 5.91796 16.2896 5.67429 15.9267 5.47584" fill="var(--fill-0, #298FC2)"/>
<path id="Vector_4" fill-rule="evenodd" clip-rule="evenodd" d="M15.0321 5.10737C14.9015 5.06796 14.7668 5.03235 14.6286 5.00014C14.4896 4.96873 14.3473 4.94093 14.2008 4.91652C13.6881 4.8309 13.1262 4.79028 12.5244 4.79028H7.44419C7.31896 4.79028 7.20012 4.81949 7.09386 4.87231C6.85946 4.98874 6.68546 5.218 6.64326 5.49868L5.56245 12.5738L5.53148 12.7801C5.60252 12.3143 5.9875 11.9717 6.44429 11.9717H8.34596C12.0808 11.9717 15.0052 10.4038 15.86 5.86858C15.8855 5.73434 15.907 5.60371 15.9261 5.47587C15.7099 5.35724 15.4757 5.25581 15.2235 5.16939C15.1612 5.14798 15.097 5.12738 15.0321 5.10737" fill="var(--fill-0, #22284F)"/>
<path id="Vector_5" fill-rule="evenodd" clip-rule="evenodd" d="M6.64332 5.49871C6.68552 5.21803 6.85952 4.98877 7.09392 4.87314C7.20095 4.82012 7.31902 4.79091 7.44425 4.79091H12.5245C13.1262 4.79091 13.6881 4.83172 14.2009 4.91735C14.3474 4.94155 14.4896 4.96956 14.6286 5.00097C14.7668 5.03298 14.9015 5.06879 15.0322 5.108C15.097 5.12801 15.1613 5.14881 15.2242 5.16942C15.4764 5.25584 15.7108 5.35807 15.927 5.4759C16.1813 3.79964 15.9249 2.65833 15.048 1.62485C14.0812 0.486934 12.3365 0 10.1039 0H3.62212C3.16611 0 2.77706 0.342694 2.70661 0.809222L0.00690917 18.4967C-0.0463184 18.8466 0.214787 19.1623 0.556218 19.1623H4.55777L6.64332 5.49871" fill="var(--fill-0, #28356A)"/>
</g>
</svg>
