<svg preserveAspectRatio="none" width="100%" height="100%" overflow="visible" style="display: block;" viewBox="0 0 19 13" fill="none" xmlns="http://www.w3.org/2000/svg">
<g id="Pay">
<path id="Union" d="M15.4268 7.79492H15.4502L17.3408 3.05078H18.6689L14.585 12.5625H13.3242L14.8428 9.23535L12.1631 3.05078H13.4912L15.4268 7.79492ZM9.03418 2.83496C9.93764 2.83496 10.6519 3.08115 11.1758 3.56641C11.6995 4.05157 11.9579 4.72927 11.958 5.58398V9.65918H10.7881V8.74219H10.7354C10.2267 9.49702 9.55853 9.87499 8.71582 9.875C8.00216 9.875 7.39432 9.65888 6.91602 9.22754C6.44556 8.82705 6.18018 8.23404 6.19531 7.61035C6.19531 6.92492 6.45337 6.38575 6.96191 5.97754C7.47051 5.56937 8.15376 5.3692 9.00391 5.36914C9.73275 5.36914 10.3252 5.50765 10.7959 5.76953V5.48438C10.7959 5.06074 10.6138 4.6601 10.2949 4.38281C9.96846 4.09013 9.55091 3.92871 9.11816 3.92871C8.43487 3.92871 7.89577 4.22125 7.50098 4.80664L6.42285 4.12109C6.99977 3.26623 7.87282 2.83508 9.03418 2.83496ZM3.24219 0C4.024 -0.0153057 4.78278 0.285418 5.33691 0.839844C6.44536 1.88738 6.51375 3.65094 5.47363 4.7832L5.33691 4.92188C4.7676 5.46861 4.06953 5.74601 3.24219 5.74609H1.22266V9.65918H0V0H3.24219ZM9.19434 6.37012C8.70084 6.37014 8.28329 6.49367 7.94922 6.73242C7.62279 6.97118 7.45605 7.27182 7.45605 7.63379C7.4562 7.95711 7.60794 8.25761 7.8584 8.44238C8.13169 8.65787 8.46606 8.77332 8.80762 8.76563C9.32383 8.76552 9.81725 8.55713 10.1816 8.1875C10.584 7.80242 10.7891 7.3479 10.7891 6.82422C10.4094 6.51622 9.87763 6.36242 9.19434 6.37012ZM1.22266 4.55957H3.27246C3.72806 4.57498 4.16914 4.39078 4.48047 4.05957C5.11813 3.38955 5.10268 2.31108 4.44238 1.66406C4.13106 1.35596 3.71287 1.18652 3.27246 1.18652H1.22266V4.55957Z" fill="var(--fill-0, #3C4043)"/>
</g>
</svg>
