<svg preserveAspectRatio="none" width="100%" height="100%" overflow="visible" style="display: block;" viewBox="0 0 25 6" fill="none" xmlns="http://www.w3.org/2000/svg">
<path id="Vector" d="M23.0667 0C21.7334 0 21.7334 1.21912 20.4002 1.21912C19.0669 1.21912 19.0669 0 17.7336 0C16.4003 0 16.4003 1.21912 15.0669 1.21912C13.7335 1.21912 13.7335 0 12.4001 0C11.0668 0 11.0667 1.21912 9.7335 1.21912C8.40037 1.21912 8.40037 0 7.06706 0C5.73362 0 5.73362 1.21912 4.40019 1.21912C3.06675 1.21912 3.06675 0 1.73331 0C0.812438 0 0.5275 0.581498 0 0.941311C1.39931 2.65544 3.14744 4.07319 5.13525 5.08831L12.4003 4.72231L19.6653 5.08825C21.6531 4.07306 23.4012 2.6555 24.8005 0.941374C24.2728 0.581624 23.9878 0 23.0667 0V0Z" fill="var(--fill-0, #0052B4)"/>
</svg>
