<svg preserveAspectRatio="none" width="100%" height="100%" overflow="visible" style="display: block;" viewBox="0 0 11 10" fill="none" xmlns="http://www.w3.org/2000/svg">
<g id="Group">
<path id="Vector" d="M6.39131 8.826C4.20619 8.826 2.43481 7.05456 2.43481 4.8695C2.43481 2.68444 4.20625 0.913 6.39131 0.913C7.07262 0.913 7.71369 1.08531 8.27337 1.38856C7.39537 0.53 6.19463 0 4.86956 0C2.18025 0 0 2.18019 0 4.86956C0 7.55894 2.18025 9.73913 4.86956 9.73913C6.19463 9.73913 7.39537 9.20912 8.27337 8.35056C7.71369 8.65369 7.07269 8.826 6.39131 8.826V8.826Z" fill="var(--fill-0, #FFDA44)"/>
<path id="Vector_2" d="M7.50623 2.08685L8.20866 3.55573L9.79498 3.18923L9.0846 4.65417L10.3604 5.66585L8.77198 6.02392L8.77641 7.6521L7.50623 6.63348L6.23598 7.6521L6.24035 6.02392L4.65198 5.66585L5.92773 4.65417L5.21729 3.18923L6.80373 3.55573L7.50623 2.08685Z" fill="var(--fill-0, #FFDA44)"/>
</g>
</svg>
