<svg preserveAspectRatio="none" width="100%" height="100%" overflow="visible" style="display: block;" viewBox="0 0 21 5" fill="none" xmlns="http://www.w3.org/2000/svg">
<g id="Group">
<path id="Vector" d="M1.46287 2.08691L1.80825 3.14991H2.92575L2.02169 3.80673L2.367 4.86954L1.46287 4.21273L0.558688 4.86954L0.904125 3.80673L0 3.14991H1.11744L1.46287 2.08691Z" fill="var(--fill-0, #F0F0F0)"/>
<path id="Vector_2" d="M4.94084 1.04346L5.28621 2.10639H6.40372L5.49965 2.76321L5.84496 3.82602L4.94084 3.16921L4.03671 3.82602L4.38209 2.76321L3.47803 2.10639H4.59553L4.94084 1.04346Z" fill="var(--fill-0, #F0F0F0)"/>
<path id="Vector_3" d="M8.41936 3.05176e-05L8.76473 1.06297H9.88223L8.97817 1.71984L9.32348 2.78266L8.41936 2.12578L7.51523 2.78266L7.86061 1.71984L6.95654 1.06297H8.07404L8.41936 3.05176e-05Z" fill="var(--fill-0, #F0F0F0)"/>
<path id="Vector_4" d="M19.4067 2.08691L19.0613 3.14991H17.9438L18.848 3.80673L18.5026 4.86954L19.4067 4.21273L20.3109 4.86954L19.9655 3.80673L20.8696 3.14991H19.7521L19.4067 2.08691Z" fill="var(--fill-0, #F0F0F0)"/>
<path id="Vector_5" d="M15.9282 1.04346L15.5828 2.10639H14.4653L15.3695 2.76321L15.0241 3.82602L15.9282 3.16921L16.8323 3.82602L16.487 2.76321L17.391 2.10639H16.2735L15.9282 1.04346Z" fill="var(--fill-0, #F0F0F0)"/>
<path id="Vector_6" d="M12.4502 0L12.1048 1.06294H10.9873L11.8914 1.71981L11.5461 2.78262L12.4502 2.12575L13.3543 2.78262L13.0089 1.71981L13.913 1.06294H12.7955L12.4502 0Z" fill="var(--fill-0, #F0F0F0)"/>
</g>
</svg>
