<svg preserveAspectRatio="none" width="100%" height="100%" overflow="visible" style="display: block;" viewBox="0 0 12 13" fill="none" xmlns="http://www.w3.org/2000/svg">
<g id="Group">
<path id="Vector" d="M7.69778 7.11462C7.12859 5.97631 6.38878 4.82256 6.38878 4.82256C6.38878 4.82256 6.40716 4.29724 6.40716 3.98424C6.40716 3.51274 6.02491 3.13049 5.55341 3.13049C5.10672 3.13049 4.74072 3.47368 4.70341 3.91062C4.35216 3.93356 4.07422 4.22493 4.07422 4.58193C4.07422 4.84149 4.22128 5.06643 4.43653 5.17887C4.54353 4.92862 4.75303 4.73324 5.01216 4.64418C5.05441 4.67874 5.09978 4.70962 5.14822 4.73581L5.25759 4.78818C5.25759 4.78818 4.85203 5.93137 4.85203 6.54549C4.85203 8.27199 5.99041 8.80443 5.99041 8.80443V8.82224L5.42122 9.39137H6.55953V8.25299L7.12872 8.82218C7.13372 8.81149 8.20684 8.13281 7.69778 7.11462V7.11462Z" fill="var(--fill-0, #496E2D)"/>
<path id="Vector_2" d="M5.95455 0L6.21355 0.797125H7.05167L6.37361 1.28981L6.63267 2.08694L5.95455 1.59431L5.27642 2.08694L5.53548 1.28981L4.85742 0.797125H5.69555L5.95455 0Z" fill="var(--fill-0, #496E2D)"/>
<path id="Vector_3" d="M2.27411 1.19574L2.95211 1.68843L3.63023 1.19568L3.37123 1.99293L4.04936 2.48549L3.21117 2.48555L2.95217 3.28268L2.69311 2.48555L1.85498 2.48549L2.53304 1.9928L2.27411 1.19574Z" fill="var(--fill-0, #496E2D)"/>
<path id="Vector_4" d="M0 4.32619H0.838062L1.09713 3.52906L1.35612 4.32619L2.19431 4.32613L1.51625 4.81887L1.77531 5.616L1.09713 5.12331L0.419063 5.61594L0.677999 4.81881L0 4.32619Z" fill="var(--fill-0, #496E2D)"/>
<path id="Vector_5" d="M0 8.19556L0.677999 7.703L0.419 6.90581L1.09713 7.3985L1.77525 6.90581L1.51625 7.70294L2.19438 8.19562L1.35612 8.19569L1.09713 8.99275L0.838062 8.19556H0Z" fill="var(--fill-0, #496E2D)"/>
<path id="Vector_6" d="M2.27417 11.326L2.53311 10.529L1.85498 10.0363H2.69317L2.95223 9.23914L3.21123 10.0363H4.04942L3.37129 10.529L3.63029 11.3261L2.95217 10.8334L2.27417 11.326Z" fill="var(--fill-0, #496E2D)"/>
<path id="Vector_7" d="M5.95455 12.5218L5.69555 11.7248H4.85742L5.53548 11.232L5.27642 10.4349L5.95455 10.9274L6.63261 10.4348L6.37361 11.232L7.05167 11.7247L6.21355 11.7248L5.95455 12.5218Z" fill="var(--fill-0, #496E2D)"/>
<path id="Vector_8" d="M9.63414 11.326L8.95614 10.8334L8.27807 11.3261L8.53701 10.529L7.85889 10.0363L8.69707 10.0363L8.95601 9.23914L9.21514 10.0363H10.0533L9.3752 10.529L9.63414 11.326Z" fill="var(--fill-0, #496E2D)"/>
<path id="Vector_9" d="M11.9087 8.19557H11.0707L10.8116 8.99276L10.5526 8.1957H9.71436L10.3925 7.70295L10.1334 6.90588L10.8116 7.39851L11.4896 6.90588L11.2307 7.70301L11.9087 8.19557Z" fill="var(--fill-0, #496E2D)"/>
<path id="Vector_10" d="M11.9087 4.32618L11.2307 4.8188L11.4897 5.61593L10.8116 5.1233L10.1335 5.61605L10.3925 4.81886L9.71436 4.32624L10.5526 4.32611L10.8115 3.52911L11.0707 4.32618H11.9087Z" fill="var(--fill-0, #496E2D)"/>
<path id="Vector_11" d="M9.63414 1.19568L9.3752 1.99274L10.0533 2.48543H9.21514L8.95614 3.28262L8.69707 2.48549L7.85889 2.48555L8.53701 1.99274L8.27801 1.19574L8.95614 1.6883L9.63414 1.19568Z" fill="var(--fill-0, #496E2D)"/>
</g>
</svg>
