<svg preserveAspectRatio="none" width="100%" height="100%" overflow="visible" style="display: block;" viewBox="0 0 35 15" fill="none" xmlns="http://www.w3.org/2000/svg">
<path id="Vector" fill-rule="evenodd" clip-rule="evenodd" d="M6.39507 1.89942C5.98487 2.39705 5.32855 2.78955 4.67222 2.73348C4.59018 2.06062 4.91151 1.34571 5.28752 0.90415C5.69773 0.392499 6.41558 0.0280357 6.9967 0C7.06507 0.700891 6.79844 1.38777 6.39507 1.89942ZM6.98994 2.86664C6.41173 2.83253 5.88414 3.04491 5.45799 3.21647C5.18375 3.32686 4.95152 3.42035 4.77485 3.42035C4.57658 3.42035 4.33476 3.32186 4.06326 3.21129C3.7075 3.0664 3.30077 2.90075 2.87424 2.9087C1.89659 2.92272 0.987312 3.49044 0.488233 4.39459C-0.537273 6.20288 0.221601 8.88029 1.21292 10.3522C1.69833 11.0811 2.27945 11.8801 3.04516 11.8521C3.38203 11.839 3.62435 11.7336 3.87513 11.6245C4.16385 11.4989 4.46378 11.3684 4.93209 11.3684C5.38417 11.3684 5.67098 11.4955 5.9463 11.6175C6.20809 11.7335 6.45949 11.8449 6.8327 11.838C7.62575 11.824 8.12483 11.1091 8.61024 10.3802C9.13405 9.59789 9.36425 8.83439 9.3992 8.71848L9.3992 8.71847L9.4033 8.70506C9.40246 8.70421 9.39602 8.70118 9.38466 8.69585L9.3846 8.69582L9.38457 8.69581C9.20946 8.61362 7.87104 7.98546 7.8582 6.30101C7.84531 4.88716 8.9198 4.17081 9.08895 4.05805C9.09924 4.05118 9.10618 4.04655 9.10932 4.04414C8.42565 3.00682 7.35912 2.89468 6.98994 2.86664ZM12.4797 11.7609V0.834036H16.4792C18.5439 0.834036 19.9864 2.29189 19.9864 4.4226C19.9864 6.5533 18.5165 8.02518 16.4245 8.02518H14.1342V11.7609H12.4797ZM14.1343 2.26389H16.0418C17.4775 2.26389 18.2979 3.04888 18.2979 4.42964C18.2979 5.81039 17.4775 6.6024 16.0349 6.6024H14.1343V2.26389ZM25.4493 10.4503C25.0118 11.3054 24.0478 11.8451 23.0086 11.8451C21.4704 11.8451 20.397 10.9059 20.397 9.49008C20.397 8.0883 21.4362 7.28227 23.3573 7.16312L25.422 7.03696V6.43419C25.422 5.54406 24.8545 5.06045 23.8427 5.06045C23.0086 5.06045 22.4001 5.50201 22.2771 6.17487H20.7867C20.8345 4.75907 22.1335 3.72876 23.8905 3.72876C25.7843 3.72876 27.0149 4.74505 27.0149 6.32205V11.761H25.4835V10.4503H25.4493ZM23.4527 10.5484C22.5708 10.5484 22.0102 10.1138 22.0102 9.44798C22.0102 8.76111 22.5503 8.3616 23.5826 8.29852L25.4217 8.17937V8.79615C25.4217 9.81945 24.5739 10.5484 23.4527 10.5484ZM32.0946 12.1885C31.4314 14.1019 30.6726 14.7327 29.0591 14.7327C28.936 14.7327 28.5258 14.7187 28.4301 14.6907V13.38C28.5327 13.394 28.7856 13.4081 28.9155 13.4081C29.6471 13.4081 30.0573 13.0927 30.3102 12.2726L30.4606 11.789L27.6576 3.83389H29.3873L31.3357 10.2891H31.3699L33.3184 3.83389H35.0002L32.0946 12.1885Z" fill="var(--fill-0, black)"/>
</svg>
