<svg preserveAspectRatio="none" width="100%" height="100%" overflow="visible" style="display: block;" viewBox="0 0 16 16" fill="none" xmlns="http://www.w3.org/2000/svg">
<path id="Vector" d="M11.875 2.8125H0.9375C0.68886 2.8125 0.450403 2.91127 0.274587 3.08709C0.0987721 3.2629 0 3.50136 0 3.75V14.6875C0 14.9361 0.0987721 15.1746 0.274587 15.3504C0.450403 15.5262 0.68886 15.625 0.9375 15.625H11.875C12.1236 15.625 12.3621 15.5262 12.5379 15.3504C12.7137 15.1746 12.8125 14.9361 12.8125 14.6875V3.75C12.8125 3.50136 12.7137 3.2629 12.5379 3.08709C12.3621 2.91127 12.1236 2.8125 11.875 2.8125ZM10.9375 13.75H1.875V4.6875H10.9375V13.75ZM15.625 0.9375V11.875C15.625 12.1236 15.5262 12.3621 15.3504 12.5379C15.1746 12.7137 14.9361 12.8125 14.6875 12.8125C14.4389 12.8125 14.2004 12.7137 14.0246 12.5379C13.8488 12.3621 13.75 12.1236 13.75 11.875V1.875H3.75C3.50136 1.875 3.2629 1.77623 3.08709 1.60041C2.91127 1.4246 2.8125 1.18614 2.8125 0.9375C2.8125 0.68886 2.91127 0.450403 3.08709 0.274587C3.2629 0.0987721 3.50136 0 3.75 0H14.6875C14.9361 0 15.1746 0.0987721 15.3504 0.274587C15.5262 0.450403 15.625 0.68886 15.625 0.9375Z" fill="var(--fill-0, #94A3B8)"/>
</svg>
