<svg preserveAspectRatio="none" width="100%" height="100%" overflow="visible" style="display: block;" viewBox="0 0 32 32" fill="none" xmlns="http://www.w3.org/2000/svg">
<g id="Group">
<path id="Vector" d="M25.741 3.3075C23.0431 1.23369 19.6659 0 16 0C12.3341 0 8.95688 1.23375 6.25894 3.3075L16 13.0485L25.741 3.3075Z" fill="var(--fill-0, #0052B4)"/>
<path id="Vector_2" d="M3.30744 6.259C1.23375 8.95694 0 12.3341 0 16C0 19.6659 1.23375 23.0431 3.3075 25.7411L13.0486 16L3.30744 6.259Z" fill="var(--fill-0, #0052B4)"/>
<path id="Vector_3" d="M6.25894 28.6925C8.95694 30.7663 12.3341 32 16 32C19.6659 32 23.0431 30.7662 25.7411 28.6925L16 18.9515L6.25894 28.6925Z" fill="var(--fill-0, #0052B4)"/>
<path id="Vector_4" d="M28.6925 25.741C30.7663 23.0431 32 19.6659 32 16C32 12.3341 30.7663 8.95694 28.6925 6.259L18.9515 16L28.6925 25.741Z" fill="var(--fill-0, #0052B4)"/>
</g>
</svg>
