<svg preserveAspectRatio="none" width="100%" height="100%" overflow="visible" style="display: block;" viewBox="0 0 7 14" fill="none" xmlns="http://www.w3.org/2000/svg">
<g id="Group">
<path id="Vector" d="M5.56516 7.65219H6.95647V13.2174H5.56516V7.65219Z" fill="var(--fill-0, #FFDA44)"/>
<path id="Vector_2" d="M0 7.65219H1.39131V13.2174H0V7.65219Z" fill="var(--fill-0, #FFDA44)"/>
<path id="Vector_3" d="M3.4782 11.1304C4.2466 11.1304 4.86951 10.5075 4.86951 9.73912C4.86951 8.97072 4.2466 8.34781 3.4782 8.34781C2.7098 8.34781 2.08688 8.97072 2.08688 9.73912C2.08688 10.5075 2.7098 11.1304 3.4782 11.1304Z" fill="var(--fill-0, #FFDA44)"/>
<path id="Vector_4" d="M3.47819 5.56517C3.86237 5.56517 4.17381 5.25373 4.17381 4.86954C4.17381 4.48536 3.86237 4.17392 3.47819 4.17392C3.094 4.17392 2.78256 4.48536 2.78256 4.86954C2.78256 5.25373 3.094 5.56517 3.47819 5.56517Z" fill="var(--fill-0, #FFDA44)"/>
<path id="Vector_5" d="M2.08701 11.8261H4.86963V13.2174H2.08701V11.8261Z" fill="var(--fill-0, #FFDA44)"/>
<path id="Vector_6" d="M2.08701 6.26088H4.86963V7.65219H2.08701V6.26088Z" fill="var(--fill-0, #FFDA44)"/>
<path id="Vector_7" d="M3.47825 0L3.971 1.51625H5.56525L4.27556 2.45337L4.76794 3.96962L3.47825 3.0325L2.18862 3.96962L2.681 2.45337L1.39131 1.51625H2.98556L3.47825 0Z" fill="var(--fill-0, #FFDA44)"/>
</g>
</svg>
