<svg preserveAspectRatio="none" width="100%" height="100%" overflow="visible" style="display: block;" viewBox="0 0 23 16" fill="none" xmlns="http://www.w3.org/2000/svg">
<path id="Vector" d="M22.1232 2.78606C21.551 1.16338 20.0049 0 18.1865 0H14.6087C12.3036 0 10.4348 1.86875 10.4348 4.17394C10.4348 4.92706 10.6353 5.65088 10.9842 6.26088C9.65569 6.25 8.42612 6.27006 7.65219 6.26088C7.65219 4.65113 7.65219 2.6005 7.65219 2.17144L7.81656 2.00706C8.55444 1.26919 8.30838 0.0394382 8.30838 0.0394382C8.30838 0.0394382 7.07875 -0.2065 6.34087 0.531375L5.48094 1.39131H4.52175C2.40863 1.39131 0.695688 3.10431 0.695688 5.21738H3.47831V8.34781C3.47831 8.80569 3.57062 9.24187 3.73744 9.63912L2.78263 10.4348H1.39131V9.04344H0V11.8261H6.26087V14.6087H4.86956V16H7.65219V13.2174L8.9275 11.6869H11.9421L13.2174 13.2174V14.6087H11.8261V16H17.3913V8.34775C17.3913 7.19519 18.3256 6.26081 19.4782 6.26081C19.5078 6.26081 19.5372 6.26187 19.5666 6.26306C19.5089 6.04006 19.4782 5.80625 19.4782 5.56519C19.4783 4.07462 20.6504 2.85788 22.1232 2.78606V2.78606ZM14.6087 14.6086V11.6869H14.7247L16 13.2173V14.6086H14.6087Z" fill="var(--fill-0, #D80027)"/>
</svg>
