<svg preserveAspectRatio="none" width="100%" height="100%" overflow="visible" style="display: block;" viewBox="0 0 17 17" fill="none" xmlns="http://www.w3.org/2000/svg">
<path id="Vector" d="M16.7633 14.8461C15.6921 12.9662 14.0196 11.5014 12.0148 10.6875C13.0118 9.93979 13.7482 8.89736 14.1198 7.70787C14.4913 6.51838 14.4792 5.24213 14.0851 4.0599C13.6911 2.87767 12.935 1.8494 11.9241 1.12075C10.9131 0.392097 9.69851 0 8.45234 0C7.20616 0 5.99157 0.392097 4.98062 1.12075C3.96967 1.8494 3.2136 2.87767 2.81953 4.0599C2.42545 5.24213 2.41334 6.51838 2.78491 7.70787C3.15648 8.89736 3.89289 9.93979 4.88984 10.6875C2.88509 11.5014 1.21253 12.9662 0.141398 14.8461C0.0750272 14.9528 0.0307912 15.0718 0.0113201 15.196C-0.00815106 15.3201 -0.00245992 15.4469 0.0280553 15.5688C0.0585704 15.6907 0.113287 15.8053 0.188951 15.9056C0.264615 16.006 0.359683 16.0901 0.468503 16.153C0.577322 16.2158 0.697672 16.2562 0.822398 16.2716C0.947123 16.287 1.07368 16.2772 1.19454 16.2428C1.3154 16.2083 1.4281 16.1499 1.52593 16.071C1.62377 15.9921 1.70475 15.8944 1.76405 15.7836C3.17968 13.3367 5.67968 11.8773 8.45234 11.8773C11.225 11.8773 13.725 13.3375 15.1406 15.7836C15.2691 15.9903 15.473 16.1388 15.7091 16.1979C15.9452 16.257 16.195 16.222 16.4057 16.1002C16.6164 15.9785 16.7716 15.7796 16.8383 15.5455C16.905 15.3115 16.8781 15.0607 16.7633 14.8461ZM4.38984 5.93984C4.38984 5.13636 4.6281 4.35091 5.07449 3.68284C5.52088 3.01477 6.15536 2.49406 6.89768 2.18658C7.64001 1.8791 8.45684 1.79865 9.24489 1.9554C10.0329 2.11216 10.7568 2.49907 11.325 3.06722C11.8931 3.63537 12.28 4.35924 12.4368 5.14729C12.5935 5.93534 12.5131 6.75217 12.2056 7.49449C11.8981 8.23682 11.3774 8.8713 10.7093 9.31769C10.0413 9.76408 9.25582 10.0023 8.45234 10.0023C7.37527 10.0011 6.34268 9.57269 5.58108 8.81109C4.81949 8.0495 4.39108 7.0169 4.38984 5.93984Z" fill="var(--fill-0, #4338CA)"/>
</svg>
