<svg preserveAspectRatio="none" width="100%" height="100%" overflow="visible" style="display: block;" viewBox="0 0 32 32" fill="none" xmlns="http://www.w3.org/2000/svg">
<g id="Group">
<path id="Vector" d="M31.8646 13.9131H18.0871H18.087V0.135438C17.4038 0.0465 16.7073 0 16 0C15.2927 0 14.5962 0.0465 13.9131 0.135438V13.9129V13.913H0.135438C0.0465 14.5962 0 15.2927 0 16C0 16.7074 0.0465 17.4038 0.135438 18.0869H13.9129H13.913V31.8646C14.5962 31.9535 15.2927 32 16 32C16.7073 32 17.4038 31.9536 18.0869 31.8646V18.0871V18.087H31.8646C31.9535 17.4038 32 16.7074 32 16C32 15.2927 31.9535 14.5962 31.8646 13.9131V13.9131Z" fill="var(--fill-0, #D80027)"/>
<path id="Vector_2" d="M9.73937 7.65219V5.56519H7.65243V7.65219H5.56543V9.73912H7.65243V11.8261H9.73937V9.73912H11.8263V7.65219H9.73937Z" fill="var(--fill-0, #D80027)"/>
<path id="Vector_3" d="M24.3477 7.65219V5.56519H22.2608V7.65219H20.1738V9.73912H22.2608V11.8261H24.3477V9.73912H26.4347V7.65219H24.3477Z" fill="var(--fill-0, #D80027)"/>
<path id="Vector_4" d="M9.73937 22.2609V20.174H7.65243V22.2609H5.56543V24.3478H7.65243V26.4348H9.73937V24.3478H11.8263V22.2609H9.73937Z" fill="var(--fill-0, #D80027)"/>
<path id="Vector_5" d="M24.3477 22.2609V20.174H22.2608V22.2609H20.1738V24.3478H22.2608V26.4348H24.3477V24.3478H26.4347V22.2609H24.3477Z" fill="var(--fill-0, #D80027)"/>
</g>
</svg>
