<svg preserveAspectRatio="none" width="100%" height="100%" overflow="visible" style="display: block;" viewBox="0 0 32 29" fill="none" xmlns="http://www.w3.org/2000/svg">
<g id="Group">
<path id="Vector" d="M16 11.8261H31.4488C31.0476 10.3377 30.4379 8.93513 29.6516 7.65213H16V11.8261Z" fill="var(--fill-0, #338AF3)"/>
<path id="Vector_2" d="M6.04045 28.5217H25.96C27.4202 27.3587 28.6724 25.9461 29.6518 24.3478H2.34863C3.32807 25.946 4.58032 27.3587 6.04045 28.5217V28.5217Z" fill="var(--fill-0, #338AF3)"/>
<path id="Vector_3" d="M5.56545 3.87122C4.30757 4.9544 3.22013 6.22997 2.34863 7.65222H5.56545V3.87122Z" fill="var(--fill-0, #338AF3)"/>
<path id="Vector_4" d="M16 16C16 14.3703 16 13.0063 16 11.8261H9.73913V16H5.56519V11.8261H0.551188C0.1925 13.1569 0 14.5558 0 16C0 17.4442 0.1925 18.8431 0.551188 20.1739H31.4489C31.8075 18.8431 32 17.4442 32 16H16Z" fill="var(--fill-0, #338AF3)"/>
<path id="Vector_5" d="M16.0001 0C13.7783 0 11.6624 0.453312 9.73926 1.27175V7.65219H16.0001C16.0001 6.19519 16.0001 4.956 16.0001 3.47825H25.9599C23.2268 1.3015 19.7657 0 16.0001 0V0Z" fill="var(--fill-0, #338AF3)"/>
</g>
</svg>
