<svg preserveAspectRatio="none" width="100%" height="100%" overflow="visible" style="display: block;" viewBox="0 0 32 32" fill="none" xmlns="http://www.w3.org/2000/svg">
<g id="Group">
<path id="Vector" d="M29.3123 17.9148C27.979 17.9148 27.979 16.6957 26.6456 16.6957C25.3123 16.6957 25.3123 17.9148 23.9791 17.9148C22.6458 17.9148 22.6458 16.6957 21.3125 16.6957C19.9792 16.6957 19.9792 17.9148 18.6458 17.9148C17.3124 17.9148 17.3124 16.6957 15.9789 16.6957C14.6456 16.6957 14.6456 17.9148 13.3124 17.9148C11.9793 17.9148 11.9793 16.6957 10.6459 16.6957C9.3125 16.6957 9.3125 17.9148 7.97906 17.9148C6.64563 17.9148 6.64563 16.6957 5.31219 16.6957C3.97906 16.6957 3.97906 17.9148 2.64575 17.9148C1.31963 17.9148 1.31194 16.7091 0 16.6963C0.0369375 17.4281 0.124312 18.1466 0.256437 18.8493C1.31919 19.0054 1.41225 20.0481 2.64587 20.0481C3.97919 20.0481 3.97919 18.8291 5.31231 18.8291C6.64575 18.8291 6.64575 20.0481 7.97919 20.0481C9.31262 20.0481 9.31263 18.8291 10.6461 18.8291C11.9794 18.8291 11.9794 20.0481 13.3125 20.0481C14.6458 20.0481 14.6458 18.8291 15.9791 18.8291C17.3125 18.8291 17.3125 20.0481 18.6459 20.0481C19.9794 20.0481 19.9794 18.8291 21.3126 18.8291C22.6459 18.8291 22.6459 20.0481 23.9792 20.0481C25.3125 20.0481 25.3125 18.8291 26.6458 18.8291C27.9792 18.8291 27.9792 20.0481 29.3124 20.0481C30.5461 20.0481 30.6392 19.0054 31.702 18.8493C31.8342 18.1466 31.9214 17.4281 31.9586 16.6963C30.6463 16.7092 30.6385 17.9148 29.3123 17.9148V17.9148Z" fill="var(--fill-0, #0052B4)"/>
<path id="Vector_2" d="M26.6455 20.8696C25.3122 20.8696 25.3122 22.0887 23.979 22.0887C22.6457 22.0887 22.6457 20.8696 21.3124 20.8696C19.9791 20.8696 19.9791 22.0887 18.6457 22.0887C17.3123 22.0887 17.3123 20.8696 15.9789 20.8696C14.6455 20.8696 14.6455 22.0887 13.3123 22.0887C11.9792 22.0887 11.9792 20.8696 10.6459 20.8696C9.31242 20.8696 9.31242 22.0887 7.97898 22.0887C6.64555 22.0887 6.64555 20.8696 5.31211 20.8696C3.97898 20.8696 3.97898 22.0887 2.64567 22.0887C1.66348 22.0887 1.40417 21.4276 0.802734 21.0793C1.16698 22.168 1.64542 23.2042 2.22323 24.1744C2.34836 24.2046 2.48748 24.222 2.64561 24.222C3.97892 24.222 3.97892 23.003 5.31205 23.003C6.64548 23.003 6.64548 24.222 7.97892 24.222C9.31236 24.222 9.31236 23.003 10.6458 23.003C11.9791 23.003 11.9791 24.222 13.3122 24.222C14.6455 24.222 14.6455 23.003 15.9788 23.003C17.3122 23.003 17.3122 24.222 18.6457 24.222C19.9791 24.222 19.9791 23.003 21.3124 23.003C22.6457 23.003 22.6457 24.222 23.9789 24.222C25.3122 24.222 25.3122 23.003 26.6455 23.003C27.9789 23.003 27.9789 24.222 29.3122 24.222C29.4704 24.222 29.6097 24.2046 29.7349 24.1744C30.3127 23.2042 30.7911 22.168 31.1553 21.0794C30.5539 21.4276 30.2945 22.0888 29.3122 22.0888C27.979 22.0887 27.979 20.8696 26.6455 20.8696V20.8696Z" fill="var(--fill-0, #0052B4)"/>
<path id="Vector_3" d="M31.6067 12.5588C30.6321 12.7611 30.5078 13.7409 29.3121 13.7409C27.9788 13.7409 27.9788 12.5217 26.6454 12.5217C25.3121 12.5217 25.3121 13.7409 23.9788 13.7409C22.6456 13.7409 22.6455 12.5217 21.3123 12.5217C19.979 12.5217 19.979 13.7409 18.6456 13.7409C17.3122 13.7409 17.3121 12.5217 15.9787 12.5217C15.2583 12.5217 14.927 12.8776 14.5645 13.2049V15.3382C14.927 15.011 15.2582 14.6552 15.9787 14.6552C17.3121 14.6552 17.3121 15.8742 18.6456 15.8742C19.979 15.8742 19.979 14.6552 21.3123 14.6552C22.6456 14.6552 22.6456 15.8742 23.9788 15.8742C25.3121 15.8742 25.3121 14.6552 26.6454 14.6552C27.9788 14.6552 27.9788 15.8742 29.3121 15.8742C30.5458 15.8742 30.6388 14.8315 31.7016 14.6754C31.7698 14.6754 31.8459 14.6747 31.9238 14.6738C31.8648 13.9542 31.7579 13.2482 31.6067 12.5588V12.5588Z" fill="var(--fill-0, #0052B4)"/>
<path id="Vector_4" d="M30.4379 9.14209C30.1616 9.37415 29.8422 9.5669 29.3121 9.5669C27.9788 9.5669 27.9788 8.34778 26.6454 8.34778C25.3121 8.34778 25.3121 9.5669 23.9788 9.5669C22.6456 9.5669 22.6455 8.34778 21.3123 8.34778C19.979 8.34778 19.979 9.5669 18.6456 9.5669C17.3122 9.5669 17.3121 8.34778 15.9787 8.34778C15.2583 8.34778 14.927 8.70365 14.5645 9.0309V11.1642C14.927 10.837 15.2582 10.4812 15.9787 10.4812C17.3121 10.4812 17.3121 11.7002 18.6456 11.7002C19.9789 11.7002 19.9789 10.4812 21.3122 10.4812C22.6455 10.4812 22.6455 11.7002 23.9788 11.7002C25.312 11.7002 25.312 10.4812 26.6453 10.4812C27.9788 10.4812 27.9788 11.7002 29.312 11.7002C30.2581 11.7002 30.5336 11.0874 31.0899 10.731C30.9003 10.1875 30.6826 9.65715 30.4379 9.14209V9.14209Z" fill="var(--fill-0, #0052B4)"/>
<path id="Vector_5" d="M26.7593 4.1772C26.7223 4.1752 26.6846 4.17395 26.6455 4.17395C25.3121 4.17395 25.3121 5.39308 23.9789 5.39308C22.6456 5.39308 22.6456 4.17395 21.3123 4.17395C19.979 4.17395 19.979 5.39308 18.6456 5.39308C17.3121 5.39308 17.3121 4.17395 15.9787 4.17395C15.2583 4.17395 14.927 4.52983 14.5645 4.85708V6.99039C14.927 6.6632 15.2582 6.30739 15.9787 6.30739C17.3121 6.30739 17.3121 7.52639 18.6456 7.52639C19.979 7.52639 19.979 6.30739 21.3123 6.30739C22.6456 6.30739 22.6456 7.52639 23.9788 7.52639C25.3121 7.52639 25.3121 6.30739 26.6454 6.30739C27.9788 6.30739 27.9788 7.52639 29.3121 7.52639C29.3942 7.52639 29.4709 7.52151 29.5435 7.51283C28.7691 6.27758 27.8313 5.15526 26.7593 4.1772V4.1772Z" fill="var(--fill-0, #0052B4)"/>
<path id="Vector_6" d="M15.9795 0H15.9785H15.9798H15.9795Z" fill="var(--fill-0, #0052B4)"/>
<path id="Vector_7" d="M20.069 0.528372C19.703 0.857622 19.3722 1.21925 18.646 1.21925C17.3126 1.21925 17.3126 0.00024707 15.9792 0.00012207H15.979C15.2895 0.00018457 14.9566 0.326247 14.6113 0.641185V2.77456C14.9565 2.45962 15.2895 2.1335 15.9792 2.1335C17.3126 2.1335 17.3126 3.3525 18.6461 3.3525C19.9795 3.3525 19.9795 2.1335 21.3128 2.1335C22.6461 2.1335 22.6461 3.3525 23.9793 3.3525C24.5388 3.3525 24.8633 3.13775 25.1503 2.88862C23.6293 1.82268 21.9144 1.01481 20.069 0.528372V0.528372Z" fill="var(--fill-0, #0052B4)"/>
<path id="Vector_8" d="M18.6457 30.4365C17.3123 30.4365 17.3123 29.2174 15.9789 29.2174C14.6455 29.2174 14.6455 30.4365 13.3123 30.4365C11.9792 30.4365 11.9792 29.2174 10.6459 29.2174C9.62454 29.2174 9.38498 29.932 8.72998 30.2669C10.5362 31.1865 12.5404 31.7727 14.6617 31.9456C14.9897 31.6459 15.323 31.3508 15.9789 31.3508C16.6349 31.3508 16.9682 31.6459 17.2963 31.9457C19.4176 31.7728 21.4219 31.1866 23.2282 30.2669C22.5731 29.9321 22.3336 29.2173 21.3124 29.2173C19.9792 29.2174 19.9792 30.4365 18.6457 30.4365V30.4365Z" fill="var(--fill-0, #0052B4)"/>
<path id="Vector_9" d="M23.9792 26.2626C22.6459 26.2626 22.6459 25.0435 21.3126 25.0435C19.9793 25.0435 19.9793 26.2626 18.6459 26.2626C17.3125 26.2626 17.3125 25.0435 15.9791 25.0435C14.6458 25.0435 14.6458 26.2626 13.3125 26.2626C11.9794 26.2626 11.9794 25.0435 10.6461 25.0435C9.31263 25.0435 9.31263 26.2626 7.9792 26.2626C6.64576 26.2626 6.64576 25.0435 5.31232 25.0435C4.35351 25.0435 4.08426 25.6741 3.5127 26.0282C3.87095 26.4731 4.25182 26.899 4.65488 27.3027C4.83545 27.2256 5.04732 27.1769 5.31226 27.1769C6.6457 27.1769 6.6457 28.3959 7.97913 28.3959C9.31257 28.3959 9.31257 27.1769 10.646 27.1769C11.9793 27.1769 11.9793 28.3959 13.3124 28.3959C14.6458 28.3959 14.6458 27.1769 15.979 27.1769C17.3124 27.1769 17.3124 28.3959 18.6459 28.3959C19.9793 28.3959 19.9793 27.1769 21.3126 27.1769C22.6458 27.1769 22.6459 28.3959 23.9791 28.3959C25.3124 28.3959 25.3124 27.1769 26.6457 27.1769C26.9109 27.1769 27.1228 27.2256 27.3035 27.3028C27.7066 26.899 28.0875 26.4731 28.4458 26.0283C27.8741 25.6743 27.6049 25.0436 26.6458 25.0436C25.3124 25.0435 25.3124 26.2626 23.9792 26.2626V26.2626Z" fill="var(--fill-0, #0052B4)"/>
</g>
</svg>
