<svg preserveAspectRatio="none" width="100%" height="100%" overflow="visible" style="display: block;" viewBox="0 0 26 26" fill="none" xmlns="http://www.w3.org/2000/svg">
<path id="Vector" d="M25.3872 22.4359L15.6451 12.6937L15.6451 12.6936L25.3872 2.95138C24.9671 2.40538 24.5075 1.88013 24.0074 1.37988C23.5072 0.87975 22.9819 0.420063 22.4359 0L12.6937 9.74219H12.6936L2.95144 0C2.40544 0.420125 1.88013 0.879688 1.37988 1.37988C0.87975 1.88013 0.420063 2.40537 0 2.95144L9.74219 12.6936L9.74225 12.6936L6.24657e-05 22.4359C0.420187 22.9818 0.879813 23.5071 1.37994 24.0074C1.88013 24.5075 2.40544 24.9672 2.9515 25.3872L12.6936 15.6451L22.4359 25.3872C22.9818 24.9671 23.5071 24.5075 24.0074 24.0074C24.5076 23.5071 24.9671 22.9818 25.3872 22.4359V22.4359Z" fill="var(--fill-0, #496E2D)"/>
</svg>
