<svg preserveAspectRatio="none" width="100%" height="100%" overflow="visible" style="display: block;" viewBox="0 0 48 24" fill="none" xmlns="http://www.w3.org/2000/svg">
<g id="Vector">
<mask id="path-1-inside-1_26_7750" fill="white">
<path d="M48 24C48 20.8483 47.3792 17.7274 46.1731 14.8156C44.967 11.9038 43.1992 9.25804 40.9706 7.02944C38.742 4.80083 36.0962 3.033 33.1844 1.82689C30.2726 0.620778 27.1517 -1.37766e-07 24 0C20.8483 1.37766e-07 17.7274 0.620779 14.8156 1.82689C11.9038 3.033 9.25804 4.80083 7.02944 7.02944C4.80083 9.25804 3.033 11.9038 1.82689 14.8156C0.620778 17.7274 -2.75532e-07 20.8483 0 24L24 24H48Z"/>
</mask>
<path d="M48 24C48 20.8483 47.3792 17.7274 46.1731 14.8156C44.967 11.9038 43.1992 9.25804 40.9706 7.02944C38.742 4.80083 36.0962 3.033 33.1844 1.82689C30.2726 0.620778 27.1517 -1.37766e-07 24 0C20.8483 1.37766e-07 17.7274 0.620779 14.8156 1.82689C11.9038 3.033 9.25804 4.80083 7.02944 7.02944C4.80083 9.25804 3.033 11.9038 1.82689 14.8156C0.620778 17.7274 -2.75532e-07 20.8483 0 24L24 24H48Z" stroke="var(--stroke-0, #5EEAD4)" stroke-width="24" mask="url(#path-1-inside-1_26_7750)"/>
</g>
</svg>
