<svg preserveAspectRatio="none" width="100%" height="100%" overflow="visible" style="display: block;" viewBox="0 0 32 32" fill="none" xmlns="http://www.w3.org/2000/svg">
<g id="Group">
<path id="Vector" d="M31.7258 13.7759C31.2844 10.4018 29.7688 7.14144 27.1766 4.54925C24.5844 1.95706 21.324 0.441375 17.9499 0L17.9499 13.7759H31.7258Z" fill="var(--fill-0, #0052B4)"/>
<path id="Vector_2" d="M13.7759 0C10.4018 0.441375 7.14138 1.957 4.54919 4.54919C1.95706 7.14144 0.441375 10.4019 0 13.7761L13.776 13.776L13.7759 0Z" fill="var(--fill-0, #0052B4)"/>
<path id="Vector_3" d="M0 17.9499C0.441375 21.324 1.95706 24.5845 4.54919 27.1767C7.14138 29.7688 10.4018 31.2844 13.776 31.726L13.7759 17.95L0 17.9499Z" fill="var(--fill-0, #0052B4)"/>
<path id="Vector_4" d="M17.9499 31.7258C21.3241 31.2844 24.5844 29.7688 27.1766 27.1766C29.7688 24.5844 31.2844 21.324 31.7258 17.9499H17.9499V31.7258Z" fill="var(--fill-0, #0052B4)"/>
</g>
</svg>
