<svg preserveAspectRatio="none" width="100%" height="100%" overflow="visible" style="display: block;" viewBox="0 0 32 32" fill="none" xmlns="http://www.w3.org/2000/svg">
<g id="Group">
<path id="Vector" d="M16 0C10.7655 0 6.11831 2.51394 3.19931 6.4H28.8007C25.8817 2.51394 21.2345 0 16 0Z" fill="var(--fill-0, #D80027)"/>
<path id="Vector_2" d="M16 32C21.2345 32 25.8817 29.4861 28.8007 25.6H3.19931C6.11831 29.4861 10.7655 32 16 32Z" fill="var(--fill-0, #D80027)"/>
<path id="Vector_3" d="M0 16C0 17.0959 0.1105 18.1661 0.320437 19.2H31.6797C31.8896 18.1661 32 17.0959 32 16C32 14.9041 31.8895 13.8339 31.6796 12.8H0.320437C0.1105 13.8339 0 14.9041 0 16H0Z" fill="var(--fill-0, #D80027)"/>
</g>
</svg>
