<svg preserveAspectRatio="none" width="100%" height="100%" overflow="visible" style="display: block;" viewBox="0 0 4 5" fill="none" xmlns="http://www.w3.org/2000/svg">
<path id="2" d="M0.03 4.542V3.822L1.23 2.586C1.466 2.342 1.644 2.15 1.764 2.01C1.888 1.866 1.972 1.746 2.016 1.65C2.064 1.554 2.088 1.46 2.088 1.368C2.088 1.204 2.034 1.076 1.926 0.984C1.822 0.888 1.69 0.84 1.53 0.84C1.366 0.84 1.22 0.888 1.092 0.984C0.964 1.076 0.87 1.218 0.81 1.41L0 1.146C0.048 0.914 0.148 0.712 0.3 0.54C0.452 0.368 0.636 0.236 0.852 0.144C1.068 0.048 1.294 0 1.53 0C1.826 0 2.086 0.052 2.31 0.156C2.534 0.26 2.708 0.406 2.832 0.594C2.956 0.782 3.018 1.002 3.018 1.254C3.018 1.414 2.99 1.572 2.934 1.728C2.878 1.88 2.792 2.036 2.676 2.196C2.564 2.352 2.418 2.522 2.238 2.706L1.212 3.762H3.06V4.542H0.03Z" fill="var(--fill-0, white)"/>
</svg>
