<svg preserveAspectRatio="none" width="100%" height="100%" overflow="visible" style="display: block;" viewBox="0 0 16 16" fill="none" xmlns="http://www.w3.org/2000/svg">
<g id="Group">
<path id="Vector" d="M9.28185 4.31804C8.91822 5.83047 8.27216 5.54204 7.9551 6.86104C6.08741 6.41197 4.93716 4.53385 5.38622 2.66604C5.8351 0.798348 7.71341 -0.351901 9.58116 0.0971615C8.94697 2.7351 9.60716 2.96535 9.28185 4.31804Z" fill="var(--fill-0, #F0F0F0)"/>
<path id="Vector_2" d="M4.43548 5.43879C5.76154 6.25192 5.28754 6.77735 6.44392 7.48654C5.43967 9.1241 3.29811 9.63754 1.66048 8.63335C0.022918 7.62917 -0.490645 5.48748 0.513605 3.84991C2.82648 5.26816 3.24929 4.71148 4.43548 5.43879V5.43879Z" fill="var(--fill-0, #F0F0F0)"/>
<path id="Vector_3" d="M4.00364 10.3946C5.18682 9.38469 5.53989 9.99781 6.5717 9.11719C7.81889 10.5783 7.64539 12.7737 6.18439 14.0209C4.72326 15.2681 2.52776 15.0944 1.28076 13.6335C3.34414 11.8721 2.94532 11.2977 4.00364 10.3946Z" fill="var(--fill-0, #F0F0F0)"/>
<path id="Vector_4" d="M8.58355 12.3366C7.98855 10.8993 8.6808 10.7528 8.16211 9.49945C9.93705 8.76489 11.9715 9.60827 12.7062 11.3832C13.4407 13.1581 12.5972 15.1926 10.8223 15.9272C9.78499 13.4204 9.11567 13.6222 8.58355 12.3366Z" fill="var(--fill-0, #F0F0F0)"/>
<path id="Vector_5" d="M11.8457 8.58103C10.2949 8.70271 10.3694 7.99896 9.01717 8.10509C8.86698 6.19015 10.2979 4.51571 12.2129 4.3654C14.1279 4.21546 15.8023 5.64621 15.9524 7.56134C13.2476 7.7734 13.2327 8.47234 11.8457 8.58103Z" fill="var(--fill-0, #F0F0F0)"/>
</g>
</svg>
