<svg preserveAspectRatio="none" width="100%" height="100%" overflow="visible" style="display: block;" viewBox="0 0 19 29" fill="none" xmlns="http://www.w3.org/2000/svg">
<g id="Group">
<path id="Vector" d="M13.9131 0L14.1722 0.797125H15.0103L14.3322 1.28981L14.5913 2.08694L13.9131 1.59431L13.235 2.08694L13.4941 1.28981L12.8159 0.797125H13.654L13.9131 0Z" fill="var(--fill-0, #FFDA44)"/>
<path id="Vector_2" d="M10.0332 1.52588e-05L10.2923 0.79714H11.1304L10.4523 1.28983L10.7114 2.08695L10.0332 1.59433L9.35522 2.08695L9.61422 1.28983L8.93604 0.79714H9.77416L10.0332 1.52588e-05Z" fill="var(--fill-0, #FFDA44)"/>
<path id="Vector_3" d="M17.793 1.52588e-05L18.052 0.79714H18.8902L18.2121 1.28983L18.4712 2.08695L17.793 1.59433L17.1149 2.08695L17.374 1.28983L16.6958 0.79714H17.5339L17.793 1.52588e-05Z" fill="var(--fill-0, #FFDA44)"/>
<path id="Vector_4" d="M13.9131 26.4348L14.1722 27.2319H15.0103L14.3322 27.7246L14.5913 28.5217L13.9131 28.029L13.235 28.5217L13.4941 27.7246L12.8159 27.2319H13.654L13.9131 26.4348Z" fill="var(--fill-0, #FFDA44)"/>
<path id="Vector_5" d="M10.0332 26.4348L10.2923 27.232H11.1304L10.4523 27.7246L10.7114 28.5218L10.0332 28.0291L9.35522 28.5218L9.61422 27.7246L8.93604 27.232H9.77416L10.0332 26.4348Z" fill="var(--fill-0, #FFDA44)"/>
<path id="Vector_6" d="M17.793 26.4348L18.052 27.232H18.8902L18.2121 27.7246L18.4712 28.5218L17.793 28.0291L17.1149 28.5218L17.374 27.7246L16.6958 27.232H17.5339L17.793 26.4348Z" fill="var(--fill-0, #FFDA44)"/>
<path id="Vector_7" d="M2.78827 13.9966C3.19921 14.6459 3.00609 15.5054 2.35677 15.9164C1.70752 16.3274 0.848024 16.1342 0.437024 15.4849C-0.307039 14.3094 0.124399 12.3896 0.124399 12.3896C0.124399 12.3896 2.04415 12.8211 2.78827 13.9966V13.9966Z" fill="var(--fill-0, #FFDA44)"/>
</g>
</svg>
