<svg preserveAspectRatio="none" width="100%" height="100%" overflow="visible" style="display: block;" viewBox="0 0 19 21" fill="none" xmlns="http://www.w3.org/2000/svg">
<path id="Vector" d="M16.875 1.5H15V1.125C15 0.826631 14.8815 0.540483 14.6705 0.329505C14.4595 0.118526 14.1734 0 13.875 0C13.5766 0 13.2905 0.118526 13.0795 0.329505C12.8685 0.540483 12.75 0.826631 12.75 1.125V1.5H6V1.125C6 0.826631 5.88147 0.540483 5.6705 0.329505C5.45952 0.118526 5.17337 0 4.875 0C4.57663 0 4.29048 0.118526 4.0795 0.329505C3.86853 0.540483 3.75 0.826631 3.75 1.125V1.5H1.875C1.37772 1.5 0.900806 1.69754 0.549175 2.04917C0.197544 2.40081 0 2.87772 0 3.375V18.375C0 18.8723 0.197544 19.3492 0.549175 19.7008C0.900806 20.0525 1.37772 20.25 1.875 20.25H16.875C17.3723 20.25 17.8492 20.0525 18.2008 19.7008C18.5525 19.3492 18.75 18.8723 18.75 18.375V3.375C18.75 2.87772 18.5525 2.40081 18.2008 2.04917C17.8492 1.69754 17.3723 1.5 16.875 1.5ZM3.75 3.75C3.75 4.04837 3.86853 4.33452 4.0795 4.5455C4.29048 4.75647 4.57663 4.875 4.875 4.875C5.17337 4.875 5.45952 4.75647 5.6705 4.5455C5.88147 4.33452 6 4.04837 6 3.75H12.75C12.75 4.04837 12.8685 4.33452 13.0795 4.5455C13.2905 4.75647 13.5766 4.875 13.875 4.875C14.1734 4.875 14.4595 4.75647 14.6705 4.5455C14.8815 4.33452 15 4.04837 15 3.75H16.5V6H2.25V3.75H3.75ZM2.25 18V8.25H16.5V18H2.25Z" fill="var(--fill-0, #1E293B)"/>
</svg>
