<svg preserveAspectRatio="none" width="100%" height="100%" overflow="visible" style="display: block;" viewBox="0 0 5 10" fill="none" xmlns="http://www.w3.org/2000/svg">
<path id="Vector" d="M2.78256 0C1.63 0 0.695624 0.934376 0.695624 2.08694C0.695624 2.99544 1.2765 3.76819 2.08694 4.05469V6.95656H0V9.73919H3.47825V4.05475C4.28869 3.76825 4.86956 2.99556 4.86956 2.087C4.8695 0.934437 3.93512 0 2.78256 0V0ZM2.78256 2.78263C2.39837 2.78263 2.08694 2.47112 2.08694 2.087C2.08694 1.70281 2.39837 1.39138 2.78256 1.39138C3.16675 1.39138 3.47819 1.70281 3.47819 2.087C3.47819 2.47112 3.16675 2.78263 2.78256 2.78263Z" fill="var(--fill-0, #FFDA44)"/>
</svg>
