<svg preserveAspectRatio="none" width="100%" height="100%" overflow="visible" style="display: block;" viewBox="0 0 110 28" fill="none" xmlns="http://www.w3.org/2000/svg">
<g id="pwrup">
<path d="M11.5823 0C16.4926 0 20.0535 4.38554 20.0535 10.5328C20.0535 16.6801 16.5301 21.1031 11.5823 21.1031C8.5087 21.1031 5.80991 19.1165 4.64793 16.3427V28H0V0.449798H4.64793V5.21017C5.58501 2.51138 7.90897 0 11.5823 0ZM9.89558 17.8046C13.3815 17.8046 15.2932 14.9933 15.2932 10.5328C15.2932 6.10977 13.3815 3.29853 9.89558 3.29853C6.44712 3.29853 4.49799 6.10977 4.49799 10.5328C4.49799 14.9933 6.44712 17.8046 9.89558 17.8046Z" fill="var(--fill-0, #1E293B)"/>
<path d="M44.4751 20.166L48.6732 0.449798H53.0587L48.7107 20.6533H40.2395L36.9409 0.899598L33.6424 20.6533H25.1712L20.8231 0.449798H25.2087L29.4068 20.166L32.7803 0.449798H41.1016L44.4751 20.166Z" fill="var(--fill-0, #1E293B)"/>
<path d="M59.7044 0.449798V5.36011C60.4915 2.32396 62.5156 0 66.4139 0V4.61044H65.1395C61.5036 4.61044 59.7419 5.80991 59.7419 9.33333V20.6533H55.0565V0.449798H59.7044Z" fill="var(--fill-0, #1E293B)"/>
<path d="M81.1656 12.1821V0.449798H85.851V20.6533H81.2031V16.6426C80.3035 19.0415 78.3919 21.1031 74.9059 21.1031C70.2955 21.1031 68.1214 17.6171 68.1214 13.1191V0.449798H72.8069V12.257C72.8069 16.0428 74.3437 17.7296 77.005 17.7296C79.6663 17.7296 81.1656 15.9679 81.1656 12.1821Z" fill="var(--fill-0, #1E293B)"/>
<path d="M101.306 0C106.217 0 109.778 4.38554 109.778 10.5328C109.778 16.6801 106.254 21.1031 101.306 21.1031C98.2328 21.1031 95.534 19.1165 94.372 16.3427V28H89.7241V0.449798H94.372V5.21017C95.3091 2.51138 97.6331 0 101.306 0ZM99.6197 17.8046C103.106 17.8046 105.017 14.9933 105.017 10.5328C105.017 6.10977 103.106 3.29853 99.6197 3.29853C96.1712 3.29853 94.2221 6.10977 94.2221 10.5328C94.2221 14.9933 96.1712 17.8046 99.6197 17.8046Z" fill="var(--fill-0, #1E293B)"/>
</g>
</svg>
