<svg preserveAspectRatio="none" width="100%" height="100%" overflow="visible" style="display: block;" viewBox="0 0 12 14" fill="none" xmlns="http://www.w3.org/2000/svg">
<g id="Group">
<path id="Vector" d="M0 0H2.22606V2.22606H0V0Z" fill="var(--fill-0, #D80027)"/>
<path id="Vector_2" d="M4.45213 0H6.67819V2.22606H4.45213V0Z" fill="var(--fill-0, #D80027)"/>
<path id="Vector_3" d="M8.9043 0H11.1304V2.22606H8.9043V0Z" fill="var(--fill-0, #D80027)"/>
<path id="Vector_4" d="M2.22606 2.22606H4.45212V4.45212H2.22606V2.22606Z" fill="var(--fill-0, #D80027)"/>
<path id="Vector_5" d="M6.67825 2.22606H8.90431V4.45212H6.67825V2.22606Z" fill="var(--fill-0, #D80027)"/>
<path id="Vector_6" d="M0 4.45144H2.22606V6.6775H0V4.45144Z" fill="var(--fill-0, #D80027)"/>
<path id="Vector_7" d="M2.22606 6.67756H4.45212V8.90363H2.22606V6.67756Z" fill="var(--fill-0, #D80027)"/>
<path id="Vector_8" d="M4.45213 4.45144H6.67819V6.6775H4.45213V4.45144Z" fill="var(--fill-0, #D80027)"/>
<path id="Vector_9" d="M8.9043 4.45144H11.1304V6.6775H8.9043V4.45144Z" fill="var(--fill-0, #D80027)"/>
<path id="Vector_10" d="M6.67825 6.67756H8.90431V8.90363H6.67825V6.67756Z" fill="var(--fill-0, #D80027)"/>
<path id="Vector_11" d="M4.45213 8.90363H6.67819V11.1297H4.45213V8.90363Z" fill="var(--fill-0, #D80027)"/>
<path id="Vector_12" d="M2.22599 8.90381H0.143555C0.334555 9.73131 0.710055 10.4885 1.22493 11.1299H2.22599V8.90381Z" fill="var(--fill-0, #D80027)"/>
<path id="Vector_13" d="M8.9043 11.1299H9.9053C10.4203 10.4886 10.7957 9.73131 10.9867 8.90388H8.9043V11.1299Z" fill="var(--fill-0, #D80027)"/>
<path id="Vector_14" d="M2.22606 11.1299V12.1012C2.8735 12.5884 3.63012 12.9377 4.45212 13.1054V11.1299H2.22606Z" fill="var(--fill-0, #D80027)"/>
<path id="Vector_15" d="M6.67825 11.1299V13.1054C7.50031 12.9379 8.25687 12.5884 8.90431 12.1012V11.1299H6.67825Z" fill="var(--fill-0, #D80027)"/>
</g>
</svg>
