<svg preserveAspectRatio="none" width="100%" height="100%" overflow="visible" style="display: block;" viewBox="0 0 13 6" fill="none" xmlns="http://www.w3.org/2000/svg">
<g id="Group">
<path id="Vector" d="M10.8986 0V3.24631C10.8986 3.75787 10.4825 4.17387 9.97107 4.17387V5.56519C11.2497 5.56519 12.2899 4.525 12.2899 3.24631V0H10.8986Z" fill="var(--fill-0, #F0F0F0)"/>
<path id="Vector_2" d="M0.927563 3.24631C0.927563 3.75787 0.5115 4.17387 0 4.17387V5.56519C1.27869 5.56519 2.31888 4.525 2.31888 3.24631V0H0.927563V3.24631Z" fill="var(--fill-0, #F0F0F0)"/>
<path id="Vector_3" d="M8.81137 0H10.2027V3.24631H8.81137V0Z" fill="var(--fill-0, #F0F0F0)"/>
<path id="Vector_4" d="M6.72462 1.855C6.72462 1.98287 6.62056 2.08694 6.49275 2.08694C6.36487 2.08694 6.26081 1.98287 6.26081 1.855V0H4.8695V1.855C4.8695 1.98287 4.7655 2.08694 4.63762 2.08694C4.50975 2.08694 4.40575 1.98287 4.40575 1.855V0H3.01443V1.855C3.01443 2.75012 3.74256 3.47825 4.63762 3.47825C4.98231 3.47825 5.30206 3.36994 5.56512 3.186C5.82831 3.36994 6.148 3.47825 6.49268 3.47825C6.56212 3.47825 6.63037 3.47338 6.6975 3.46481C6.59887 3.871 6.23306 4.17387 5.79706 4.17387V5.56519C7.07569 5.56519 8.11587 4.525 8.11587 3.24631V1.855V0H6.72456L6.72462 1.855Z" fill="var(--fill-0, #F0F0F0)"/>
<path id="Vector_5" d="M3.0145 4.17393H5.10143V5.56525H3.0145V4.17393Z" fill="var(--fill-0, #F0F0F0)"/>
</g>
</svg>
