<svg preserveAspectRatio="none" width="100%" height="100%" overflow="visible" style="display: block;" viewBox="0 0 32 29" fill="none" xmlns="http://www.w3.org/2000/svg">
<g id="Group">
<path id="Vector" d="M32 14.4124C32 8.06901 28.3085 2.58802 22.9565 1.52588e-05V28.8247C28.3085 26.2368 32 20.7558 32 14.4124V14.4124Z" fill="var(--fill-0, #D80027)"/>
<path id="Vector_2" d="M0 14.4124C0 20.7557 3.69156 26.2367 9.0435 28.8247V0C3.69156 2.588 0 8.069 0 14.4124Z" fill="var(--fill-0, #D80027)"/>
<path id="Vector_3" d="M18.7824 16.4993L21.5649 15.108L20.1737 14.4124V13.0211L17.3911 14.4124L18.7824 11.6298H17.3911L15.9998 9.54285L14.6084 11.6298H13.2171L14.6084 14.4124L11.8258 13.0211V14.4124L10.4346 15.108L13.2171 16.4993L12.5215 17.8907H15.3041V19.9776H16.6954V17.8907H19.478L18.7824 16.4993Z" fill="var(--fill-0, #D80027)"/>
</g>
</svg>
