<svg preserveAspectRatio="none" width="100%" height="100%" overflow="visible" style="display: block;" viewBox="0 0 20 20" fill="none" xmlns="http://www.w3.org/2000/svg">
<g id="more">
<path id="Vector" d="M4.16699 9.08333C4.6693 9.08351 5.08301 9.49798 5.08301 10.0003C5.08283 10.5025 4.66919 10.9162 4.16699 10.9163C3.66465 10.9163 3.25018 10.5026 3.25 10.0003C3.25 9.49787 3.66454 9.08333 4.16699 9.08333Z" fill="var(--fill-0, #9099AF)" stroke="var(--stroke-0, #9099AF)" stroke-width="1.5"/>
<path id="Vector_2" d="M15.8337 9.08333C16.336 9.08351 16.7497 9.49798 16.7497 10.0003C16.7495 10.5025 16.3359 10.9162 15.8337 10.9163C15.3313 10.9163 14.9168 10.5026 14.9167 10.0003C14.9167 9.49787 15.3312 9.08333 15.8337 9.08333Z" fill="var(--fill-0, #9099AF)" stroke="var(--stroke-0, #9099AF)" stroke-width="1.5"/>
<path id="Vector_3" d="M10.0003 9.08333C10.5026 9.08351 10.9163 9.49798 10.9163 10.0003C10.9162 10.5025 10.5025 10.9162 10.0003 10.9163C9.49798 10.9163 9.08351 10.5026 9.08333 10.0003C9.08333 9.49787 9.49787 9.08333 10.0003 9.08333Z" fill="var(--fill-0, #9099AF)" stroke="var(--stroke-0, #9099AF)" stroke-width="1.5"/>
<g id="Vector_4" opacity="0">
</g>
</g>
</svg>
