<svg preserveAspectRatio="none" width="100%" height="100%" overflow="visible" style="display: block;" viewBox="0 0 13 13" fill="none" xmlns="http://www.w3.org/2000/svg">
<path id="Vector" d="M6.25 0.03125C6.44062 0.03125 6.62302 0.107396 6.75781 0.242188C6.8926 0.376979 6.96875 0.559376 6.96875 0.75V5.53125H11.75C11.9406 5.53125 12.123 5.6074 12.2578 5.74219C12.3926 5.87698 12.4688 6.05938 12.4688 6.25C12.4688 6.44062 12.3926 6.62302 12.2578 6.75781C12.123 6.8926 11.9406 6.96875 11.75 6.96875H6.96875V11.75C6.96875 11.9406 6.8926 12.123 6.75781 12.2578C6.62302 12.3926 6.44062 12.4688 6.25 12.4688C6.05938 12.4688 5.87698 12.3926 5.74219 12.2578C5.6074 12.123 5.53125 11.9406 5.53125 11.75V6.96875H0.75C0.559376 6.96875 0.376979 6.8926 0.242188 6.75781C0.107396 6.62302 0.03125 6.44062 0.03125 6.25C0.03125 6.05938 0.107396 5.87698 0.242188 5.74219C0.376979 5.6074 0.559376 5.53125 0.75 5.53125H5.53125V0.75C5.53125 0.559376 5.6074 0.376979 5.74219 0.242188C5.87698 0.107396 6.05938 0.03125 6.25 0.03125Z" fill="var(--fill-0, #4338CA)" stroke="var(--stroke-0, #4338CA)" stroke-width="0.0625"/>
</svg>
