<svg preserveAspectRatio="none" width="100%" height="100%" overflow="visible" style="display: block;" viewBox="0 0 18 19" fill="none" xmlns="http://www.w3.org/2000/svg">
<path id="Star 1" d="M8.93984 1.34184C9.16553 1.14578 9.50114 1.14578 9.72683 1.34184L11.2529 2.66756C11.3756 2.77422 11.5364 2.82647 11.6985 2.81235L13.7123 2.63679C14.0101 2.61083 14.2816 2.80809 14.349 3.09937L14.8043 5.06888C14.8409 5.22733 14.9403 5.36412 15.0797 5.44793L16.8121 6.48959C17.0683 6.64365 17.172 6.96283 17.0553 7.23806L16.266 9.09907C16.2025 9.24879 16.2025 9.41788 16.266 9.5676L17.0553 11.4286C17.172 11.7038 17.0683 12.023 16.8121 12.1771L15.0797 13.2187C14.9403 13.3025 14.8409 13.4393 14.8043 13.5978L14.349 15.5673C14.2816 15.8586 14.0101 16.0558 13.7123 16.0299L11.6985 15.8543C11.5364 15.8402 11.3756 15.8924 11.2529 15.9991L9.72683 17.3248C9.50113 17.5209 9.16553 17.5209 8.93984 17.3248L7.41382 15.9991C7.29104 15.8924 7.13023 15.8402 6.96821 15.8543L4.9544 16.0299C4.65656 16.0558 4.38505 15.8586 4.31771 15.5673L3.86237 13.5978C3.82574 13.4393 3.72635 13.3025 3.58697 13.2187L1.85457 12.1771C1.59836 12.023 1.49465 11.7038 1.61138 11.4286L2.40065 9.5676C2.46414 9.41788 2.46414 9.24879 2.40065 9.09907L1.61138 7.23806C1.49465 6.96283 1.59836 6.64365 1.85457 6.48959L3.58697 5.44793C3.72635 5.36412 3.82574 5.22733 3.86237 5.06888L4.31771 3.09937C4.38505 2.80809 4.65656 2.61083 4.9544 2.63679L6.96821 2.81235C7.13023 2.82647 7.29104 2.77422 7.41382 2.66756L8.93984 1.34184Z" stroke="var(--stroke-0, #9099AF)" stroke-width="1.5"/>
</svg>
