<svg preserveAspectRatio="none" width="100%" height="100%" overflow="visible" style="display: block;" viewBox="0 0 20 10" fill="none" xmlns="http://www.w3.org/2000/svg">
<path id="Vector" d="M14.6087 0V1.39131H16.5182C15.7213 2.49881 14.6599 3.40294 13.4266 4.01175C13.1102 3.68306 12.6661 3.47825 12.1739 3.47825C11.3442 3.47825 10.6507 4.05944 10.477 4.83688C10.2339 4.85825 9.98781 4.86956 9.73912 4.86956C9.49044 4.86956 9.24437 4.85813 9.00125 4.83688C8.82756 4.0595 8.13406 3.47825 7.30438 3.47825C6.81219 3.47825 6.36812 3.68306 6.05162 4.01175C4.81837 3.403 3.757 2.49875 2.96012 1.39131H4.86956V0H0C0 5.37869 4.36044 9.73912 9.73912 9.73912C15.1179 9.73912 19.4782 5.37869 19.4782 0H14.6087Z" fill="var(--fill-0, #D80027)"/>
</svg>
