<svg preserveAspectRatio="none" width="100%" height="100%" overflow="visible" style="display: block;" viewBox="0 0 7 10" fill="none" xmlns="http://www.w3.org/2000/svg">
<g id="Group">
<path id="Vector" d="M2.087 4.86956C2.087 2.53844 3.72531 0.591001 5.91306 0.113251C5.57681 0.0398132 5.22794 0 4.86956 0C2.18012 0 0 2.18013 0 4.86956C0 7.559 2.18012 9.73913 4.86956 9.73913C5.22787 9.73913 5.57675 9.69931 5.91306 9.62587C3.72531 9.14806 2.087 7.20069 2.087 4.86956V4.86956Z" fill="var(--fill-0, #F0F0F0)"/>
<path id="Vector_2" d="M5.85939 0.695625L6.11846 1.49275H6.95658L6.27846 1.98544L6.53752 2.78256L5.85939 2.28994L5.18127 2.78256L5.44033 1.98544L4.76221 1.49275H5.60033L5.85939 0.695625Z" fill="var(--fill-0, #F0F0F0)"/>
<path id="Vector_3" d="M5.85939 2.78256L6.11846 3.57975H6.95658L6.27846 4.07237L6.53752 4.86956L5.85939 4.37687L5.18127 4.86956L5.44033 4.07237L4.76221 3.57975H5.60033L5.85939 2.78256Z" fill="var(--fill-0, #F0F0F0)"/>
<path id="Vector_4" d="M5.85939 4.86956L6.11846 5.66669H6.95658L6.27846 6.15938L6.53752 6.9565L5.85939 6.46381L5.18127 6.9565L5.44033 6.15938L4.76221 5.66669H5.60033L5.85939 4.86956Z" fill="var(--fill-0, #F0F0F0)"/>
<path id="Vector_5" d="M5.85939 6.9565L6.11846 7.75363H6.95658L6.27846 8.24631L6.53752 9.04344L5.85939 8.55081L5.18127 9.04344L5.44033 8.24631L4.76221 7.75363H5.60033L5.85939 6.9565Z" fill="var(--fill-0, #F0F0F0)"/>
</g>
</svg>
