<svg preserveAspectRatio="none" width="100%" height="100%" overflow="visible" style="display: block;" viewBox="0 0 12 12" fill="none" xmlns="http://www.w3.org/2000/svg">
<g id="Group">
<path id="Vector" d="M2.78081 5.21738C1.81306 5.21738 0.879125 5.36456 0 5.63769C0.0389375 8.67769 2.51419 11.1304 5.56344 11.1304C7.44894 11.1304 9.11419 10.1919 10.1209 8.75744C8.39856 6.60138 5.7485 5.21738 2.78081 5.21738V5.21738Z" fill="var(--fill-0, #0052B4)"/>
<path id="Vector_2" d="M11.0253 6.63144C11.0923 6.28619 11.1285 5.93 11.1285 5.56519C11.1285 2.49156 8.63691 0 5.56334 0C3.26997 0 1.30122 1.38756 0.449219 3.36869C1.20234 3.21263 1.98209 3.13044 2.78078 3.13044C6.01309 3.13038 8.93722 4.474 11.0253 6.63144V6.63144Z" fill="var(--fill-0, #0052B4)"/>
</g>
</svg>
