<svg preserveAspectRatio="none" width="100%" height="100%" overflow="visible" style="display: block;" viewBox="0 0 12 10" fill="none" xmlns="http://www.w3.org/2000/svg">
<g id="Group">
<path id="Vector" d="M5.56519 7.35401C2.90106 7.35401 0.675437 5.48164 0.129375 2.98132C0.0454995 3.3657 0 3.76426 0 4.17389C0 7.24757 2.49156 9.73907 5.56519 9.73907C8.63881 9.73907 11.1304 7.24751 11.1304 4.17389C11.1304 3.76426 11.0849 3.3657 11.001 2.98126C10.4549 5.4817 8.22931 7.35401 5.56519 7.35401Z" fill="var(--fill-0, #FFDA44)"/>
<path id="Vector_2" d="M5.56513 0L6.08313 1.59431H7.75957L6.40338 2.57962L6.92138 4.17394L5.56513 3.18856L4.20894 4.17394L4.72701 2.57962L3.37082 1.59431H5.04713L5.56513 0Z" fill="var(--fill-0, #FFDA44)"/>
</g>
</svg>
