<svg preserveAspectRatio="none" width="100%" height="100%" overflow="visible" style="display: block;" viewBox="0 0 60 22" fill="none" xmlns="http://www.w3.org/2000/svg">
<g id="Group">
<path id="Vector" d="M0.0999985 16.9C-1.52737e-06 16.8 0 16.8 0 16.7C0.1 16.7 0.0999985 16.8 0.0999985 16.9Z" fill="url(#paint0_linear_26_8418)"/>
<path id="Vector_2" d="M0.0999985 16.9C-1.52737e-06 16.8 0 16.8 0 16.7C0.1 16.7 0.0999985 16.8 0.0999985 16.9ZM56 1.1H54.7V0.8C54.7 0.4 54.4 0 53.9 0C53.5 0 53.1 0.3 53.1 0.8V1.1H45.7V0.8C45.7 0.4 45.4 0 44.9 0C44.5 0 44.1 0.3 44.1 0.8V1.1H42.8C41.4 1.1 40.3 2.2 40.3 3.6V16.7C40.3 18.1 41.4 19.2 42.8 19.2H45.7C46.1 19.2 46.5 18.9 46.5 18.4C46.5 18 46.2 17.6 45.7 17.6H42.8C42.2 17.6 41.8 17.1 41.8 16.6V6.8C41.8 6.5 42.2 6.1 42.8 6.1H56C56.6 6.1 57 6.5 57 6.8V8.6C57 9 57.3 9.4 57.8 9.4C58.2 9.4 58.6 9.1 58.6 8.6V3.6C58.5 2.2 57.4 1.1 56 1.1V1.1ZM57 4.8C56.7 4.7 56.3 4.6 56 4.6H42.8C42.4 4.6 42.1 4.7 41.8 4.8V3.6C41.8 3 42.3 2.6 42.8 2.6H44.1V3.1C44.1 3.5 44.4 3.9 44.9 3.9C45.3 3.9 45.7 3.6 45.7 3.1V2.6H53.2V3.1C53.2 3.5 53.5 3.9 54 3.9C54.4 3.9 54.8 3.6 54.8 3.1V2.6H56C56.6 2.6 57 3.1 57 3.6V4.8Z" fill="url(#paint1_linear_26_8418)"/>
<path id="Vector_3" d="M53.5 9.3C50.1 9.3 47.3 12.1 47.3 15.5C47.3 18.9 50.1 21.7 53.5 21.7C56.9 21.7 59.7 18.9 59.7 15.5C59.7 12.1 56.9 9.3 53.5 9.3V9.3ZM53.5 20.3C50.9 20.3 48.8 18.2 48.8 15.6C48.8 13 50.9 10.9 53.5 10.9C56.1 10.9 58.2 13 58.2 15.6C58.2 18.1 56.1 20.3 53.5 20.3Z" fill="url(#paint2_linear_26_8418)"/>
<path id="Vector_4" d="M56.9 17.6C56.8 17.8 56.5 18 56.3 18C56.2 18 56 18 55.9 17.9L52.8 15.9V12.9C52.8 12.5 53.1 12.1 53.6 12.1C54 12.1 54.4 12.4 54.4 12.9V15.1L56.8 16.6C57 16.8 57.1 17.2 56.9 17.6V17.6Z" fill="url(#paint3_linear_26_8418)"/>
</g>
<defs>
<linearGradient id="paint0_linear_26_8418" x1="0.0499992" y1="16.7" x2="0.0499992" y2="16.9" gradientUnits="userSpaceOnUse">
<stop stop-color="#E69AFF"/>
<stop offset="0.546875" stop-color="#FF4BC9"/>
<stop offset="1" stop-color="#FF5F5F"/>
</linearGradient>
<linearGradient id="paint1_linear_26_8418" x1="29.3" y1="0" x2="29.3" y2="19.2" gradientUnits="userSpaceOnUse">
<stop stop-color="#E69AFF"/>
<stop offset="0.546875" stop-color="#FF4BC9"/>
<stop offset="1" stop-color="#FF5F5F"/>
</linearGradient>
<linearGradient id="paint2_linear_26_8418" x1="53.5" y1="9.3" x2="53.5" y2="21.7" gradientUnits="userSpaceOnUse">
<stop stop-color="#E69AFF"/>
<stop offset="0.546875" stop-color="#FF4BC9"/>
<stop offset="1" stop-color="#FF5F5F"/>
</linearGradient>
<linearGradient id="paint3_linear_26_8418" x1="54.9045" y1="12.1" x2="54.9045" y2="18" gradientUnits="userSpaceOnUse">
<stop stop-color="#E69AFF"/>
<stop offset="0.546875" stop-color="#FF4BC9"/>
<stop offset="1" stop-color="#FF5F5F"/>
</linearGradient>
</defs>
</svg>
