<svg preserveAspectRatio="none" width="100%" height="100%" overflow="visible" style="display: block;" viewBox="0 0 103 28" fill="none" xmlns="http://www.w3.org/2000/svg">
<g id="planetX">
<path d="M4.5041 15.75C4.5041 18.1598 5.53689 19.9385 7.65984 19.9385C9.66803 19.9385 10.8156 18.2172 10.8156 14.918C10.8156 11.6762 9.81148 10.0123 7.63115 10.0123C5.82377 10.0123 4.5041 11.5328 4.5041 14.0861V15.75ZM0 28V7.22951H4.38934V9.72541H4.44672C5.16393 8.34836 6.79918 6.88525 9.29508 6.88525C12.8525 6.88525 15.4631 9.18033 15.4631 14.8607C15.4631 19.9959 12.8525 22.9795 8.86475 22.9795C6.65574 22.9795 5.27869 21.8893 4.64754 20.6844H4.56148V28H0Z" fill="var(--fill-0, #1E293B)"/>
<path d="M17.2591 22.6066V0H21.8205V22.6066H17.2591Z" fill="var(--fill-0, #1E293B)"/>
<path d="M29.9658 19.9098C31.5437 19.9098 33.0068 18.6762 33.0068 16.123V15.6352C30.597 15.7787 29.3921 15.9795 28.6749 16.4672C28.1585 16.8115 27.929 17.3852 27.929 18.0164C27.929 19.1352 28.7035 19.9098 29.9658 19.9098ZM28.4453 11.791H24.0847C24.2568 8.72131 26.6953 6.88525 30.7117 6.88525C35.6749 6.88525 37.3962 8.92213 37.3962 13.0246V18.332C37.3962 19.1639 37.6544 19.4795 38.6298 19.4795V22.6352H37.1093C34.9003 22.6352 33.8388 22.2049 33.3511 20.5123H33.2937C32.3183 21.9467 30.8265 22.7787 28.6462 22.7787C25.433 22.7787 23.4249 21.0861 23.4249 18.2172C23.4249 16.4385 24.2281 15.1762 25.7486 14.373C27.3839 13.5123 29.7076 13.3689 32.9781 13.2254V12.3934C32.9781 10.7008 32.2609 9.81148 30.7117 9.81148C29.2199 9.81148 28.5027 10.6434 28.4453 11.791Z" fill="var(--fill-0, #1E293B)"/>
<path d="M50.2769 22.6066V13.627C50.2769 12.5369 50.2195 11.6475 49.8178 11.0738C49.3875 10.4713 48.699 10.1844 47.8383 10.1844C45.8015 10.1844 44.74 11.4754 44.74 13.7131V22.6066H40.1785V7.22951H44.5678V9.7541H44.6252C45.4572 8.20492 46.9777 6.91393 49.617 6.91393C53.3178 6.91393 54.8383 8.83607 54.8383 12.6229V22.6066H50.2769Z" fill="var(--fill-0, #1E293B)"/>
<path d="M66.9341 13.3689V13.168C66.7907 10.9877 65.93 9.69672 64.2087 9.69672C62.344 9.69672 61.3686 11.0164 61.1391 13.3689H66.9341ZM71.4382 18.1311C70.9792 21.1148 68.3112 23.0082 64.1513 23.0082C59.1882 23.0082 56.5489 19.8238 56.5489 14.8893C56.5489 10.1844 59.3604 6.85656 64.2087 6.85656C69.4014 6.85656 71.5817 10.2705 71.5817 14.7746V15.9795H61.1391C61.3399 18.7336 62.3727 19.9385 64.2948 19.9385C66.1022 19.9385 66.6759 19.0492 66.9628 18.1311H71.4382Z" fill="var(--fill-0, #1E293B)"/>
<path d="M74.815 2.89754H78.7166V7.22951H82.1592V10.3852H78.774V17.1844C78.774 18.7336 79.3478 19.4221 80.8969 19.4221C81.442 19.4221 82.1879 19.3074 82.1879 19.3074V22.6352C81.5855 22.6926 80.4379 22.8074 79.1469 22.8074C76.1346 22.8074 74.2699 21.5164 74.2699 18.0451V10.3852H72.0035V7.2582H72.5199C74.4707 7.2582 74.815 6.85656 74.815 4.07377V2.89754Z" fill="var(--fill-0, #1E293B)"/>
<path d="M82.4853 22.6066L89.7722 11.2746L83.0017 0.659836H88.4239L92.6411 7.65984H92.6698L97.0017 0.659836H101.936L95.137 11.1025L102.596 22.6066H97.0304L92.2394 14.7459H92.1821L87.3911 22.6066H82.4853Z" fill="var(--fill-0, #1E293B)"/>
</g>
</svg>
