<svg preserveAspectRatio="none" width="100%" height="100%" overflow="visible" style="display: block;" viewBox="0 0 21 9" fill="none" xmlns="http://www.w3.org/2000/svg">
<g id="Group">
<path id="Vector" d="M6.60875 3.13044C6.6 3.13044 6.59144 3.131 6.58269 3.13113V3.13044H3.52413C3.67919 2.53131 4.22281 2.08694 4.86963 2.08694V0C2.95169 0 1.39138 1.56038 1.39138 3.47825V5.18263V5.21744H6.58269H6.60875C6.80056 5.21744 6.95656 5.3735 6.95656 5.56525V6.26087H0V8.34781H9.0435V5.56519C9.0435 4.22269 7.95125 3.13044 6.60875 3.13044V3.13044Z" fill="var(--fill-0, #496E2D)"/>
<path id="Vector_2" d="M11.8262 6.26087V0H9.73926V8.34787H13.2175V6.26087H11.8262Z" fill="var(--fill-0, #496E2D)"/>
<path id="Vector_3" d="M18.7826 6.26094V0H16.6957V6.26094H16V4.174H13.9131V8.34794H20.174V6.26094H18.7826Z" fill="var(--fill-0, #496E2D)"/>
</g>
</svg>
