<svg preserveAspectRatio="none" width="100%" height="100%" overflow="visible" style="display: block;" viewBox="0 0 13 10" fill="none" xmlns="http://www.w3.org/2000/svg">
<g id="Group">
<path id="Vector" d="M11.7799 4.96639H7.60598C7.60598 4.19801 6.98304 3.57507 6.21466 3.57507C5.44629 3.57507 4.82335 4.19801 4.82335 4.96639H0.649414C0.649414 5.73482 1.31873 6.3577 2.08704 6.3577H2.04073C2.04073 7.12613 2.66354 7.74901 3.43204 7.74901C3.43204 8.51745 4.05485 9.14032 4.82335 9.14032H7.60598C8.37435 9.14032 8.99729 8.51745 8.99729 7.74901C9.76566 7.74901 10.3886 7.12613 10.3886 6.3577H10.3423C11.1106 6.3577 11.7799 5.73482 11.7799 4.96639V4.96639Z" fill="var(--fill-0, #FFDA44)"/>
<path id="Vector_2" d="M12.3514 2.73997L11.9862 3.32478L12.4292 3.85278L11.7602 3.68622L11.3949 4.27078L11.3467 3.58297L10.6777 3.41616L11.3172 3.15791L11.269 2.47009L11.7122 2.99834L12.3514 2.73997Z" fill="var(--fill-0, #FFDA44)"/>
<path id="Vector_3" d="M10.2203 0.951508L10.0771 1.62595L10.6742 1.97063L9.98841 2.04301L9.84509 2.71726L9.56459 2.08738L8.87891 2.15938L9.39134 1.69801L9.11097 1.06826L9.70797 1.41294L10.2203 0.951508Z" fill="var(--fill-0, #FFDA44)"/>
<path id="Vector_4" d="M7.60571 0L7.70165 0.682813L8.38059 0.8025L7.76097 1.10475L7.8569 1.78756L7.37803 1.29156L6.75828 1.59381L7.08196 0.985L6.60303 0.489125L7.28209 0.60875L7.60571 0Z" fill="var(--fill-0, #FFDA44)"/>
<path id="Vector_5" d="M4.8237 0L5.14745 0.60875L5.82639 0.489062L5.34745 0.985125L5.67114 1.59387L5.05152 1.29156L4.57252 1.78744L4.66852 1.10475L4.04883 0.802563L4.72777 0.682813L4.8237 0Z" fill="var(--fill-0, #FFDA44)"/>
<path id="Vector_6" d="M2.20904 0.951508L2.72142 1.41294L3.31842 1.06826L3.03817 1.69826L3.55036 2.15944L2.86479 2.08738L2.58423 2.71726L2.44111 2.04288L1.75536 1.97088L2.35236 1.62601L2.20904 0.951508Z" fill="var(--fill-0, #FFDA44)"/>
<path id="Vector_7" d="M0.0776877 2.73994L0.717125 2.99831L1.16006 2.47012L1.11219 3.15806L1.75138 3.41637L1.08231 3.583L1.03406 4.27075L0.669 3.68619L0 3.85287L0.443188 3.32475L0.0776877 2.73994Z" fill="var(--fill-0, #FFDA44)"/>
</g>
</svg>
