<svg preserveAspectRatio="none" width="100%" height="100%" overflow="visible" style="display: block;" viewBox="0 0 28 22" fill="none" xmlns="http://www.w3.org/2000/svg">
<g id="Group">
<path id="Vector" d="M6.00775 0C3.50531 1.42494 1.42494 3.50531 0 6.00775V13.9131H4.17394V4.17406V4.17394H13.9131C13.9131 2.8575 13.9131 1.60337 13.9131 0H6.00775Z" fill="var(--fill-0, #D80027)"/>
<path id="Vector_2" d="M13.9131 11.9455L8.2285 6.26094C8.2285 6.26094 6.26094 6.26107 6.26094 6.26094V6.26107L13.913 13.9131H13.9131C13.9131 13.9131 13.9131 12.5564 13.9131 11.9455Z" fill="var(--fill-0, #D80027)"/>
<path id="Vector_3" d="M25.6212 9.78549L25.9665 10.8484H27.0841L26.1799 11.5052L26.5253 12.5681L25.6212 11.9112L24.717 12.5681L25.0624 11.5052L24.1582 10.8484H25.2758L25.6212 9.78549Z" fill="var(--fill-0, #D80027)"/>
<path id="Vector_4" d="M21.6262 17.4376L22.1443 19.032H23.8206L22.4644 20.0172L22.9825 21.6116L21.6262 20.6262L20.27 21.6116L20.7881 20.0172L19.4319 19.032H21.1082L21.6262 17.4376Z" fill="var(--fill-0, #D80027)"/>
<path id="Vector_5" d="M21.7771 4.91594L22.2089 6.24463H23.6058L22.4756 7.06556L22.9073 8.39419L21.7771 7.573L20.647 8.39419L21.0787 7.06556L19.9486 6.24463H21.3454L21.7771 4.91594Z" fill="var(--fill-0, #D80027)"/>
<path id="Vector_6" d="M17.9331 9.73911L18.4511 11.3335H20.1275L18.7712 12.3187L19.2894 13.913L17.9331 12.9277L16.5769 13.913L17.095 12.3187L15.7387 11.3335H17.4151L17.9331 9.73911Z" fill="var(--fill-0, #D80027)"/>
</g>
</svg>
