<svg preserveAspectRatio="none" width="100%" height="100%" overflow="visible" style="display: block;" viewBox="0 0 10 10" fill="none" xmlns="http://www.w3.org/2000/svg">
<g id="Group">
<path id="Vector" d="M4.86981 0L5.47225 1.0435H6.67719L6.07469 2.08694L6.67719 3.13044H5.47225L4.86981 4.17394L4.26737 3.13044H3.0625L3.66494 2.08694L3.0625 1.0435H4.26737L4.86981 0Z" fill="var(--fill-0, #D80027)"/>
<path id="Vector_2" d="M1.80737 4.86956L2.40981 5.91306H3.61469L3.01225 6.9565L3.61469 8H2.40981L1.80737 9.0435L1.20487 8H0L0.602437 6.9565L0 5.91306H1.20487L1.80737 4.86956Z" fill="var(--fill-0, #D80027)"/>
<path id="Vector_3" d="M7.93189 4.86957L8.53432 5.91307H9.7392L9.13676 6.9565L9.7392 8.00001H8.53432L7.93189 9.0435L7.32939 8.00001H6.12451L6.72695 6.9565L6.12451 5.91307H7.32939L7.93189 4.86957Z" fill="var(--fill-0, #D80027)"/>
</g>
</svg>
