<svg preserveAspectRatio="none" width="100%" height="100%" overflow="visible" style="display: block;" viewBox="0 0 12 12" fill="none" xmlns="http://www.w3.org/2000/svg">
<g id="Group">
<path id="Vector" d="M9.4144 2.49628L8.10165 4.30534L5.97559 3.61584L7.29046 5.42334L5.97784 7.2324L8.10309 6.54046L9.41796 8.3479L9.41659 6.11284L11.5419 5.42084L9.4159 4.73146L9.4144 2.49628Z" fill="var(--fill-0, #D80027)"/>
<path id="Vector_2" d="M7.30431 10.087C4.80706 10.087 2.78256 8.0625 2.78256 5.56525C2.78256 3.068 4.80706 1.0435 7.30431 1.0435C8.08294 1.0435 8.81563 1.24038 9.45525 1.587C8.45175 0.605688 7.0795 0 5.56519 0C2.49156 0 0 2.49163 0 5.56519C0 8.63875 2.49163 11.1304 5.56519 11.1304C7.07956 11.1304 8.45181 10.5247 9.45525 9.54338C8.81563 9.89013 8.08294 10.087 7.30431 10.087Z" fill="var(--fill-0, #D80027)"/>
</g>
</svg>
