<svg preserveAspectRatio="none" width="100%" height="100%" overflow="visible" style="display: block;" viewBox="0 0 36 12" fill="none" xmlns="http://www.w3.org/2000/svg">
<path id="Vector" fill-rule="evenodd" clip-rule="evenodd" d="M8.85047 11.5397H5.78679L3.4894 2.51726C3.38036 2.10222 3.14883 1.73531 2.80825 1.56238C1.95831 1.1278 1.02173 0.781939 0 0.607505V0.260141H4.93535C5.6165 0.260141 6.12736 0.781939 6.21251 1.38795L7.40452 7.89614L10.4667 0.260141H13.4452L8.85047 11.5397ZM15.1485 11.5397H12.2551L14.6376 0.260141H17.531L15.1485 11.5397ZM21.2739 3.38492C21.359 2.77741 21.8699 2.43005 22.4659 2.43005C23.4024 2.34283 24.4227 2.51726 25.2741 2.95034L25.785 0.521798C24.9335 0.174434 23.997 0 23.147 0C20.3388 0 18.2953 1.56239 18.2953 3.73078C18.2953 5.38039 19.7428 6.24654 20.7645 6.76834C21.8699 7.28864 22.2956 7.636 22.2104 8.15629C22.2104 8.93674 21.359 9.2841 20.5091 9.2841C19.4873 9.2841 18.4656 9.02395 17.5305 8.58937L17.0197 11.0194C18.0414 11.4525 19.1468 11.6269 20.1685 11.6269C23.3173 11.7126 25.2741 10.1518 25.2741 7.80893C25.2741 4.85859 21.2739 4.68566 21.2739 3.38492V3.38492ZM35.4001 11.5397L33.1027 0.260141H30.635C30.1242 0.260141 29.6133 0.607505 29.443 1.1278L25.1888 11.5397H28.1673L28.7619 9.8916H32.4216L32.7621 11.5397H35.4001ZM31.0613 3.29773L31.9112 7.54881H29.5287L31.0613 3.29773Z" fill="var(--fill-0, #172B85)"/>
</svg>
