<svg preserveAspectRatio="none" width="100%" height="100%" overflow="visible" style="display: block;" viewBox="0 0 26 12" fill="none" xmlns="http://www.w3.org/2000/svg">
<path id="Vector" fill-rule="evenodd" clip-rule="evenodd" d="M4.75063 1.43417C4.44592 1.80991 3.95836 2.10627 3.47081 2.06394C3.40987 1.55589 3.64857 1.01609 3.92789 0.682686C4.23261 0.29636 4.76587 0.0211686 5.19756 0C5.24834 0.529214 5.05028 1.04784 4.75063 1.43417ZM5.19249 2.16449C4.76296 2.13873 4.37104 2.2991 4.05448 2.42863C3.85076 2.51198 3.67825 2.58257 3.547 2.58257C3.39972 2.58257 3.22009 2.50821 3.01841 2.42472L3.0184 2.42472L3.0184 2.42472C2.75412 2.31532 2.45198 2.19024 2.13514 2.19624C1.40889 2.20683 0.733427 2.63549 0.362685 3.31818C-0.399114 4.68355 0.164617 6.70515 0.901022 7.81649C1.26161 8.36688 1.69329 8.97018 2.2621 8.94901C2.51234 8.93917 2.69235 8.85958 2.87865 8.7772C3.09312 8.68237 3.31592 8.58385 3.66381 8.58385C3.99964 8.58385 4.2127 8.6798 4.41722 8.77191C4.61169 8.85948 4.79844 8.94359 5.07568 8.93843C5.6648 8.92784 6.03555 8.38805 6.39613 7.83766C6.78526 7.24695 6.95626 6.67044 6.98221 6.58296L6.98525 6.57284C6.98463 6.57219 6.97983 6.5699 6.97134 6.56585C6.84126 6.5038 5.84701 6.0295 5.83748 4.75764C5.8279 3.6901 6.62609 3.14921 6.75174 3.06407C6.75939 3.05889 6.76454 3.05539 6.76687 3.05357C6.25901 2.27033 5.46674 2.18566 5.19249 2.16449ZM9.27106 8.88019V0.629746H12.2421C13.7758 0.629746 14.8474 1.73051 14.8474 3.33932C14.8474 4.94813 13.7555 6.05948 12.2014 6.05948H10.5001V8.88019H9.27106ZM10.5 1.70935H11.9169C12.9834 1.70935 13.5929 2.30207 13.5929 3.34462C13.5929 4.38717 12.9834 4.98518 11.9118 4.98518H10.5V1.70935ZM18.9051 7.89058C18.5801 8.53622 17.864 8.94371 17.092 8.94371C15.9493 8.94371 15.152 8.23456 15.152 7.16555C15.152 6.10713 15.924 5.49853 17.3511 5.40856L18.8848 5.31331V4.85818C18.8848 4.18608 18.4633 3.82092 17.7116 3.82092C17.092 3.82092 16.64 4.15433 16.5486 4.66237H15.4415C15.477 3.59336 16.442 2.81542 17.7472 2.81542C19.154 2.81542 20.0681 3.58278 20.0681 4.77351V8.88021H18.9305V7.89058H18.9051ZM17.4215 7.96465C16.7664 7.96465 16.3499 7.63653 16.3499 7.13378C16.3499 6.61515 16.7511 6.3135 17.518 6.26587L18.8842 6.17591V6.64161C18.8842 7.41426 18.2544 7.96465 17.4215 7.96465ZM23.8415 9.20305C23.3489 10.6478 22.7851 11.1241 21.5866 11.1241C21.4951 11.1241 21.1904 11.1135 21.1193 11.0923V10.1027C21.1955 10.1133 21.3834 10.1239 21.4799 10.1239C22.0233 10.1239 22.328 9.88574 22.516 9.26656L22.6277 8.9014L20.5454 2.89483H21.8303L23.2778 7.76888H23.3031L24.7506 2.89483H25.9999L23.8415 9.20305Z" fill="var(--fill-0, black)"/>
</svg>
