<svg preserveAspectRatio="none" width="100%" height="100%" overflow="visible" style="display: block;" viewBox="0 0 15 9" fill="none" xmlns="http://www.w3.org/2000/svg">
<g id="Group">
<path id="Vector" d="M4.28122 8.69575H9.84647V6.3305L8.73341 6.887L7.06384 5.21744L5.39428 6.887L4.28122 6.3305V8.69575Z" fill="var(--fill-0, #FFDA44)"/>
<path id="Vector_2" d="M1.09719 5.91312L1.35625 6.71024H2.19438L1.51625 7.20293L1.77531 8.00006L1.09719 7.50743L0.419063 8.00006L0.678124 7.20293L0 6.71024H0.838124L1.09719 5.91312Z" fill="var(--fill-0, #FFDA44)"/>
<path id="Vector_3" d="M1.90025 3.13049L2.15931 3.92762H2.99744L2.31931 4.42031L2.57831 5.21743L1.90025 4.7248L1.22213 5.21743L1.48119 4.42031L0.803062 3.92762H1.64119L1.90025 3.13049Z" fill="var(--fill-0, #FFDA44)"/>
<path id="Vector_4" d="M4.196 1.04356L4.45507 1.84069H5.29313L4.61513 2.33338L4.87407 3.1305L4.196 2.63788L3.51794 3.1305L3.77694 2.33338L3.09882 1.84069H3.937L4.196 1.04356Z" fill="var(--fill-0, #FFDA44)"/>
<path id="Vector_5" d="M13.0306 5.91312L12.7716 6.71024H11.9334L12.6116 7.20293L12.3525 8.00006L13.0306 7.50743L13.7087 8.00006L13.4497 7.20293L14.1278 6.71024H13.2897L13.0306 5.91312Z" fill="var(--fill-0, #FFDA44)"/>
<path id="Vector_6" d="M12.2276 3.13049L11.9686 3.92762H11.1304L11.8086 4.42031L11.5495 5.21743L12.2276 4.7248L12.9058 5.21743L12.6467 4.42031L13.3248 3.92762H12.4867L12.2276 3.13049Z" fill="var(--fill-0, #FFDA44)"/>
<path id="Vector_7" d="M9.93181 1.04361L9.67275 1.84073H8.83469L9.51269 2.33342L9.25368 3.13055L9.93181 2.63792L10.6099 3.13055L10.3509 2.33342L11.0289 1.84073H10.1908L9.93181 1.04361Z" fill="var(--fill-0, #FFDA44)"/>
<path id="Vector_8" d="M7.06394 0L7.323 0.797125H8.16113L7.483 1.28981L7.74206 2.08694L7.06394 1.59431L6.38581 2.08694L6.64488 1.28981L5.96675 0.797125H6.80488L7.06394 0Z" fill="var(--fill-0, #FFDA44)"/>
</g>
</svg>
