<svg preserveAspectRatio="none" width="100%" height="100%" overflow="visible" style="display: block;" viewBox="0 0 28 9" fill="none" xmlns="http://www.w3.org/2000/svg">
<g id="Vector">
<path id="Amazon" d="M2.08203 0.0117188C2.50368 0.0117188 3.05454 0.129589 3.38574 0.464844C3.77454 0.847512 3.77216 1.34903 3.76953 1.89648C3.76932 1.94143 3.76856 1.98669 3.76855 2.03223V3.4502C3.76855 3.83191 3.90399 4.02168 4.0459 4.22168C4.06276 4.24544 4.07983 4.26956 4.09668 4.29395C4.15182 4.37448 4.16399 4.47569 4.09668 4.53613C3.91959 4.69167 3.60512 4.97862 3.43262 5.14062L3.42578 5.13867C3.36877 5.19065 3.28646 5.19909 3.2207 5.16016C2.97575 4.94588 2.90149 4.83018 2.78809 4.65234C2.76855 4.62171 2.74756 4.58884 2.72461 4.55371C2.24867 5.06289 1.91219 5.21575 1.29688 5.21582C0.567779 5.21582 0 4.74209 0 3.7959C5.81919e-05 3.05701 0.383394 2.55523 0.919922 2.30859C1.3161 2.12583 1.84472 2.06858 2.30176 2.01953C2.38675 2.01041 2.4701 2.00154 2.54883 1.99219V1.80566C2.55034 1.60517 2.55182 1.38206 2.44336 1.21387C2.33756 1.04623 2.13643 0.977539 1.95703 0.977539C1.6267 0.977631 1.33279 1.15619 1.26074 1.52441C1.25151 1.61006 1.18844 1.6783 1.10742 1.69141L0.274414 1.5957C0.232894 1.58943 0.195225 1.56522 0.170898 1.5293C0.146799 1.49343 0.137565 1.4484 0.145508 1.40527C0.338039 0.3353 1.258 0.0117771 2.08203 0.0117188ZM13.4336 0.00878906C13.8544 0.00882926 14.4044 0.126792 14.7363 0.461914C15.1258 0.842504 15.1231 1.3393 15.1201 1.88379V3.44824C15.1202 3.82896 15.2546 4.01883 15.3965 4.21875C15.4134 4.24255 15.4304 4.26659 15.4473 4.29102C15.5055 4.37482 15.5177 4.47271 15.4434 4.52832C15.2663 4.68387 14.9518 4.97162 14.7793 5.13281C14.722 5.18396 14.6408 5.19275 14.5752 5.1543C14.3288 4.93882 14.2558 4.82398 14.1406 4.64355C14.1214 4.61346 14.1007 4.58143 14.0781 4.54688C13.6028 5.05624 13.2637 5.20898 12.6504 5.20898C11.9214 5.20889 11.3545 4.73532 11.3545 3.79004C11.3546 3.05036 11.7356 2.54834 12.2783 2.30176C12.6754 2.11838 13.2067 2.06137 13.665 2.0127C13.7482 2.00386 13.8292 1.99536 13.9062 1.98633V1.87109C13.9063 1.84884 13.9071 1.8257 13.9072 1.80273C13.9087 1.60214 13.91 1.37851 13.8008 1.21094C13.698 1.04345 13.493 0.974609 13.3145 0.974609C12.9841 0.974643 12.6911 1.15239 12.6182 1.52051C12.6088 1.6063 12.546 1.67525 12.4648 1.68848L11.626 1.59375C11.5841 1.58771 11.546 1.56349 11.5215 1.52734C11.497 1.49119 11.4879 1.4459 11.4961 1.40234C11.6893 0.331239 12.6094 0.00878906 13.4336 0.00878906ZM21.8027 0.00683594C23.0882 0.00699886 23.7831 1.16697 23.7832 2.6416C23.7832 4.06723 23.017 5.19807 21.8027 5.19824C20.5416 5.19824 19.8545 4.03784 19.8545 2.59277C19.8545 1.1477 20.55 0.00683594 21.8027 0.00683594ZM9.18652 0.0234375C9.64298 -0.0508868 10.1022 0.138782 10.3877 0.520508C10.6629 0.913813 10.6064 1.48825 10.6064 1.98633V4.93457C10.6056 4.98024 10.587 5.02405 10.5557 5.05566C10.5243 5.08723 10.4819 5.10455 10.4385 5.10352H9.57324C9.48813 5.09876 9.42102 5.02515 9.41992 4.93555V2.45801C9.41993 2.26129 9.4361 1.77002 9.39551 1.58301C9.33114 1.26882 9.13726 1.17976 8.88672 1.17969C8.65703 1.18706 8.4534 1.33778 8.36914 1.5625C8.28023 1.7994 8.28808 2.19205 8.28809 2.45801V4.93457C8.28728 4.9801 8.26851 5.02407 8.2373 5.05566C8.20614 5.08703 8.16425 5.10433 8.12109 5.10352H7.25293C7.16817 5.09818 7.10108 5.02485 7.09961 4.93555V2.45801C7.09962 1.93658 7.17667 1.169 6.56348 1.16895C5.95021 1.16895 5.96582 1.91561 5.96582 2.45801V4.93457C5.96502 4.98024 5.94641 5.02405 5.91504 5.05566C5.88368 5.08722 5.84125 5.10455 5.79785 5.10352H4.93164C4.85149 5.09894 4.78617 5.03323 4.77832 4.94922V0.274414C4.78144 0.180936 4.85532 0.107474 4.94434 0.108398H5.75195C5.83446 0.113426 5.90072 0.182734 5.90527 0.269531V0.878906H5.9209C6.13094 0.288532 6.52727 0.0138189 7.06055 0.0136719C7.59401 0.0136719 7.94155 0.288457 8.18457 0.878906C8.34687 0.424403 8.73015 0.0977535 9.18652 0.0234375ZM26.7627 0C27.1505 7.05482e-05 27.5289 0.147901 27.7734 0.550781C27.9995 0.924721 28 1.55379 28 2.00586V4.94727C27.9872 5.03292 27.9155 5.09554 27.833 5.09375H26.9629C26.8849 5.0902 26.8204 5.0285 26.8096 4.94727V2.40918C26.8096 1.89833 26.8659 1.15074 26.2676 1.15039C26.0452 1.1612 25.8488 1.30738 25.7656 1.52441C25.6447 1.80947 25.6289 2.09453 25.6289 2.41016V4.92578C25.6256 5.02063 25.5502 5.09547 25.46 5.09375H24.5957C24.5106 5.08898 24.4435 5.01537 24.4424 4.92578V0.250977C24.4517 0.162608 24.5238 0.0966907 24.6084 0.0986328H25.4121C25.4852 0.101097 25.5478 0.153989 25.5654 0.228516V0.943359H25.583C25.8253 0.304586 26.1649 0 26.7627 0ZM19.1885 0.0898438C19.2317 0.088305 19.2737 0.10601 19.3047 0.137695C19.3357 0.169502 19.353 0.213268 19.3525 0.258789V0.832031C19.3524 0.927897 19.2757 1.05392 19.1387 1.25195L17.6641 3.46484C18.2114 3.45115 18.7905 3.53689 19.2881 3.83105C19.38 3.88257 19.4385 3.98238 19.4414 4.0918V4.80762C19.4413 4.90578 19.3393 5.01921 19.2314 4.96094C18.2873 4.45078 17.1661 4.45224 16.2236 4.96582C16.1247 5.02142 16.0215 4.90984 16.0215 4.81152V4.13086C16.0124 3.97032 16.049 3.81022 16.127 3.67188L17.8359 1.09277H16.3457C16.3023 1.09454 16.2597 1.0777 16.2285 1.0459C16.1975 1.01417 16.1803 0.970317 16.1807 0.924805V0.258789C16.1786 0.213281 16.1948 0.168816 16.2256 0.136719C16.2564 0.10461 16.2994 0.0872848 16.3428 0.0898438H19.1885ZM2.55176 2.72363C1.92552 2.72369 1.2637 2.86453 1.26367 3.63965C1.26367 4.03455 1.4581 4.30076 1.79004 4.30078C2.03377 4.30078 2.25262 4.14289 2.39062 3.88672C2.55298 3.58321 2.55206 3.29812 2.55176 2.96289V2.72363ZM13.9082 2.71973C13.2818 2.71973 12.6201 2.85961 12.6201 3.63574C12.6201 4.02962 12.8138 4.29566 13.1455 4.2959C13.3885 4.2959 13.6079 4.13732 13.7451 3.88184C13.9079 3.57676 13.9084 3.29147 13.9082 2.95215V2.71973ZM21.8105 0.960938C21.1721 0.961127 21.1318 1.87476 21.1318 2.44531C21.1318 2.45142 21.1318 2.45761 21.1318 2.46387C21.1318 3.04202 21.1316 4.23438 21.8027 4.23438C22.4808 4.23397 22.5059 3.25087 22.5059 2.65137C22.5059 2.25822 22.4903 1.78612 22.377 1.41309C22.2796 1.0907 22.085 0.960938 21.8105 0.960938Z" fill="var(--fill-0, black)"/>
<path id="Smile" fill-rule="evenodd" clip-rule="evenodd" d="M17.604 8.07562C17.801 7.56062 18.2396 6.40649 18.031 6.12682H18.0326C17.8249 5.84655 16.6596 5.99363 16.1354 6.05979L16.1343 6.05993C15.9748 6.08008 15.9503 5.9342 16.0937 5.82862C17.0244 5.14114 18.5493 5.3378 18.7264 5.56991C18.9035 5.80203 18.6781 7.4091 17.8064 8.17637C17.6722 8.29404 17.5442 8.23117 17.604 8.07562ZM11.3411 8.87029C13.3682 8.87029 15.7287 8.19732 17.3548 6.936V6.93842C17.6239 6.72565 17.3931 6.41294 17.1187 6.53544C15.3437 7.32248 13.4384 7.73331 11.5121 7.74437C8.83949 7.74437 6.2543 6.97388 4.16285 5.69483C3.97962 5.5828 3.84315 5.78026 3.99648 5.92453C6.00997 7.83428 8.62925 8.88482 11.3411 8.87029Z" fill="var(--fill-0, #FF9900)"/>
</g>
</svg>
