<svg preserveAspectRatio="none" width="100%" height="100%" overflow="visible" style="display: block;" viewBox="0 0 19 19" fill="none" xmlns="http://www.w3.org/2000/svg">
<path id="Vector" d="M14.25 3.375H1.125C0.826631 3.375 0.540483 3.49353 0.329505 3.7045C0.118526 3.91548 0 4.20163 0 4.5V17.625C0 17.9234 0.118526 18.2095 0.329505 18.4205C0.540483 18.6315 0.826631 18.75 1.125 18.75H14.25C14.5484 18.75 14.8345 18.6315 15.0455 18.4205C15.2565 18.2095 15.375 17.9234 15.375 17.625V4.5C15.375 4.20163 15.2565 3.91548 15.0455 3.7045C14.8345 3.49353 14.5484 3.375 14.25 3.375ZM13.125 16.5H2.25V5.625H13.125V16.5ZM18.75 1.125V14.25C18.75 14.5484 18.6315 14.8345 18.4205 15.0455C18.2095 15.2565 17.9234 15.375 17.625 15.375C17.3266 15.375 17.0405 15.2565 16.8295 15.0455C16.6185 14.8345 16.5 14.5484 16.5 14.25V2.25H4.5C4.20163 2.25 3.91548 2.13147 3.7045 1.9205C3.49353 1.70952 3.375 1.42337 3.375 1.125C3.375 0.826631 3.49353 0.540483 3.7045 0.329505C3.91548 0.118526 4.20163 0 4.5 0H17.625C17.9234 0 18.2095 0.118526 18.4205 0.329505C18.6315 0.540483 18.75 0.826631 18.75 1.125Z" fill="var(--fill-0, #1E293B)"/>
</svg>
