<svg preserveAspectRatio="none" width="100%" height="100%" overflow="visible" style="display: block;" viewBox="0 0 6 7" fill="none" xmlns="http://www.w3.org/2000/svg">
<g id="Group">
<path id="Vector" d="M2.08691 0V1.15938C2.08691 1.5435 2.39835 1.855 2.78254 1.855C3.16673 1.855 3.47816 1.5435 3.47816 1.15938V0H2.08691Z" fill="var(--fill-0, #0052B4)"/>
<path id="Vector_2" d="M2.08691 4.6377V5.79707C2.08691 6.18119 2.39835 6.49269 2.78254 6.49269C3.16673 6.49269 3.47816 6.18119 3.47816 5.79707V4.6377H2.08691Z" fill="var(--fill-0, #0052B4)"/>
<path id="Vector_3" d="M4.17383 2.31873V3.47823C4.17383 3.86235 4.48527 4.17385 4.86945 4.17385C5.25364 4.17385 5.56508 3.86235 5.56508 3.47823V2.31873H4.17383Z" fill="var(--fill-0, #0052B4)"/>
<path id="Vector_4" d="M2.08691 2.31873V3.47823C2.08691 3.86235 2.39835 4.17385 2.78254 4.17385C3.16673 4.17385 3.47816 3.86235 3.47816 3.47823V2.31873H2.08691Z" fill="var(--fill-0, #0052B4)"/>
<path id="Vector_5" d="M0 2.31875V3.47825C0 3.86237 0.311438 4.17387 0.695625 4.17387C1.07981 4.17387 1.39125 3.86237 1.39125 3.47825V2.31875H0Z" fill="var(--fill-0, #0052B4)"/>
</g>
</svg>
