<svg preserveAspectRatio="none" width="100%" height="100%" overflow="visible" style="display: block;" viewBox="0 0 19 18" fill="none" xmlns="http://www.w3.org/2000/svg">
<g id="Group">
<path id="Vector" d="M9.0437 0.829468C5.97002 0.829468 3.47852 3.32109 3.47852 6.39466C3.47852 9.46822 5.97008 11.9598 9.0437 11.9598C12.1172 11.9598 14.6089 9.46822 14.6089 6.39466C14.6089 3.32109 12.1171 0.829468 9.0437 0.829468ZM7.65239 6.39466C7.65239 5.62628 8.27527 5.00334 9.0437 5.00334C9.81208 5.00334 10.435 5.62628 10.435 6.39466C10.435 7.16309 9.81208 7.78597 9.0437 7.78597C8.27527 7.78597 7.65239 7.16309 7.65239 6.39466V6.39466ZM10.4862 4.01472C10.2703 3.88353 10.0349 3.78166 9.78564 3.71284V2.28784C10.4132 2.40047 10.9918 2.65291 11.4885 3.01253L10.4862 4.01472ZM8.39439 3.68903C8.13333 3.75147 7.8867 3.85066 7.66008 3.98084L6.6532 2.97397C7.1622 2.61759 7.75395 2.3714 8.39439 2.27122V3.68903ZM7.66002 8.80847C7.88664 8.93859 8.13327 9.03784 8.39433 9.10022V10.518C7.75383 10.4179 7.1622 10.1716 6.6532 9.81522L7.66002 8.80847ZM9.7857 9.07647C10.0349 9.00766 10.2704 8.90584 10.4862 8.77465L11.4884 9.77684C10.9918 10.1364 10.4132 10.3889 9.78564 10.5015V9.07653H9.7857V9.07647ZM11.4575 7.77841C11.58 7.56509 11.6758 7.33434 11.7386 7.09034H13.1588C13.0543 7.71297 12.8121 8.28853 12.4644 8.78515L11.4575 7.77841ZM11.7386 5.69903C11.6758 5.45497 11.58 5.22441 11.4575 5.01103L12.4643 4.00416C12.8121 4.50084 13.0543 5.07634 13.1587 5.69897H11.7386V5.69903H11.7386ZM5.66152 3.94997L6.6637 4.95216C6.52439 5.18153 6.41733 5.43253 6.3487 5.69903H4.92858C5.03689 5.05365 5.29308 4.45878 5.66152 3.94997ZM4.92858 7.09028H6.3487C6.41727 7.35678 6.52433 7.60778 6.6637 7.83715L5.66152 8.83934C5.29308 8.33053 5.03689 7.73572 4.92858 7.09028Z" fill="var(--fill-0, #F0F0F0)"/>
<path id="Vector_2" d="M18.0869 6.39469C18.0869 3.92094 17.0933 1.67963 15.4839 0.046875L14.0082 1.52256C15.2399 2.77756 15.9999 4.49731 15.9999 6.39469C15.9999 10.2367 12.8854 13.3512 9.04344 13.3512C5.20137 13.3512 2.08694 10.2367 2.08694 6.39469C2.08694 4.47363 2.8655 2.7345 4.12444 1.47569L2.64875 0C1.01219 1.63656 0 3.89744 0 6.39469C0 10.5331 2.77981 14.0223 6.57413 15.0969C6.15813 15.8871 6.2215 16.8821 6.81575 17.6236C7.59625 16.9981 8.40431 16.3505 9.08981 15.8013C9.77531 16.3506 10.5834 16.9981 11.3639 17.6236C11.964 16.8747 12.0231 15.8671 11.5933 15.0731C15.3461 13.9721 18.0869 10.5038 18.0869 6.39469V6.39469Z" fill="var(--fill-0, #F0F0F0)"/>
</g>
</svg>
