<svg preserveAspectRatio="none" width="100%" height="100%" overflow="visible" style="display: block;" viewBox="0 0 31 24" fill="none" xmlns="http://www.w3.org/2000/svg">
<g id="Group">
<path id="Vector" d="M0 20C0.365312 21.4191 0.920688 22.7619 1.63694 24H29.3549C30.0711 22.7619 30.6265 21.4191 30.9918 20L15.4959 18.7826L0 20Z" fill="var(--fill-0, #0052B4)"/>
<path id="Vector_2" d="M30.992 12C30.6267 10.5809 30.0713 9.23812 29.3551 8L15.4961 7.65219C15.4961 4.85762 15.4961 2.21656 15.4961 0C14.3075 0 13.1491 0.129687 12.0344 0.3755C12.0131 0.38025 1.58301 8.60738 1.58301 16C1.8497 16.0464 15.4961 17.3913 15.4961 17.3913C15.4961 17.3913 15.4961 14.3438 15.4961 12H30.992Z" fill="var(--fill-0, #0052B4)"/>
</g>
</svg>
