<svg preserveAspectRatio="none" width="100%" height="100%" overflow="visible" style="display: block;" viewBox="0 0 18 18" fill="none" xmlns="http://www.w3.org/2000/svg">
<path id="Vector" d="M15 3.75V17.25C15 17.4489 14.921 17.6397 14.7803 17.7803C14.6397 17.921 14.4489 18 14.25 18H0.75C0.551088 18 0.360322 17.921 0.21967 17.7803C0.0790178 17.6397 0 17.4489 0 17.25V3.75C0 3.55109 0.0790178 3.36032 0.21967 3.21967C0.360322 3.07902 0.551088 3 0.75 3H14.25C14.4489 3 14.6397 3.07902 14.7803 3.21967C14.921 3.36032 15 3.55109 15 3.75ZM17.25 0H3.75C3.55109 0 3.36032 0.0790178 3.21967 0.21967C3.07902 0.360322 3 0.551088 3 0.75C3 0.948912 3.07902 1.13968 3.21967 1.28033C3.36032 1.42098 3.55109 1.5 3.75 1.5H16.5V14.25C16.5 14.4489 16.579 14.6397 16.7197 14.7803C16.8603 14.921 17.0511 15 17.25 15C17.4489 15 17.6397 14.921 17.7803 14.7803C17.921 14.6397 18 14.4489 18 14.25V0.75C18 0.551088 17.921 0.360322 17.7803 0.21967C17.6397 0.0790178 17.4489 0 17.25 0Z" fill="var(--fill-0, #1E293B)"/>
</svg>
