<svg preserveAspectRatio="none" width="100%" height="100%" overflow="visible" style="display: block;" viewBox="0 0 11 11" fill="none" xmlns="http://www.w3.org/2000/svg">
<g id="Group">
<path id="Vector" d="M8.82094 6.26088L9.08001 7.05806H9.91813L9.24001 7.55063L9.49907 8.34781L8.82094 7.85512L8.14282 8.34781L8.40188 7.55063L7.72375 7.05806H8.56188L8.82094 6.26088Z" fill="var(--fill-0, #F0F0F0)"/>
<path id="Vector_2" d="M4.61119 0L5.04287 1.32869H6.43987L5.30962 2.14963L5.74144 3.47825L4.61119 2.65706L3.481 3.47825L3.91275 2.14963L2.78256 1.32869H4.17944L4.61119 0Z" fill="var(--fill-0, #F0F0F0)"/>
<path id="Vector_3" d="M8.78514 1.39125L9.21682 2.72H10.6138L9.48357 3.54094L9.91526 4.86956L8.78514 4.04838L7.65495 4.86956L8.0867 3.54094L6.95651 2.72H8.35339L8.78514 1.39125Z" fill="var(--fill-0, #F0F0F0)"/>
<path id="Vector_4" d="M5.48588 6.9565L5.91763 8.28519H7.31451L6.18432 9.10613L6.61607 10.4348L5.48588 9.61363L4.35569 10.4348L4.78745 9.10613L3.65726 8.28519H5.05419L5.48588 6.9565Z" fill="var(--fill-0, #F0F0F0)"/>
<path id="Vector_5" d="M1.82856 3.47825L2.26031 4.80694H3.65725L2.527 5.62788L2.95875 6.9565L1.82856 6.13538L0.698438 6.9565L1.13013 5.62788L0 4.80694H1.39687L1.82856 3.47825Z" fill="var(--fill-0, #F0F0F0)"/>
</g>
</svg>
