<svg preserveAspectRatio="none" width="100%" height="100%" overflow="visible" style="display: block;" viewBox="0 0 2 11" fill="none" xmlns="http://www.w3.org/2000/svg">
<g id="Group">
<path id="Vector" d="M0 4.67682H1.39131V6.06813H0V4.67682Z" fill="var(--fill-0, #D80027)"/>
<path id="Vector_2" d="M0.695625 1.39125C1.07981 1.39125 1.39125 1.07981 1.39125 0.695625C1.39125 0.311442 1.07981 0 0.695625 0C0.311442 0 0 0.311442 0 0.695625C0 1.07981 0.311442 1.39125 0.695625 1.39125Z" fill="var(--fill-0, #D80027)"/>
<path id="Vector_3" d="M0.695625 10.7449C1.07981 10.7449 1.39125 10.4335 1.39125 10.0493C1.39125 9.66514 1.07981 9.3537 0.695625 9.3537C0.311442 9.3537 0 9.66514 0 10.0493C0 10.4335 0.311442 10.7449 0.695625 10.7449Z" fill="var(--fill-0, #D80027)"/>
</g>
</svg>
