<svg preserveAspectRatio="none" width="100%" height="100%" overflow="visible" style="display: block;" viewBox="0 0 13 13" fill="none" xmlns="http://www.w3.org/2000/svg">
<path id="Vector" d="M11.0039 6.93825L12.3828 6.19137L11.0039 5.4445C10.682 3.35319 9.02962 1.70075 6.93831 1.37887L6.19137 0L5.4445 1.37881C3.35325 1.70069 1.70087 3.35312 1.37887 5.44444L0 6.19137L1.37881 6.93825C1.70075 9.02956 3.35312 10.682 5.44444 11.0039L6.19137 12.3827L6.93825 11.0039C9.02962 10.682 10.682 9.02956 11.0039 6.93825V6.93825ZM6.19144 8.974C4.65463 8.974 3.40881 7.72825 3.40881 6.19137C3.40881 4.6545 4.65456 3.40875 6.19144 3.40875C7.72831 3.40875 8.97406 4.6545 8.97406 6.19137C8.97406 7.72825 7.72825 8.974 6.19144 8.974Z" fill="var(--fill-0, black)"/>
</svg>
