<svg preserveAspectRatio="none" width="100%" height="100%" overflow="visible" style="display: block;" viewBox="0 0 32 4" fill="none" xmlns="http://www.w3.org/2000/svg">
<path id="Vector" d="M31.9504 0.00137424C30.6672 0.0316867 30.6496 1.21912 29.3331 1.21912C27.9998 1.21912 27.9998 0 26.6664 0C25.3331 0 25.3331 1.21912 23.9999 1.21912C22.6666 1.21912 22.6666 0 21.3333 0C20 0 20 1.21912 18.6666 1.21912C17.3332 1.21912 17.3332 0 15.9998 0C14.6664 0 14.6664 1.21912 13.3332 1.21912C12.0001 1.21912 12.0001 0 10.6667 0C9.33331 0 9.33331 1.21912 7.99988 1.21912C6.66644 1.21912 6.66644 0 5.333 0C3.99988 0 3.99988 1.21912 2.66656 1.21912C1.35038 1.21912 1.33256 0.0318117 0.0495625 0.00137424C0.017 0.418499 0 0.84 0 1.26544C0 1.55687 0.00825 1.84644 0.0238125 2.134C1.33275 2.14869 1.34144 3.35237 2.66663 3.35237C3.99994 3.35237 3.99994 2.13337 5.33306 2.13337C6.6665 2.13337 6.6665 3.35237 7.99994 3.35237C9.33337 3.35237 9.33338 2.13337 10.6668 2.13337C12.0001 2.13337 12.0001 3.35237 13.3333 3.35237C14.6666 3.35237 14.6666 2.13337 15.9998 2.13337C17.3332 2.13337 17.3332 3.35237 18.6667 3.35237C20.0001 3.35237 20.0001 2.13337 21.3334 2.13337C22.6667 2.13337 22.6667 3.35237 23.9999 3.35237C25.3332 3.35237 25.3333 2.13337 26.6665 2.13337C27.9999 2.13337 27.9999 3.35237 29.3332 3.35237C30.6585 3.35237 30.6672 2.14869 31.9764 2.134C31.9918 1.84637 32 1.55687 32 1.26544C32 0.84 31.983 0.418499 31.9504 0.00137424V0.00137424Z" fill="var(--fill-0, #F0F0F0)"/>
</svg>
