<svg preserveAspectRatio="none" width="100%" height="100%" overflow="visible" style="display: block;" viewBox="0 0 19 19" fill="none" xmlns="http://www.w3.org/2000/svg">
<path id="Vector" d="M9.375 0.046875C9.66094 0.046875 9.93551 0.160117 10.1377 0.362305C10.3399 0.564492 10.4531 0.839064 10.4531 1.125V8.29688H17.625C17.9109 8.29688 18.1855 8.41012 18.3877 8.6123C18.5899 8.81449 18.7031 9.08906 18.7031 9.375C18.7031 9.66094 18.5899 9.93551 18.3877 10.1377C18.1855 10.3399 17.9109 10.4531 17.625 10.4531H10.4531V17.625C10.4531 17.9109 10.3399 18.1855 10.1377 18.3877C9.93551 18.5899 9.66094 18.7031 9.375 18.7031C9.08906 18.7031 8.81449 18.5899 8.6123 18.3877C8.41012 18.1855 8.29688 17.9109 8.29688 17.625V10.4531H1.125C0.839064 10.4531 0.564492 10.3399 0.362305 10.1377C0.160117 9.93551 0.046875 9.66094 0.046875 9.375C0.046875 9.08906 0.160117 8.81449 0.362305 8.6123C0.564492 8.41012 0.839063 8.29688 1.125 8.29688H8.29688V1.125C8.29688 0.839063 8.41012 0.564492 8.6123 0.362305C8.81449 0.160117 9.08906 0.046875 9.375 0.046875Z" fill="var(--fill-0, #E11D48)" stroke="var(--stroke-0, #E11D48)" stroke-width="0.09375"/>
</svg>
