<svg preserveAspectRatio="none" width="100%" height="100%" overflow="visible" style="display: block;" viewBox="0 0 31 31" fill="none" xmlns="http://www.w3.org/2000/svg">
<g id="Group">
<path id="Vector" d="M2.75628 5.70761C1.49947 7.3428 0.551782 9.22749 -3.05176e-05 11.2749H8.32359L2.75628 5.70761Z" fill="var(--fill-0, #0052B4)"/>
<path id="Vector_2" d="M30.8976 11.275C30.3458 9.22761 29.398 7.34292 28.1413 5.70773L22.5741 11.275H30.8976Z" fill="var(--fill-0, #0052B4)"/>
<path id="Vector_3" d="M0 19.6228C0.551875 21.6702 1.49956 23.5549 2.75631 25.19L8.32344 19.6228H0Z" fill="var(--fill-0, #0052B4)"/>
<path id="Vector_4" d="M25.1899 2.75638C23.5547 1.49956 21.6701 0.551875 19.6227 0V8.32356L25.1899 2.75638Z" fill="var(--fill-0, #0052B4)"/>
<path id="Vector_5" d="M5.70761 28.1412C7.3428 29.398 9.22749 30.3457 11.2749 30.8976V22.5741L5.70761 28.1412Z" fill="var(--fill-0, #0052B4)"/>
<path id="Vector_6" d="M11.2748 -3.05176e-05C9.22742 0.551844 7.34274 1.49953 5.70761 2.75628L11.2748 8.32347V-3.05176e-05Z" fill="var(--fill-0, #0052B4)"/>
<path id="Vector_7" d="M19.6227 30.8976C21.67 30.3457 23.5547 29.398 25.1898 28.1413L19.6227 22.5741V30.8976Z" fill="var(--fill-0, #0052B4)"/>
<path id="Vector_8" d="M22.5741 19.6228L28.1413 25.19C29.398 23.5549 30.3458 21.6701 30.8976 19.6228H22.5741Z" fill="var(--fill-0, #0052B4)"/>
</g>
</svg>
