<svg preserveAspectRatio="none" width="100%" height="100%" overflow="visible" style="display: block;" viewBox="0 0 26 9" fill="none" xmlns="http://www.w3.org/2000/svg">
<path id="Vector" fill-rule="evenodd" clip-rule="evenodd" d="M6.41264 8.36107H4.19284L2.52826 1.82382C2.44925 1.52311 2.28149 1.25726 2.03473 1.13196C1.4189 0.817084 0.740295 0.566489 0 0.440102V0.188418H3.57593C4.06946 0.188418 4.4396 0.566489 4.5013 1.00557L5.36497 5.72111L7.58369 0.188418H9.7418L6.41264 8.36107ZM10.9755 8.36107H8.87903L10.6053 0.188418H12.7017L10.9755 8.36107ZM15.4141 2.45256C15.4758 2.01238 15.846 1.7607 16.2778 1.7607C16.9564 1.69751 17.6956 1.82389 18.3125 2.13768L18.6827 0.378071C18.0658 0.126387 17.3872 0 16.7713 0C14.7366 0 13.256 1.13203 13.256 2.70315C13.256 3.89838 14.3048 4.52596 15.0451 4.90403C15.846 5.28101 16.1544 5.53269 16.0927 5.90967C16.0927 6.47515 15.4758 6.72683 14.86 6.72683C14.1197 6.72683 13.3794 6.53834 12.7019 6.22346L12.3317 7.98416C13.072 8.29795 13.8729 8.42434 14.6132 8.42434C16.8947 8.48644 18.3125 7.3555 18.3125 5.65799C18.3125 3.52031 15.4141 3.39501 15.4141 2.45256V2.45256ZM25.6494 8.36107L23.9848 0.188418H22.1968C21.8267 0.188418 21.4565 0.440102 21.3332 0.817084L18.2508 8.36107H20.4089L20.8396 7.16693H23.4913L23.738 8.36107H25.6494ZM22.5048 2.38938L23.1206 5.46951H21.3944L22.5048 2.38938Z" fill="var(--fill-0, #475569)"/>
</svg>
