<svg preserveAspectRatio="none" width="100%" height="100%" overflow="visible" style="display: block;" viewBox="0 0 32 32" fill="none" xmlns="http://www.w3.org/2000/svg">
<path id="Vector" d="M31.1687 15.9391L31.7286 13.8522C31.6356 13.1409 31.4961 12.4441 31.3132 11.7653H14.473V0C13.763 0.061125 13.0664 0.169187 12.3861 0.320062L9.60344 2.02606L8.21212 1.88562C7.47994 2.28512 6.78238 2.74013 6.12519 3.24506V11.7652H0.4155C0.232563 12.4441 0.0930625 13.1408 6.24955e-05 13.8521L0.559937 15.9391L0 18.0261C0.093 18.7374 0.2325 19.4341 0.415437 20.113H6.12512V28.6331C6.78231 29.1381 7.47994 29.5931 8.21206 29.9926L10.299 29.8521L12.3859 31.5581C13.0664 31.7089 13.7629 31.817 14.4729 31.8782V20.1131H31.313C31.4959 19.4342 31.6354 18.7374 31.7284 18.0261L31.1687 15.9391Z" fill="var(--fill-0, #0052B4)"/>
</svg>
