<svg preserveAspectRatio="none" width="100%" height="100%" overflow="visible" style="display: block;" viewBox="0 0 30 26" fill="none" xmlns="http://www.w3.org/2000/svg">
<g id="Group">
<path id="Vector" d="M15.0049 25.0433C21.8843 25.0433 27.749 20.7013 30.0096 14.6085H0C2.26075 20.7013 8.12538 25.0433 15.0049 25.0433Z" fill="var(--fill-0, #D80027)"/>
<path id="Vector_2" d="M21.2656 6.26066V4.17372H21.9612V2.78241H20.5699V3.47809H19.1787V2.78241H17.7874V4.17372H18.483V6.26066H17.0917V1.39122H17.7874V-3.05176e-05H16.396V0.695469H15.7004V-3.05176e-05H14.3091V0.695469H13.6134V-3.05176e-05H12.2221V1.39122H12.9178V6.26066H11.5265V4.17372H12.2221V2.78241H10.8308V3.47809H9.43954V2.78241H8.04823V4.17372H8.74385V6.26066H7.35254V11.8259H22.6569V6.26066H21.2656Z" fill="var(--fill-0, #D80027)"/>
</g>
</svg>
