<svg preserveAspectRatio="none" width="100%" height="100%" overflow="visible" style="display: block;" viewBox="0 0 7 7" fill="none" xmlns="http://www.w3.org/2000/svg">
<g id="Group">
<path id="Vector" d="M5.7858 4.42315C6.0073 3.88277 6.17955 3.09296 6.17955 2.6999C6.17955 2.06833 5.35617 1.5564 5.35617 1.5564C5.35617 1.5564 4.5328 2.06833 4.5328 2.6999C4.5328 3.09302 4.70511 3.88283 4.92649 4.42315L4.45117 5.49633C4.73055 5.60996 5.03592 5.67308 5.35623 5.67308C5.67655 5.67308 5.98186 5.6099 6.2613 5.49633L5.7858 4.42315Z" fill="var(--fill-0, #FF9811)"/>
<path id="Vector_2" d="M2.56755 0.948188C1.98905 1.02656 1.21887 1.2725 0.878492 1.469C0.331555 1.78481 0.299805 2.75375 0.299805 2.75375C0.299805 2.75375 1.15493 3.21081 1.7018 2.89506C2.0423 2.6985 2.64005 2.1545 2.99712 1.6925L4.16437 1.5675C4.12305 1.26888 4.0248 0.972813 3.86487 0.6955C3.70462 0.418188 3.49743 0.185188 3.2593 0L2.56755 0.948188Z" fill="var(--fill-0, #FF9811)"/>
<path id="Vector_3" d="M1.16719 5.47281C1.52425 5.93456 2.12219 6.47849 2.46269 6.67512C3.00962 6.99087 3.86469 6.53393 3.86469 6.53393C3.86469 6.53393 3.83281 5.56487 3.286 5.24905C2.94544 5.05249 2.17538 4.80681 1.59675 4.72856L0.905062 3.78024C0.666999 3.96537 0.45975 4.19849 0.299562 4.47556C0.1395 4.75299 0.0415 5.04893 0 5.34774L1.16719 5.47281Z" fill="var(--fill-0, #FF9811)"/>
</g>
</svg>
