<svg preserveAspectRatio="none" width="100%" height="100%" overflow="visible" style="display: block;" viewBox="0 0 24 19" fill="none" xmlns="http://www.w3.org/2000/svg">
<g id="Group">
<path id="Vector" d="M3.56769 11.8261L4.44581 13.6623L6.42875 13.204L5.54075 15.0353L7.13538 16.2999L5.14994 16.7474L5.1555 18.7826L3.56769 17.5093L1.97994 18.7826L1.9855 16.7474L0 16.2999L1.59469 15.0353L0.706563 13.204L2.68962 13.6623L3.56769 11.8261Z" fill="var(--fill-0, #F0F0F0)"/>
<path id="Vector_2" d="M17.8732 15.3044L18.3122 16.2224L19.3037 15.9933L18.8597 16.9089L19.657 17.5413L18.6643 17.765L18.667 18.7826L17.8732 18.1459L17.0793 18.7826L17.082 17.765L16.0894 17.5413L16.8867 16.9089L16.4427 15.9933L17.4341 16.2224L17.8732 15.3044Z" fill="var(--fill-0, #F0F0F0)"/>
<path id="Vector_3" d="M13.7888 5.56525L14.2278 6.48337L15.2193 6.25412L14.7753 7.16981L15.5726 7.80212L14.5799 8.02587L14.5826 9.0435L13.7888 8.40681L12.9949 9.0435L12.9976 8.02587L12.0049 7.80212L12.8022 7.16981L12.3582 6.25412L13.3497 6.48337L13.7888 5.56525Z" fill="var(--fill-0, #F0F0F0)"/>
<path id="Vector_4" d="M17.8732 0L18.3122 0.918125L19.3037 0.688938L18.8597 1.60462L19.657 2.23687L18.6643 2.46069L18.667 3.47831L17.8732 2.84163L17.0793 3.47831L17.082 2.46069L16.0894 2.23687L16.8866 1.60462L16.4427 0.688938L17.4341 0.918125L17.8732 0Z" fill="var(--fill-0, #F0F0F0)"/>
<path id="Vector_5" d="M21.4411 4.17392L21.8801 5.09204L22.8716 4.86279L22.4276 5.77848L23.2249 6.41079L22.2322 6.63461L22.2349 7.65217L21.4411 7.01554L20.6472 7.65217L20.6499 6.63461L19.6572 6.41079L20.4545 5.77848L20.0105 4.86279L21.002 5.09204L21.4411 4.17392Z" fill="var(--fill-0, #F0F0F0)"/>
<path id="Vector_6" d="M18.8897 9.04346L19.235 10.1063H20.3526L19.4484 10.7633L19.7939 11.8261L18.8897 11.1692L17.9856 11.8261L18.3309 10.7633L17.4268 10.1063H18.5443L18.8897 9.04346Z" fill="var(--fill-0, #F0F0F0)"/>
</g>
</svg>
