<svg preserveAspectRatio="none" width="100%" height="100%" overflow="visible" style="display: block;" viewBox="0 0 17 17" fill="none" xmlns="http://www.w3.org/2000/svg">
<g id="Vector">
<path d="M7.87655 7.49447C8.48178 7.65492 9.79876 8.00408 10.0283 7.0886C10.2625 6.15196 8.983 5.86907 8.35653 5.73057C8.28553 5.71487 8.22292 5.70103 8.17186 5.6883L7.72938 7.4562C7.77153 7.46662 7.82105 7.47975 7.87655 7.49447Z" fill="var(--fill-0, #F7931A)"/>
<path d="M7.19095 10.3409C7.91585 10.5318 9.50127 10.9494 9.75354 9.94065C10.0117 8.90921 8.47459 8.56566 7.72456 8.39803C7.64076 8.3793 7.56679 8.36276 7.50625 8.34771L7.01821 10.2961C7.06781 10.3084 7.12592 10.3237 7.19095 10.3409Z" fill="var(--fill-0, #F7931A)"/>
<path fill-rule="evenodd" clip-rule="evenodd" d="M16.13 8.065C16.13 12.5192 12.5192 16.13 8.065 16.13C3.61082 16.13 0 12.5192 0 8.065C0 3.61082 3.61082 0 8.065 0C12.5192 0 16.13 3.61082 16.13 8.065ZM10.0027 5.06859C11.1245 5.45383 11.9452 6.0307 11.7842 7.10425C11.6672 7.89038 11.2298 8.27059 10.6486 8.40371C11.446 8.8172 11.7177 9.60194 11.4652 10.5508C10.9858 11.9163 9.84622 12.0313 8.33048 11.7459L7.96243 13.2138L7.07395 12.9929L7.43694 11.5447C7.20659 11.4877 6.97118 11.4267 6.72868 11.3617L6.36417 12.8169L5.4767 12.5961L5.84424 11.1252L4.05462 10.6754L4.49607 9.66182C4.49607 9.66182 5.15117 9.83478 5.14206 9.82217C5.39367 9.88419 5.50556 9.72081 5.5496 9.6124L6.54693 5.62831C6.55807 5.44022 6.49276 5.20322 6.13281 5.11346C6.14648 5.10388 5.48733 4.95362 5.48733 4.95362L5.72375 4.00814L7.51591 4.45037L7.88042 2.99611L8.7684 3.21697L8.41149 4.64249C8.65044 4.69645 8.89041 4.75141 9.12379 4.8094L9.47817 3.39296L10.3667 3.61382L10.0027 5.06859Z" fill="var(--fill-0, #F7931A)"/>
</g>
</svg>
