<svg preserveAspectRatio="none" width="100%" height="100%" overflow="visible" style="display: block;" viewBox="0 0 32 32" fill="none" xmlns="http://www.w3.org/2000/svg">
<path id="Vector" d="M18.0869 31.8646V18.0871V18.087H31.8646C31.9536 17.4038 32 16.7073 32 16C32 15.2928 31.9536 14.5963 31.8646 13.9131H18.0871L18.087 13.9131V0.1355C17.4039 0.0465625 16.7074 0 16 0C15.2927 6.25e-05 14.5962 0.0465625 13.9131 0.1355L13.9131 13.9129V13.9131H0.1355C0.0465 14.5962 0 15.2927 0 16C6.25e-05 16.7074 0.0465 17.4038 0.1355 18.0869H13.913L13.9131 31.8646C14.5962 31.9535 15.2926 32 16 32C16.7074 32 17.4039 31.9535 18.0869 31.8646V31.8646Z" fill="var(--fill-0, #F0F0F0)"/>
</svg>
