<svg preserveAspectRatio="none" width="100%" height="100%" overflow="visible" style="display: block;" viewBox="0 0 34 15" fill="none" xmlns="http://www.w3.org/2000/svg">
<path id="Vector" d="M23.3369 3.06445C24.9896 3.06445 26.548 4.59692 26.5576 7.40918C26.5576 10.4836 25.0177 11.8809 23.3271 11.8809C22.4964 11.8807 21.9962 11.5216 21.6562 11.2695L21.6465 14.0146L19.2852 14.5283V3.21973H21.3633L21.4863 3.82129C21.8169 3.51096 22.4116 3.0645 23.3369 3.06445ZM3.19238 3.06445C3.97613 3.06447 4.75044 3.1908 5.53418 3.51074V5.79004C4.81648 5.3925 3.91007 5.16898 3.19238 5.16895C2.69182 5.16895 2.38965 5.31512 2.38965 5.69336C2.39038 6.77914 5.98753 6.26555 5.99707 9.15527C5.99707 10.8912 4.64686 11.8905 2.68262 11.8906C1.87039 11.8906 0.981853 11.7258 0.103516 11.3379V9.0293C0.896853 9.47543 1.89872 9.80566 2.68262 9.80566C3.21119 9.80559 3.5887 9.65966 3.58887 9.21387C3.58887 8.05977 0.000144208 8.48617 0 5.80957C0 4.09294 1.27515 3.06445 3.19238 3.06445ZM8.76465 3.22949H10.5586V5.29492H8.76465V8.73828C8.76465 10.1732 10.2558 9.72779 10.5586 9.60156V11.5703C10.2469 11.7448 9.68043 11.8906 8.90625 11.8906C7.50846 11.8906 6.45996 10.8328 6.45996 9.39746L6.46973 1.62891L8.77344 1.125L8.76465 3.22949ZM30.5908 3.06445C32.829 3.06456 34 5.02409 34 7.50684C34 7.73969 33.9814 8.24407 33.9814 8.37012H29.3633C29.4673 9.51426 30.2793 9.84375 31.1953 9.84375C32.1301 9.84372 32.8667 9.64023 33.5088 9.31055V11.25C32.8666 11.6185 32.0165 11.8809 30.8926 11.8809C28.5883 11.8807 26.9824 10.4064 26.9824 7.4873C26.9824 5.02389 28.343 3.06445 30.5908 3.06445ZM13.4961 3.94727C14.0533 2.89985 15.1587 3.11311 15.4609 3.22949V5.45996C15.1682 5.35328 14.2232 5.21806 13.666 5.96484V11.7158H11.3047V3.22949H13.3447L13.4961 3.94727ZM18.4072 11.7158H16.0361V3.22949H18.4072V11.7158ZM22.7705 5.21777C22.2322 5.21777 21.892 5.4121 21.6465 5.69336L21.6562 9.29102C21.8829 9.54315 22.2133 9.74707 22.7705 9.74707C23.6393 9.747 24.2246 8.77709 24.2246 7.47754C24.2246 6.20709 23.6299 5.21784 22.7705 5.21777ZM30.5811 5.0332C29.9861 5.0332 29.3341 5.48927 29.334 6.58496H31.7705C31.7704 5.48941 31.157 5.03332 30.5811 5.0332ZM18.4072 1.96875L16.0371 2.49219V0.513672L18.4072 0V1.96875Z" fill="var(--fill-0, #6461FC)"/>
</svg>
