<svg preserveAspectRatio="none" width="100%" height="100%" overflow="visible" style="display: block;" viewBox="0 0 12 19" fill="none" xmlns="http://www.w3.org/2000/svg">
<path id="Vector" d="M11.875 12.1875C11.8738 13.2646 11.4453 14.2972 10.6838 15.0588C9.92215 15.8203 8.88956 16.2488 7.8125 16.25H6.875V17.1875C6.875 17.4361 6.77623 17.6746 6.60041 17.8504C6.4246 18.0262 6.18614 18.125 5.9375 18.125C5.68886 18.125 5.4504 18.0262 5.27459 17.8504C5.09877 17.6746 5 17.4361 5 17.1875V16.25H4.0625C2.98544 16.2488 1.95285 15.8203 1.19125 15.0588C0.429651 14.2972 0.00124062 13.2646 0 12.1875C0 11.9389 0.0987719 11.7004 0.274587 11.5246C0.450403 11.3488 0.68886 11.25 0.9375 11.25C1.18614 11.25 1.4246 11.3488 1.60041 11.5246C1.77623 11.7004 1.875 11.9389 1.875 12.1875C1.875 12.7677 2.10547 13.3241 2.5157 13.7343C2.92594 14.1445 3.48234 14.375 4.0625 14.375H7.8125C8.39266 14.375 8.94906 14.1445 9.3593 13.7343C9.76953 13.3241 10 12.7677 10 12.1875C10 11.6073 9.76953 11.0509 9.3593 10.6407C8.94906 10.2305 8.39266 10 7.8125 10H4.6875C3.61006 10 2.57675 9.57199 1.81488 8.81012C1.05301 8.04825 0.625 7.01494 0.625 5.9375C0.625 4.86006 1.05301 3.82675 1.81488 3.06488C2.57675 2.30301 3.61006 1.875 4.6875 1.875H5V0.9375C5 0.68886 5.09877 0.450403 5.27459 0.274587C5.4504 0.0987721 5.68886 0 5.9375 0C6.18614 0 6.4246 0.0987721 6.60041 0.274587C6.77623 0.450403 6.875 0.68886 6.875 0.9375V1.875H7.1875C8.26456 1.87624 9.29715 2.30465 10.0588 3.06625C10.8203 3.82785 11.2488 4.86044 11.25 5.9375C11.25 6.18614 11.1512 6.4246 10.9754 6.60041C10.7996 6.77623 10.5611 6.875 10.3125 6.875C10.0639 6.875 9.8254 6.77623 9.64959 6.60041C9.47377 6.4246 9.375 6.18614 9.375 5.9375C9.375 5.35734 9.14453 4.80094 8.7343 4.3907C8.32406 3.98047 7.76766 3.75 7.1875 3.75H4.6875C4.10734 3.75 3.55094 3.98047 3.1407 4.3907C2.73047 4.80094 2.5 5.35734 2.5 5.9375C2.5 6.51766 2.73047 7.07406 3.1407 7.4843C3.55094 7.89453 4.10734 8.125 4.6875 8.125H7.8125C8.88956 8.12624 9.92215 8.55465 10.6838 9.31625C11.4453 10.0778 11.8738 11.1104 11.875 12.1875Z" fill="var(--fill-0, #475569)"/>
</svg>
