<svg preserveAspectRatio="none" width="100%" height="100%" overflow="visible" style="display: block;" viewBox="0 0 24 23" fill="none" xmlns="http://www.w3.org/2000/svg">
<path id="Vector" d="M23.4686 20.7845C21.969 18.1526 19.6274 16.1019 16.8208 14.9625C18.2165 13.9157 19.2475 12.4563 19.7677 10.791C20.2879 9.12573 20.2709 7.33898 19.7192 5.68386C19.1675 4.02874 18.109 2.58916 16.6937 1.56905C15.2783 0.548936 13.5779 0 11.8333 0C10.0886 0 8.3882 0.548936 6.97287 1.56905C5.55753 2.58916 4.49905 4.02874 3.94734 5.68386C3.39563 7.33898 3.37868 9.12573 3.89888 10.791C4.41907 12.4563 5.45005 13.9157 6.84577 14.9625C4.03912 16.1019 1.69754 18.1526 0.197957 20.7845C0.105038 20.9339 0.0431076 21.1005 0.0158481 21.2743C-0.0114115 21.4482 -0.00344389 21.6257 0.0392774 21.7964C0.0819986 21.967 0.158601 22.1274 0.264531 22.2679C0.370462 22.4084 0.503557 22.5261 0.655904 22.6141C0.808252 22.7022 0.976741 22.7586 1.15136 22.7802C1.32597 22.8018 1.50315 22.7881 1.67235 22.7399C1.84156 22.6916 1.99934 22.6099 2.13631 22.4994C2.27328 22.389 2.38665 22.2522 2.46968 22.097C4.45155 18.6714 7.95155 16.6283 11.8333 16.6283C15.715 16.6283 19.215 18.6725 21.1969 22.097C21.3768 22.3864 21.6622 22.5944 21.9927 22.6771C22.3232 22.7598 22.673 22.7108 22.968 22.5403C23.263 22.3699 23.4802 22.0914 23.5736 21.7637C23.667 21.4361 23.6294 21.0849 23.4686 20.7845ZM6.14577 8.31578C6.14577 7.1909 6.47934 6.09128 7.10429 5.15598C7.72924 4.22067 8.6175 3.49169 9.65676 3.06122C10.696 2.63074 11.8396 2.51811 12.9428 2.73757C14.0461 2.95702 15.0595 3.4987 15.8549 4.29411C16.6504 5.08952 17.192 6.10294 17.4115 7.20621C17.6309 8.30947 17.5183 9.45304 17.0878 10.4923C16.6574 11.5315 15.9284 12.4198 14.9931 13.0448C14.0578 13.6697 12.9582 14.0033 11.8333 14.0033C10.3254 14.0015 8.87976 13.4018 7.81352 12.3355C6.74728 11.2693 6.14751 9.82367 6.14577 8.31578Z" fill="var(--fill-0, #4F46E5)"/>
</svg>
