<svg preserveAspectRatio="none" width="100%" height="100%" overflow="visible" style="display: block;" viewBox="0 0 19 22" fill="none" xmlns="http://www.w3.org/2000/svg">
<g id="Group">
<path id="Vector" d="M0 18.7826C2.56775 20.5379 5.67269 21.5652 9.01794 21.5652C12.3632 21.5652 15.4681 20.5379 18.0359 18.7826H0Z" fill="var(--fill-0, #FFDA44)"/>
<path id="Vector_2" d="M9.01793 5.56519L12.9531 9.50038C13.9603 8.49325 14.5832 7.102 14.5832 5.56519C14.5832 2.49156 12.0916 0 9.01799 0C5.94443 0 3.45274 2.49156 3.45274 5.56519C3.45274 7.10194 4.07562 8.49325 5.08281 9.50038L9.01793 5.56519Z" fill="var(--fill-0, #FFDA44)"/>
<path id="Vector_3" d="M11.4528 13.5652C11.4528 14.9099 10.3626 15.3043 9.01794 15.3043C7.67332 15.3043 6.58313 14.9099 6.58313 13.5652C6.58313 12.2205 7.67332 11.1304 9.01794 11.1304C10.3626 11.1304 11.4528 12.2205 11.4528 13.5652Z" fill="var(--fill-0, #FFDA44)"/>
</g>
</svg>
