<svg preserveAspectRatio="none" width="100%" height="100%" overflow="visible" style="display: block;" viewBox="0 0 16 18" fill="none" xmlns="http://www.w3.org/2000/svg">
<path id="Vector" d="M14.0625 5.625H11.875V4.0625C11.875 2.98506 11.447 1.95175 10.6851 1.18988C9.92325 0.428012 8.88994 0 7.8125 0C6.73506 0 5.70175 0.428012 4.93988 1.18988C4.17801 1.95175 3.75 2.98506 3.75 4.0625V5.625H1.5625C1.1481 5.625 0.750671 5.78962 0.457646 6.08265C0.16462 6.37567 0 6.7731 0 7.1875V15.9375C0 16.3519 0.16462 16.7493 0.457646 17.0424C0.750671 17.3354 1.1481 17.5 1.5625 17.5H14.0625C14.4769 17.5 14.8743 17.3354 15.1674 17.0424C15.4604 16.7493 15.625 16.3519 15.625 15.9375V7.1875C15.625 6.7731 15.4604 6.37567 15.1674 6.08265C14.8743 5.78962 14.4769 5.625 14.0625 5.625ZM5.625 4.0625C5.625 3.48234 5.85547 2.92594 6.2657 2.5157C6.67594 2.10547 7.23234 1.875 7.8125 1.875C8.39266 1.875 8.94906 2.10547 9.3593 2.5157C9.76953 2.92594 10 3.48234 10 4.0625V5.625H5.625V4.0625ZM13.75 15.625H1.875V7.5H13.75V15.625Z" fill="var(--fill-0, #CBD5E1)"/>
</svg>
