<svg preserveAspectRatio="none" width="100%" height="100%" overflow="visible" style="display: block;" viewBox="0 0 26 12" fill="none" xmlns="http://www.w3.org/2000/svg">
<path id="Vector" d="M17.8457 2.34375C19.1096 2.34375 20.3013 3.51534 20.3086 5.66602C20.3086 8.01699 19.1316 9.08491 17.8389 9.08496C17.2035 9.08496 16.8205 8.81099 16.5605 8.61816L16.5527 10.7168L14.748 11.1104V2.46191H16.3369L16.4307 2.92188C16.6835 2.68459 17.1383 2.34384 17.8457 2.34375ZM2.44141 2.34375C3.04076 2.34378 3.63307 2.43986 4.23242 2.68457V4.42773C3.68362 4.12371 2.99025 3.95318 2.44141 3.95312C2.05863 3.95312 1.82715 4.06427 1.82715 4.35352C1.8272 5.18411 4.57855 4.79111 4.58594 7.00098C4.58594 8.32853 3.55301 9.09277 2.05078 9.09277C1.42976 9.09273 0.750649 8.96653 0.0791016 8.66992V6.9043C0.685657 7.24539 1.45138 7.49795 2.05078 7.49805C2.45514 7.49805 2.74402 7.38688 2.74414 7.0459C2.74414 6.16334 0 6.48933 0 4.44238C5.28228e-05 3.12973 0.975327 2.34375 2.44141 2.34375ZM6.70215 2.46973H8.07422V4.0498H6.70215V6.68262C6.70242 7.77924 7.84233 7.43937 8.07422 7.34277V8.84766C7.83587 8.98113 7.4027 9.09277 6.81055 9.09277C5.74165 9.09277 4.94043 8.28416 4.94043 7.18652L4.94727 1.24609L6.70898 0.860352L6.70215 2.46973ZM23.3926 2.34375C25.1042 2.34375 26 3.84166 26 5.74023C26 5.91822 25.9854 6.30395 25.9854 6.40039H22.4541C22.5335 7.27539 23.1541 7.52727 23.8545 7.52734C24.5693 7.52734 25.133 7.37218 25.624 7.12012V8.60352C25.133 8.8852 24.4831 9.08491 23.624 9.08496C21.8618 9.08496 20.6338 7.95789 20.6338 5.72559C20.6338 3.8418 21.6737 2.34375 23.3926 2.34375ZM10.3203 3.01855C10.7463 2.2179 11.5908 2.3807 11.8223 2.46973V4.17578C11.5981 4.09421 10.8762 3.99062 10.4502 4.56152V8.95898H8.64453V2.46973H10.2051L10.3203 3.01855ZM14.0762 8.95898H12.2627V2.46973H14.0762V8.95898ZM17.4131 3.99023C17.0015 3.99023 16.7415 4.13854 16.5537 4.35352L16.5605 7.10449C16.7339 7.29732 16.987 7.45312 17.4131 7.45312C18.0773 7.45285 18.5254 6.7114 18.5254 5.71777C18.5253 4.74655 18.07 3.99052 17.4131 3.99023ZM23.3857 3.84961C22.9307 3.84961 22.4316 4.19807 22.4316 5.03613H24.2949C24.2949 4.19836 23.8262 3.84985 23.3857 3.84961ZM14.0762 1.50586L12.2627 1.90625V0.393555L14.0762 0V1.50586Z" fill="var(--fill-0, #6461FC)"/>
</svg>
