<svg preserveAspectRatio="none" width="100%" height="100%" overflow="visible" style="display: block;" viewBox="0 0 22 22" fill="none" xmlns="http://www.w3.org/2000/svg">
<path id="Star 1" d="M10.6065 1.34184C10.8322 1.14578 11.1678 1.14578 11.3935 1.34184L13.3418 3.03445C13.4646 3.14111 13.6254 3.19336 13.7874 3.17924L16.3586 2.9551C16.6564 2.92913 16.9279 3.1264 16.9953 3.41768L17.5766 5.93224C17.6133 6.09069 17.7126 6.22748 17.852 6.31129L20.0639 7.64123C20.3201 7.79529 20.4238 8.11447 20.307 8.3897L19.2994 10.7657C19.2359 10.9155 19.2359 11.0845 19.2994 11.2343L20.307 13.6103C20.4238 13.8855 20.3201 14.2047 20.0639 14.3588L17.852 15.6887C17.7126 15.7725 17.6133 15.9093 17.5766 16.0678L16.9953 18.5823C16.9279 18.8736 16.6564 19.0709 16.3586 19.0449L13.7874 18.8208C13.6254 18.8066 13.4646 18.8589 13.3418 18.9655L11.3935 20.6582C11.1678 20.8542 10.8322 20.8542 10.6065 20.6582L8.65816 18.9655C8.53539 18.8589 8.37458 18.8066 8.21256 18.8208L5.64142 19.0449C5.34359 19.0709 5.07208 18.8736 5.00474 18.5823L4.42338 16.0678C4.38675 15.9093 4.28736 15.7725 4.14798 15.6887L1.93615 14.3588C1.67993 14.2047 1.57622 13.8855 1.69295 13.6103L2.70065 11.2343C2.76414 11.0845 2.76414 10.9155 2.70065 10.7657L1.69295 8.3897C1.57622 8.11447 1.67993 7.79529 1.93615 7.64123L4.14798 6.31129C4.28736 6.22748 4.38675 6.09069 4.42338 5.93224L5.00474 3.41768C5.07208 3.1264 5.34359 2.92913 5.64142 2.9551L8.21256 3.17924C8.37458 3.19336 8.53539 3.14111 8.65816 3.03445L10.6065 1.34184Z" stroke="var(--stroke-0, #131927)" stroke-width="1.5"/>
</svg>
