<svg preserveAspectRatio="none" width="100%" height="100%" overflow="visible" style="display: block;" viewBox="0 0 12 12" fill="none" xmlns="http://www.w3.org/2000/svg">
<g id="Group">
<path id="Vector" d="M5.56534 0L5.86146 0.910999H6.81927L6.0444 1.474L6.3404 2.38506L5.56534 1.822L4.7904 2.38506L5.0864 1.474L4.31152 0.910999H5.26934L5.56534 0Z" fill="var(--fill-0, #F0F0F0)"/>
<path id="Vector_2" d="M1.6302 1.63007L2.48363 2.06489L3.16101 1.38757L3.01113 2.3337L3.86463 2.76857L2.91851 2.91832L2.7687 3.86457L2.33376 3.01101L1.3877 3.16089L2.06513 2.48357L1.6302 1.63007Z" fill="var(--fill-0, #F0F0F0)"/>
<path id="Vector_3" d="M0 5.56519L0.910999 5.26919L0.911125 4.31144L1.474 5.08625L2.38506 4.79019L1.822 5.56519L2.38506 6.34025L1.474 6.04425L0.911125 6.81913V5.86131L0 5.56519Z" fill="var(--fill-0, #F0F0F0)"/>
<path id="Vector_4" d="M1.6302 9.50031L2.06501 8.64681L1.3877 7.96956L2.33382 8.11937L2.7687 7.26587L2.91851 8.21199L3.86463 8.36174L3.01113 8.79668L3.16101 9.74287L2.48363 9.06537L1.6302 9.50031Z" fill="var(--fill-0, #F0F0F0)"/>
<path id="Vector_5" d="M5.5654 11.1304L5.2694 10.2194H4.31152L5.08646 9.65636L4.79046 8.74536L5.5654 9.30836L6.34046 8.74536L6.04446 9.65636L6.81934 10.2194H5.86152L5.5654 11.1304Z" fill="var(--fill-0, #F0F0F0)"/>
<path id="Vector_6" d="M9.50006 9.50031L8.64656 9.06556L7.96931 9.74287L8.11913 8.79668L7.26562 8.36187L8.21175 8.21199L8.36162 7.26587L8.79644 8.11937L9.74256 7.96956L9.06512 8.64687L9.50006 9.50031Z" fill="var(--fill-0, #F0F0F0)"/>
<path id="Vector_7" d="M11.1304 5.56519L10.2194 5.86131V6.81913L9.65638 6.04419L8.74538 6.34025L9.30844 5.56519L8.74538 4.79019L9.65638 5.08625L10.2194 4.31144V5.26919L11.1304 5.56519Z" fill="var(--fill-0, #F0F0F0)"/>
<path id="Vector_8" d="M9.50006 1.6302L9.06531 2.48363L9.74256 3.16095L8.79644 3.01107L8.36162 3.86463L8.21175 2.91838L7.26562 2.76857L8.11913 2.33376L7.96931 1.3877L8.64663 2.06495L9.50006 1.6302Z" fill="var(--fill-0, #F0F0F0)"/>
</g>
</svg>
