<svg preserveAspectRatio="none" width="100%" height="100%" overflow="visible" style="display: block;" viewBox="0 0 15 21" fill="none" xmlns="http://www.w3.org/2000/svg">
<g id="Group">
<path id="Vector" d="M1.46288 17.3913L1.80825 18.4542H2.92581L2.02175 19.1111L2.36712 20.1739L1.46288 19.5171L0.558813 20.1739L0.904188 19.1111L0 18.4542H1.1175L1.46288 17.3913Z" fill="var(--fill-0, #FFDA44)"/>
<path id="Vector_2" d="M10.3632 10.4348L10.7085 11.4976H11.8261L10.922 12.1546L11.2674 13.2174L10.3632 12.5606L9.45911 13.2174L9.80449 12.1546L8.90024 11.4976H10.0178L10.3632 10.4348Z" fill="var(--fill-0, #FFDA44)"/>
<path id="Vector_3" d="M12.5932 -3.05176e-05L12.9386 1.06284H14.0562L13.1521 1.71972L13.4974 2.78253L12.5932 2.12572L11.6892 2.78253L12.0346 1.71972L11.1304 1.06284H12.2479L12.5932 -3.05176e-05Z" fill="var(--fill-0, #FFDA44)"/>
<path id="Vector_4" d="M13.1456 7.6521L13.4909 8.71504H14.6084L13.7044 9.37191L14.0497 10.4347L13.1456 9.77791L12.2415 10.4347L12.5869 9.37191L11.6826 8.71504H12.8002L13.1456 7.6521Z" fill="var(--fill-0, #FFDA44)"/>
<path id="Vector_5" d="M3.06534 14.8914L4.06128 15.3988L4.85147 14.6086L4.67672 15.7123L5.67241 16.2197L4.56853 16.3946L4.39372 17.4984L3.88647 16.5026L2.78259 16.6775L3.57278 15.8873L3.06534 14.8914Z" fill="var(--fill-0, #FFDA44)"/>
<path id="Vector_6" d="M3.06537 10.7176L4.06131 11.2249L4.8515 10.4348L4.67675 11.5385L5.67244 12.0458L4.56856 12.2207L4.39375 13.3245L3.8865 12.3288L2.78262 12.5036L3.57281 11.7134L3.06537 10.7176Z" fill="var(--fill-0, #FFDA44)"/>
<path id="Vector_7" d="M6.54361 13.393L7.53955 13.9004L8.32974 13.1102L8.15499 14.2139L9.15068 14.7213L8.0468 14.8961L7.87199 16L7.36474 15.0041L6.26086 15.1791L7.05105 14.3889L6.54361 13.393Z" fill="var(--fill-0, #FFDA44)"/>
<path id="Vector_8" d="M6.54361 4.4567L7.53955 4.96408L8.32974 4.17389L8.15499 5.27764L9.15068 5.78495L8.0468 5.95983L7.87199 7.06364L7.36474 6.06789L6.26086 6.24276L7.05105 5.45258L6.54361 4.4567Z" fill="var(--fill-0, #FFDA44)"/>
<path id="Vector_9" d="M9.91468 4.34955L10.9106 4.85693L11.7008 4.06674L11.526 5.17049L12.5217 5.6778L11.4179 5.85268L11.2431 6.95649L10.7358 5.96074L9.63193 6.13562L10.4221 5.34543L9.91468 4.34955Z" fill="var(--fill-0, #FFDA44)"/>
</g>
</svg>
