<svg preserveAspectRatio="none" width="100%" height="100%" overflow="visible" style="display: block;" viewBox="0 0 22 22" fill="none" xmlns="http://www.w3.org/2000/svg">
<g id="Group">
<path id="Vector" d="M10.75 21.5C4.822 21.5 0 16.678 0 10.75C0 4.822 4.822 0 10.75 0C16.678 0 21.5 4.822 21.5 10.75C21.5 16.678 16.678 21.5 10.75 21.5ZM10.75 1.5C5.65 1.5 1.5 5.65 1.5 10.75C1.5 15.85 5.65 20 10.75 20C15.85 20 20 15.85 20 10.75C20 5.65 15.85 1.5 10.75 1.5Z" fill="var(--fill-0, #1DA1F2)"/>
<path id="Vector_2" d="M10.75 15.865C8.858 15.865 7.117 14.915 6.094 13.321C5.87 12.973 5.971 12.511 6.32 12.286C6.668 12.06 7.132 12.162 7.356 12.512C8.103 13.674 9.372 14.367 10.751 14.367C12.13 14.367 13.399 13.674 14.147 12.513C14.371 12.163 14.835 12.063 15.183 12.288C15.533 12.512 15.633 12.976 15.409 13.324C14.384 14.918 12.643 15.869 10.751 15.869L10.75 15.865Z" fill="var(--fill-0, #1DA1F2)"/>
<path id="Vector_3" d="M13.488 9.686C14.3043 9.686 14.966 9.02428 14.966 8.208C14.966 7.39172 14.3043 6.73 13.488 6.73C12.6717 6.73 12.01 7.39172 12.01 8.208C12.01 9.02428 12.6717 9.686 13.488 9.686Z" fill="var(--fill-0, #1DA1F2)"/>
<path id="Vector_4" d="M8.012 9.686C8.82828 9.686 9.49 9.02428 9.49 8.208C9.49 7.39172 8.82828 6.73 8.012 6.73C7.19572 6.73 6.534 7.39172 6.534 8.208C6.534 9.02428 7.19572 9.686 8.012 9.686Z" fill="var(--fill-0, #1DA1F2)"/>
</g>
</svg>
