<svg preserveAspectRatio="none" width="100%" height="100%" overflow="visible" style="display: block;" viewBox="0 0 17 17" fill="none" xmlns="http://www.w3.org/2000/svg">
<path id="Vector" d="M16.6165 15.29L12.9064 11.5783C14.0188 10.1286 14.5382 8.31013 14.3591 6.49165C14.1801 4.67318 13.316 2.99089 11.9422 1.78607C10.5684 0.581238 8.78776 -0.0559155 6.96147 0.00385482C5.13517 0.0636252 3.4 0.815844 2.10792 2.10792C0.815844 3.4 0.0636252 5.13517 0.00385482 6.96147C-0.0559155 8.78776 0.581238 10.5684 1.78607 11.9422C2.99089 13.316 4.67318 14.1801 6.49165 14.3591C8.31013 14.5382 10.1286 14.0188 11.5783 12.9064L15.2915 16.6204C15.3787 16.7077 15.4823 16.7768 15.5962 16.824C15.7102 16.8712 15.8323 16.8955 15.9556 16.8955C16.0789 16.8955 16.2011 16.8712 16.315 16.824C16.4289 16.7768 16.5325 16.7077 16.6197 16.6204C16.7069 16.5332 16.776 16.4297 16.8232 16.3158C16.8704 16.2018 16.8947 16.0797 16.8947 15.9564C16.8947 15.8331 16.8704 15.7109 16.8232 15.597C16.776 15.4831 16.7069 15.3795 16.6197 15.2923L16.6165 15.29ZM1.89076 7.20326C1.89076 6.15255 2.20233 5.12543 2.78608 4.2518C3.36982 3.37816 4.19952 2.69724 5.17026 2.29515C6.14099 1.89306 7.20916 1.78786 8.23968 1.99284C9.2702 2.19782 10.2168 2.70379 10.9598 3.44676C11.7027 4.18972 12.2087 5.13632 12.4137 6.16684C12.6187 7.19737 12.5135 8.26554 12.1114 9.23627C11.7093 10.207 11.0284 11.0367 10.1547 11.6204C9.28109 12.2042 8.25398 12.5158 7.20326 12.5158C5.79474 12.5143 4.44433 11.9541 3.44836 10.9582C2.45238 9.96219 1.89221 8.61178 1.89076 7.20326Z" fill="var(--fill-0, #475569)"/>
</svg>
