<svg preserveAspectRatio="none" width="100%" height="100%" overflow="visible" style="display: block;" viewBox="0 0 28 21" fill="none" xmlns="http://www.w3.org/2000/svg">
<g id="Group">
<path id="Vector" d="M1.52287 0C0.961437 0.652062 0.45175 1.34975 0 2.08694H27.3032C26.8515 1.34975 26.3419 0.652 25.7804 0H1.52287Z" fill="var(--fill-0, #D80027)"/>
<path id="Vector_2" d="M1.52286 20.8696H25.7804C26.3419 20.2176 26.8515 19.5199 27.3033 18.7827H4.76837e-05C0.451735 19.5198 0.961423 20.2176 1.52286 20.8696V20.8696Z" fill="var(--fill-0, #D80027)"/>
<path id="Vector_3" d="M11.6042 7.50893L12.9169 9.318L15.043 8.62862L13.7282 10.4361L15.0408 12.2451L12.9155 11.5531L11.6007 13.3606L11.602 11.1256L9.47667 10.4336L11.6028 9.74418L11.6042 7.50893Z" fill="var(--fill-0, #D80027)"/>
<path id="Vector_4" d="M8.02138 14.9566C5.52413 14.9566 3.49963 12.9321 3.49963 10.4348C3.49963 7.93756 5.52413 5.91306 8.02138 5.91306C8.80001 5.91306 9.5327 6.10994 10.1723 6.45656C9.16888 5.47525 7.79657 4.86956 6.28226 4.86956C3.20863 4.86956 0.717072 7.36119 0.717072 10.4347C0.717072 13.5083 3.2087 15.9999 6.28226 15.9999C7.79657 15.9999 9.16888 15.3942 10.1723 14.4129C9.5327 14.7597 8.80007 14.9566 8.02138 14.9566Z" fill="var(--fill-0, #D80027)"/>
</g>
</svg>
