<svg preserveAspectRatio="none" width="100%" height="100%" overflow="visible" style="display: block;" viewBox="0 0 19 12" fill="none" xmlns="http://www.w3.org/2000/svg">
<path id="Vector" d="M18.0869 0C17.5999 0 16.997 0 15.9999 0C15.9999 3.842 12.8853 6.9565 9.04344 6.9565C5.20138 6.9565 2.08694 3.842 2.08694 0C1.41444 0 0.672375 0 0 0C0 4.13844 2.77975 7.62762 6.57413 8.70219C6.15813 9.49244 6.2215 10.4874 6.81575 11.2289C7.59625 10.6034 8.40431 9.95581 9.08981 9.40656C9.77531 9.95588 10.5834 10.6034 11.3639 11.2289C11.964 10.48 12.0231 9.47244 11.5933 8.67838C15.3461 7.57744 18.0869 4.109 18.0869 0V0Z" fill="var(--fill-0, #6DA544)"/>
</svg>
