<svg preserveAspectRatio="none" width="100%" height="100%" overflow="visible" style="display: block;" viewBox="0 0 10 12" fill="none" xmlns="http://www.w3.org/2000/svg">
<g id="Group">
<path id="Vector" d="M6.50788 2.63937L7.82063 4.44844L9.94669 3.75906L8.63187 5.56656L9.9445 7.37556L7.81912 6.68356L6.50431 8.49106L6.50569 6.256L4.38037 5.564L6.5065 4.87462L6.50788 2.63937Z" fill="var(--fill-0, #D80027)"/>
<path id="Vector_2" d="M7.30431 10.087C4.80706 10.087 2.78256 8.0625 2.78256 5.56525C2.78256 3.068 4.80706 1.0435 7.30431 1.0435C8.08294 1.0435 8.81562 1.24038 9.45525 1.587C8.45181 0.605688 7.07963 0 5.56519 0C2.49169 0 0 2.49163 0 5.56519C0 8.63875 2.49169 11.1304 5.56519 11.1304C7.07963 11.1304 8.45187 10.5247 9.45525 9.54338C8.81562 9.89013 8.08294 10.087 7.30431 10.087Z" fill="var(--fill-0, #D80027)"/>
</g>
</svg>
