<svg preserveAspectRatio="none" width="100%" height="100%" overflow="visible" style="display: block;" viewBox="0 0 12 14" fill="none" xmlns="http://www.w3.org/2000/svg">
<path id="Vector" d="M5.56519 0C2.4965 0 0 2.49656 0 5.56519V7.65213C0 10.7208 2.49656 13.2173 5.56519 13.2173C8.63381 13.2173 11.1304 10.7208 11.1304 7.65213V5.56519C11.1304 2.49656 8.63387 0 5.56519 0ZM9.04344 7.65219C9.04344 9.20669 8.01831 10.526 6.60862 10.9703V8.69569L8.08512 7.21919L6.60944 5.7435L6.60862 5.21831V4.52181H4.52175V6.60869L3.04625 8.08412L4.52175 9.55956V10.9704C3.11206 10.5261 2.08694 9.20675 2.08694 7.65225V5.56531C2.08694 3.64737 3.64731 2.08706 5.56519 2.08706C7.48306 2.08706 9.04344 3.64744 9.04344 5.56531V7.65219Z" fill="var(--fill-0, #FFDA44)"/>
</svg>
