<svg preserveAspectRatio="none" width="100%" height="100%" overflow="visible" style="display: block;" viewBox="0 0 32 32" fill="none" xmlns="http://www.w3.org/2000/svg">
<g id="Group">
<path id="Vector" d="M0 17.9515C0.37225 20.8086 1.49863 23.4283 3.17219 25.6055L11.6906 17.9515H0Z" fill="var(--fill-0, #D80027)"/>
<path id="Vector_2" d="M13.7775 31.7291V20.0385L6.12354 28.5569C8.30085 30.2305 10.9205 31.3569 13.7775 31.7291V31.7291Z" fill="var(--fill-0, #D80027)"/>
<path id="Vector_3" d="M13.7775 0C10.9205 0.37225 8.30085 1.49863 6.12354 3.17219L13.7775 11.6907V0Z" fill="var(--fill-0, #D80027)"/>
<path id="Vector_4" d="M0 13.7776H11.6906L3.17213 6.12363C1.49856 8.30088 0.372187 10.9206 0 13.7776V13.7776Z" fill="var(--fill-0, #D80027)"/>
<path id="Vector_5" d="M17.9517 0V11.6906L25.6058 3.17219C23.4285 1.49875 20.8088 0.372187 17.9517 0V0Z" fill="var(--fill-0, #D80027)"/>
<path id="Vector_6" d="M31.7292 13.7776C31.357 10.9205 30.2306 8.30085 28.557 6.12354L20.0386 13.7776H31.7292Z" fill="var(--fill-0, #D80027)"/>
<path id="Vector_7" d="M20.0386 17.9515L28.5571 25.6056C30.2306 23.4283 31.357 20.8086 31.7293 17.9515H20.0386Z" fill="var(--fill-0, #D80027)"/>
<path id="Vector_8" d="M17.9517 31.7291C20.8087 31.3568 23.4285 30.2305 25.6057 28.5568L17.9517 20.0385V31.7291Z" fill="var(--fill-0, #D80027)"/>
</g>
</svg>
