<svg preserveAspectRatio="none" width="100%" height="100%" overflow="visible" style="display: block;" viewBox="0 0 9 5" fill="none" xmlns="http://www.w3.org/2000/svg">
<path id="Vector" d="M1.89769 3.77994C2.79425 4.34337 3.71537 4.6705 4.18694 4.816C4.6585 4.67056 5.57963 4.34337 6.47619 3.77994C7.38031 3.21169 8.01412 2.56181 8.374 1.83775C7.97706 1.55694 7.49275 1.39131 6.96956 1.39131C6.77906 1.39131 6.594 1.41387 6.41606 1.45531C6.039 0.598561 5.18306 0 4.187 0C3.19094 0 2.33494 0.598561 1.95794 1.45531C1.78 1.41387 1.59488 1.39131 1.40444 1.39131C0.88125 1.39131 0.396937 1.55694 0 1.83775C0.359688 2.56175 0.9935 3.21162 1.89769 3.77994Z" fill="var(--fill-0, #0052B4)"/>
</svg>
