<svg preserveAspectRatio="none" width="100%" height="100%" overflow="visible" style="display: block;" viewBox="0 0 28 26" fill="none" xmlns="http://www.w3.org/2000/svg">
<g id="Group">
<path id="Vector" d="M19.6766 9.04356H15.6601L13.652 5.56531L11.6439 9.04356H7.62744L9.63582 12.5218L7.62744 16.0001H11.6439L13.652 19.4783L15.6601 16.0001H19.6766L17.6682 12.5218L19.6766 9.04356ZM16.1192 12.5218L14.8857 14.6586H12.4185L11.1848 12.5218L12.4184 10.3851H14.8856L16.1192 12.5218ZM13.652 8.24825L14.1111 9.0435H13.193L13.652 8.24825ZM9.95113 10.3851H10.8694L10.4103 11.1803L9.95113 10.3851ZM9.95113 14.6586L10.4103 13.8633L10.8694 14.6586H9.95113ZM13.652 16.7953L13.1929 16.0001H14.1111L13.652 16.7953ZM17.3529 14.6586H16.4346L16.8938 13.8633L17.3529 14.6586ZM16.4346 10.3851H17.3529L16.8938 11.1803L16.4346 10.3851Z" fill="var(--fill-0, #0052B4)"/>
<path id="Vector_2" d="M23.6114 0H3.69181C2.23162 1.163 0.979375 2.57562 0 4.17394H27.3032C26.3238 2.57569 25.0716 1.163 23.6114 0V0Z" fill="var(--fill-0, #0052B4)"/>
<path id="Vector_3" d="M3.69181 25.0435H23.6114C25.0716 23.8805 26.3238 22.4679 27.3032 20.8696H0C0.979437 22.4678 2.23169 23.8805 3.69181 25.0435V25.0435Z" fill="var(--fill-0, #0052B4)"/>
</g>
</svg>
