<svg preserveAspectRatio="none" width="100%" height="100%" overflow="visible" style="display: block;" viewBox="0 0 32 16" fill="none" xmlns="http://www.w3.org/2000/svg">
<g id="Vector">
<mask id="path-1-inside-1_26_7635" fill="white">
<path d="M32 16C32 13.8989 31.5861 11.8183 30.7821 9.87706C29.978 7.93586 28.7994 6.17203 27.3137 4.68629C25.828 3.20055 24.0641 2.022 22.1229 1.21793C20.1817 0.413852 18.1011 -9.18442e-08 16 0C13.8988 9.18442e-08 11.8183 0.413852 9.87706 1.21793C7.93585 2.022 6.17203 3.20055 4.68629 4.68629C3.20055 6.17203 2.022 7.93586 1.21793 9.87707C0.413852 11.8183 -1.83688e-07 13.8989 0 16L16 16H32Z"/>
</mask>
<path d="M32 16C32 13.8989 31.5861 11.8183 30.7821 9.87706C29.978 7.93586 28.7994 6.17203 27.3137 4.68629C25.828 3.20055 24.0641 2.022 22.1229 1.21793C20.1817 0.413852 18.1011 -9.18442e-08 16 0C13.8988 9.18442e-08 11.8183 0.413852 9.87706 1.21793C7.93585 2.022 6.17203 3.20055 4.68629 4.68629C3.20055 6.17203 2.022 7.93586 1.21793 9.87707C0.413852 11.8183 -1.83688e-07 13.8989 0 16L16 16H32Z" stroke="var(--stroke-0, #5EEAD4)" stroke-width="16" mask="url(#path-1-inside-1_26_7635)"/>
</g>
</svg>
