<svg preserveAspectRatio="none" width="100%" height="100%" overflow="visible" style="display: block;" viewBox="0 0 32 27" fill="none" xmlns="http://www.w3.org/2000/svg">
<g id="Group">
<path id="Vector" d="M32.0001 10.7768C32.0001 6.62539 30.419 2.84364 27.8262 1.52588e-05V21.5536C30.419 18.7099 32.0001 14.9281 32.0001 10.7768Z" fill="var(--fill-0, #0052B4)"/>
<path id="Vector_2" d="M19.9868 24.8938L21.6628 24.8927L22.1798 23.2984L22.6986 24.8921L23.5392 24.8916C24.0547 24.6157 24.5533 24.3124 25.033 23.9836L2.79306 1.74368C2.42656 2.27843 2.09231 2.83681 1.79175 3.41556L1.98937 4.02256L3.66531 4.0215L2.31006 5.00743L2.82894 6.60112L1.47244 5.61687L0.663375 6.20537C0.232063 7.65387 0 9.18818 0 10.7767C0 19.6132 7.1635 26.7767 16 26.7767C17.8683 26.7767 19.6614 26.456 21.3281 25.8672L19.9868 24.8938ZM3.56869 10.0811L4.08556 8.48687L2.72919 7.5025L4.40513 7.50143L4.92206 5.90712L5.44094 7.50081L7.11688 7.49974L5.76156 8.48568L6.28044 10.0794L4.92394 9.09512L3.56869 10.0811ZM7.02025 13.5594L7.53713 11.9651L6.18075 10.9807L7.85669 10.9797L8.37362 9.38537L8.8925 10.9791L10.5684 10.978L9.21319 11.9639L9.73206 13.5576L8.37556 12.5734L7.02025 13.5594ZM10.4718 17.0376L10.9886 15.4434L9.63225 14.459L11.3082 14.4579L11.8251 12.8636L12.344 14.4573L14.0199 14.4562L12.6647 15.4422L13.1836 17.0359L11.8271 16.0515L10.4718 17.0376ZM15.2786 19.5299L13.9233 20.5159L14.4401 18.9216L13.0837 17.9372L14.7597 17.9362L15.2767 16.3419L15.7956 17.9356L17.4715 17.9345L16.1162 18.9204L16.6351 20.5141L15.2786 19.5299ZM17.3748 23.9941L17.8917 22.3999L16.5353 21.4155L18.2113 21.4144L18.7282 19.8201L19.2471 21.4138L20.923 21.4127L19.5678 22.3987L20.0866 23.9924L18.7301 23.008L17.3748 23.9941Z" fill="var(--fill-0, #0052B4)"/>
</g>
</svg>
