<svg preserveAspectRatio="none" width="100%" height="100%" overflow="visible" style="display: block;" viewBox="0 0 15 10" fill="none" xmlns="http://www.w3.org/2000/svg">
<g id="Pay">
<path id="Union" d="M12.251 6.19141H12.2695L13.7705 2.42285H14.8252L11.582 9.97754H10.5811L11.7871 7.33496L9.65918 2.42285H10.7139L12.251 6.19141ZM7.1748 2.25195C7.8922 2.25198 8.45902 2.44768 8.875 2.83301C9.29091 3.21835 9.49609 3.75667 9.49609 4.43555V7.6709H8.56738V6.94336H8.52539C8.12153 7.54267 7.5909 7.84265 6.92188 7.84277C6.35515 7.84277 5.87202 7.67163 5.49219 7.3291C5.11839 7.01103 4.90786 6.5394 4.91992 6.04395C4.91997 5.4997 5.12449 5.07121 5.52832 4.74707C5.93223 4.42291 6.47522 4.26468 7.15039 4.26465C7.72906 4.26465 8.19948 4.37415 8.57324 4.58203V4.35547C8.57311 4.01934 8.42873 3.70154 8.17578 3.48145C7.91658 3.24906 7.58479 3.12017 7.24121 3.12012C6.69871 3.12012 6.27052 3.35271 5.95703 3.81738L5.10059 3.27344C5.55879 2.59448 6.25236 2.25195 7.1748 2.25195ZM2.57422 0.000976562C3.19521 -0.0112568 3.79816 0.227567 4.23828 0.667969C5.11842 1.49985 5.17262 2.90069 4.34668 3.7998L4.23828 3.90918C3.7861 4.34346 3.23138 4.56348 2.57422 4.56348H0.970703V7.6709H0V0.000976562H2.57422ZM7.30176 5.05957C6.90981 5.05957 6.57782 5.15706 6.3125 5.34668C6.05322 5.5363 5.9209 5.77502 5.9209 6.0625C5.92091 6.31939 6.04125 6.55828 6.24023 6.70508C6.45729 6.87627 6.72285 6.96803 6.99414 6.96191C7.40401 6.96188 7.79558 6.79633 8.08496 6.50293C8.40455 6.1971 8.56738 5.83586 8.56738 5.41992C8.26595 5.17551 7.8441 5.05349 7.30176 5.05957ZM0.970703 3.62207H2.59863C2.96031 3.6343 3.3104 3.48746 3.55762 3.22461C4.06414 2.69246 4.05195 1.83607 3.52734 1.32227C3.28012 1.07764 2.94834 0.942383 2.59863 0.942383H0.970703V3.62207Z" fill="var(--fill-0, #3C4043)"/>
</g>
</svg>
