<svg preserveAspectRatio="none" width="100%" height="100%" overflow="visible" style="display: block;" viewBox="0 0 70 28" fill="none" xmlns="http://www.w3.org/2000/svg">
<g id="linez">
<path d="M4.52645 21.7496V21.7137C4.52645 22.2345 4.54441 22.5937 4.56237 22.7913C4.58033 22.9889 4.68809 23.1864 4.86769 23.384C5.04729 23.5816 5.35261 23.6714 5.7657 23.6534C6.82534 23.6534 7.34618 24.3359 7.34618 25.7188C7.34618 27.1915 6.62778 27.9279 5.17301 27.9279C3.50273 27.9279 2.22757 27.4789 1.32956 26.5988C0.43156 25.7188 -0.0174418 24.4436 0.000518206 22.7733V2.28093C0.000518206 0.754322 0.75484 0 2.26349 0C3.77213 0 4.52645 0.754322 4.52645 2.28093V21.7496Z" fill="var(--fill-0, #1E293B)"/>
<path d="M13.5079 25.3416C13.5079 26.9042 12.7536 27.6944 11.2449 27.6944C9.7363 27.6944 8.98198 26.9042 8.98198 25.3416V12.0692C8.98198 10.5246 9.7363 9.75231 11.2449 9.75231C12.7536 9.75231 13.5079 10.5246 13.5079 12.0692V25.3416ZM11.227 6.98646V6.95054C10.3829 6.95054 9.68242 6.66318 9.12566 6.10642C8.5689 5.5317 8.2995 4.83125 8.2995 4.02305C8.2995 3.21485 8.5689 2.53237 9.12566 1.97561C9.68242 1.41884 10.3829 1.13148 11.227 1.13148C12.0532 1.13148 12.7356 1.41884 13.2924 1.97561C13.8492 2.53237 14.1186 3.23281 14.1186 4.05897C14.1186 4.88513 13.8492 5.56762 13.2924 6.12438C12.7356 6.68114 12.0532 6.9685 11.227 6.98646Z" fill="var(--fill-0, #1E293B)"/>
<path d="M33.894 25.3416V25.3237C33.894 26.8862 33.1397 27.6764 31.649 27.6764C30.1583 27.6764 29.404 26.8862 29.404 25.3237V18.1217C29.404 15.3558 28.1827 13.9729 25.7581 13.955C23.3515 13.955 22.1481 15.3199 22.1661 18.0499V25.3237C22.1661 26.8862 21.4118 27.6764 19.9031 27.6764C18.3945 27.6764 17.6402 26.8862 17.6402 25.3237V12.4463C17.6402 10.6324 18.3945 9.73435 19.8852 9.75231C21.1603 9.75231 21.9147 10.2732 22.1661 11.2969C23.6209 10.2193 25.1475 9.68047 26.7639 9.68047C28.8472 9.68047 30.5534 10.3091 31.9004 11.5842C33.2475 12.8594 33.912 14.7991 33.894 17.4033V25.3416Z" fill="var(--fill-0, #1E293B)"/>
<path d="M45.1384 13.7574C44.0788 13.7574 43.1449 14.0448 42.3546 14.6015C41.5644 15.1583 41.0076 15.9126 40.6664 16.8645H49.377C49.2513 15.9844 48.7843 15.2481 47.9582 14.6554C47.132 14.0627 46.1981 13.7574 45.1384 13.7574ZM50.1673 22.2884L50.2032 22.3243C50.6342 22.3243 51.0653 22.5578 51.4963 23.0428C51.9273 23.5277 52.1429 24.0844 52.1429 24.713C52.1429 25.3416 51.7837 25.8625 51.0653 26.2756C49.3231 27.407 47.4553 27.9818 45.4438 27.9997C42.8216 28.0177 40.6125 27.1556 38.8165 25.4135C37.0385 23.6714 36.1405 21.5161 36.1405 18.9479C36.1405 16.3796 36.9666 14.2064 38.6369 12.4284C40.3072 10.6503 42.4444 9.75231 45.0486 9.73435C47.6529 9.73435 49.7901 10.6144 51.4604 12.3924C53.1307 14.1705 53.9568 16.3077 53.9568 18.8221C53.9568 19.774 53.5438 20.2589 52.7355 20.2589H40.5227C40.7921 21.3545 41.3489 22.2345 42.193 22.8991C43.0371 23.5636 44.0968 23.8869 45.354 23.8689C46.6112 23.851 47.7786 23.4738 48.8562 22.7374C49.3052 22.4321 49.7362 22.2884 50.1673 22.2884Z" fill="var(--fill-0, #1E293B)"/>
<path d="M67.5361 23.0966L67.572 23.0787C69.0627 23.0787 69.817 23.7971 69.817 25.2518C69.817 26.7066 69.0627 27.425 67.572 27.425H58.1609C57.245 27.425 56.5445 27.1197 56.0596 26.527C55.5747 25.9343 55.3412 25.2698 55.3412 24.5334C55.3412 23.7971 55.5567 23.1864 56.0057 22.7015L63.6567 14.2782H57.5503C56.0596 14.2782 55.3053 13.5598 55.3053 12.123C55.3053 10.6862 56.0596 9.96783 57.5503 9.96783H67.0691C67.9491 9.96783 68.6137 10.2552 69.0627 10.812C69.5117 11.3687 69.7452 12.0153 69.7452 12.7516C69.7452 13.488 69.5296 14.0807 69.1166 14.5297L61.4656 23.0966H67.5361Z" fill="var(--fill-0, #1E293B)"/>
</g>
</svg>
