<svg preserveAspectRatio="none" width="100%" height="100%" overflow="visible" style="display: block;" viewBox="0 0 18 15" fill="none" xmlns="http://www.w3.org/2000/svg">
<g id="Group">
<path id="Vector" d="M11.4131 2.71737C11.4131 1.21662 10.1964 0 8.69563 0C7.19481 0 5.97819 1.21662 5.97819 2.71737H0C0 4.19494 1.28712 5.39288 2.76469 5.39288H2.67569C2.67569 6.87056 3.87344 8.06856 5.35125 8.06856C5.35125 9.37688 6.29087 10.464 7.53181 10.6964L7.52488 10.712H9.86644L9.8595 10.6964C11.1005 10.4639 12.0401 9.37681 12.0401 8.06856C13.5178 8.06856 14.7156 6.87056 14.7156 5.39288H14.6265C16.1041 5.39288 17.3913 4.19494 17.3913 2.71737H11.4131Z" fill="var(--fill-0, #FFDA44)"/>
<path id="Vector_2" d="M7.50107 10.4348L5.81619 14.2387C6.70519 14.6001 7.67688 14.8009 8.69569 14.8009C9.71451 14.8009 10.6862 14.6001 11.5751 14.2387L9.89032 10.4348H7.50107Z" fill="var(--fill-0, #FFDA44)"/>
</g>
</svg>
