<svg preserveAspectRatio="none" width="100%" height="100%" overflow="visible" style="display: block;" viewBox="0 0 12 12" fill="none" xmlns="http://www.w3.org/2000/svg">
<g id="Group">
<path id="Vector" d="M5.56519 0C2.49156 0 0 2.49163 0 5.56519C0 8.63875 2.49163 11.1304 5.56519 11.1304C8.63875 11.1304 11.1304 8.63875 11.1304 5.56519C11.1304 2.49163 8.63881 0 5.56519 0ZM5.56519 9.04344C3.64419 9.04344 2.08694 7.48612 2.08694 5.56519C2.08694 3.64425 3.64425 2.08694 5.56519 2.08694C7.48612 2.08694 9.04344 3.64425 9.04344 5.56519C9.04344 7.48612 7.48619 9.04344 5.56519 9.04344Z" fill="var(--fill-0, #FFDA44)"/>
<path id="Vector_2" d="M5.56514 3.47824C4.7967 3.47824 4.17383 4.10112 4.17383 4.86955V6.95649H6.95645V4.86955C6.95645 4.10112 6.33358 3.47824 5.56514 3.47824V3.47824Z" fill="var(--fill-0, #FFDA44)"/>
</g>
</svg>
