<svg preserveAspectRatio="none" width="100%" height="100%" overflow="visible" style="display: block;" viewBox="0 0 10 23" fill="none" xmlns="http://www.w3.org/2000/svg">
<g id="Group">
<path id="Vector" d="M9.56444 18.0594L7.61037 17.1403L8.65094 15.2478L6.52906 15.6538L6.26019 13.5101L4.78225 15.0867L3.30431 13.5101L3.03538 15.6538L0.913562 15.2478L1.95412 17.1403L0 18.0594L1.95412 18.9784L0.913562 20.8709L3.0355 20.4651L3.30425 22.6086L4.78225 21.032L6.26019 22.6086L6.52906 20.4651L8.65088 20.871L7.61031 18.9786L9.56444 18.0594Z" fill="var(--fill-0, #F0F0F0)"/>
<path id="Vector_2" d="M8.26054 3.30875L6.83929 2.64031L7.5961 1.26388L6.05279 1.55912L5.85723 0L4.78229 1.14669L3.70735 0L3.51173 1.55912L1.96842 1.26388L2.72529 2.64031L1.30398 3.30875L4.78229 4.0045L8.26054 3.30875Z" fill="var(--fill-0, #F0F0F0)"/>
<path id="Vector_3" d="M8.95613 3.30875C8.95613 5.61393 7.08738 7.48268 4.78219 7.48268C2.477 7.48268 0.608253 5.61393 0.608253 3.30875" fill="var(--fill-0, #F0F0F0)"/>
</g>
</svg>
