<svg preserveAspectRatio="none" width="100%" height="100%" overflow="visible" style="display: block;" viewBox="0 0 19 21" fill="none" xmlns="http://www.w3.org/2000/svg">
<path id="Vector" d="M16.875 6.75H14.25V4.875C14.25 3.58207 13.7364 2.34209 12.8221 1.42785C11.9079 0.513615 10.6679 0 9.375 0C8.08207 0 6.84209 0.513615 5.92785 1.42785C5.01361 2.34209 4.5 3.58207 4.5 4.875V6.75H1.875C1.37772 6.75 0.900806 6.94754 0.549175 7.29917C0.197544 7.65081 0 8.12772 0 8.625V19.125C0 19.6223 0.197544 20.0992 0.549175 20.4508C0.900806 20.8025 1.37772 21 1.875 21H16.875C17.3723 21 17.8492 20.8025 18.2008 20.4508C18.5525 20.0992 18.75 19.6223 18.75 19.125V8.625C18.75 8.12772 18.5525 7.65081 18.2008 7.29917C17.8492 6.94754 17.3723 6.75 16.875 6.75ZM6.75 4.875C6.75 4.17881 7.02656 3.51113 7.51884 3.01884C8.01113 2.52656 8.67881 2.25 9.375 2.25C10.0712 2.25 10.7389 2.52656 11.2312 3.01884C11.7234 3.51113 12 4.17881 12 4.875V6.75H6.75V4.875ZM16.5 18.75H2.25V9H16.5V18.75Z" fill="var(--fill-0, #1E293B)"/>
</svg>
