<svg preserveAspectRatio="none" width="100%" height="100%" overflow="visible" style="display: block;" viewBox="0 0 16 16" fill="none" xmlns="http://www.w3.org/2000/svg">
<g id="Group">
<path id="Vector" d="M15.9998 0C15.9989 0 15.9979 6.25e-05 15.9971 6.25e-05L15.9998 0Z" fill="var(--fill-0, #F0F0F0)"/>
<path id="Vector_2" d="M15.957 16H15.9998C15.9998 15.9855 15.9998 15.9716 15.9998 15.9572C15.9856 15.9715 15.9713 15.9857 15.957 16Z" fill="var(--fill-0, #F0F0F0)"/>
<path id="Vector_3" d="M16 8.34806C16 5.53274 16 3.68793 16 0.000244141H15.9973C7.162 0.00168164 0 7.16449 0 16.0002H8.34781V11.2994L13.0486 16.0002H15.9572C15.9716 15.9859 15.9858 15.9717 16.0001 15.9574C16.0001 14.8794 16.0001 13.9176 16.0001 13.0489L11.2992 8.34806H16Z" fill="var(--fill-0, #F0F0F0)"/>
</g>
</svg>
