<svg preserveAspectRatio="none" width="100%" height="100%" overflow="visible" style="display: block;" viewBox="0 0 12 14" fill="none" xmlns="http://www.w3.org/2000/svg">
<g id="Group">
<path id="Vector" d="M0 0H2.08694V2.08694H0V0Z" fill="var(--fill-0, #FFDA44)"/>
<path id="Vector_2" d="M9.04346 0H11.1304V2.08694H9.04346V0Z" fill="var(--fill-0, #FFDA44)"/>
<path id="Vector_3" d="M9.04346 4.52175H11.1304V6.60869H9.04346V4.52175Z" fill="var(--fill-0, #FFDA44)"/>
<path id="Vector_4" d="M0 4.52175H2.08694V6.60869H0V4.52175Z" fill="var(--fill-0, #FFDA44)"/>
<path id="Vector_5" d="M5.56547 11.1305C5.20197 11.1305 4.85154 11.0742 4.52197 10.9703V13.1179C4.86022 13.1824 5.20872 13.2175 5.56547 13.2175C5.92222 13.2175 6.27072 13.1824 6.60897 13.1179V10.9703C6.27941 11.0741 5.92897 11.1305 5.56547 11.1305Z" fill="var(--fill-0, #FFDA44)"/>
<path id="Vector_6" d="M2.13376 8.2168L0.468262 9.8823C0.757012 10.5397 1.16901 11.1309 1.67539 11.6265L3.15039 10.1515C2.62401 9.64298 2.25732 8.97048 2.13376 8.2168Z" fill="var(--fill-0, #FFDA44)"/>
<path id="Vector_7" d="M10.662 9.88242L8.99654 8.21692C8.87292 8.97054 8.50629 9.64298 7.97998 10.1517L9.45498 11.6267C9.96123 11.131 10.3733 10.5399 10.662 9.88242Z" fill="var(--fill-0, #FFDA44)"/>
</g>
</svg>
