<svg preserveAspectRatio="none" width="100%" height="100%" overflow="visible" style="display: block;" viewBox="0 0 10 8" fill="none" xmlns="http://www.w3.org/2000/svg">
<path id="Vector" d="M9.42383 0.331356C9.52871 0.435872 9.61192 0.560065 9.6687 0.696811C9.72548 0.833556 9.75471 0.980165 9.75471 1.12823C9.75471 1.2763 9.72548 1.42291 9.6687 1.55965C9.61192 1.6964 9.52871 1.82059 9.42383 1.92511L4.17383 7.17511C4.06931 7.27999 3.94512 7.3632 3.80837 7.41998C3.67163 7.47676 3.52502 7.50599 3.37695 7.50599C3.22889 7.50599 3.08228 7.47676 2.94553 7.41998C2.80878 7.3632 2.68459 7.27999 2.58008 7.17511L0.330076 4.92511C0.225429 4.82046 0.142419 4.69622 0.085784 4.5595C0.0291493 4.42277 2.9173e-09 4.27622 0 4.12823C-2.9173e-09 3.98024 0.0291493 3.83369 0.085784 3.69696C0.142419 3.56024 0.225429 3.436 0.330076 3.33136C0.434723 3.22671 0.558957 3.1437 0.695685 3.08706C0.832413 3.03043 0.978958 3.00128 1.12695 3.00128C1.27494 3.00128 1.42149 3.03043 1.55822 3.08706C1.69494 3.1437 1.81918 3.22671 1.92383 3.33136L3.37789 4.78354L7.83195 0.328544C7.93662 0.224129 8.06084 0.141369 8.19751 0.0849956C8.33419 0.0286219 8.48063 -0.00025945 8.62847 1.75604e-06C8.77631 0.000262962 8.92265 0.0296619 9.05913 0.0865181C9.1956 0.143374 9.31953 0.226573 9.42383 0.331356Z" fill="var(--fill-0, white)"/>
</svg>
