<svg preserveAspectRatio="none" width="100%" height="100%" overflow="visible" style="display: block;" viewBox="0 0 1 4" fill="none" xmlns="http://www.w3.org/2000/svg">
<g id="Group">
<path id="Vector" d="M0.0903702 2.10776C0.0896827 2.13863 0.0889945 2.16963 0.0881195 2.20051C0.0888695 2.16951 0.0896202 2.13863 0.0903702 2.10776Z" fill="var(--fill-0, #F0F0F0)"/>
<path id="Vector_2" d="M0.0749969 2.54501C0.0735594 2.57558 0.071434 2.60601 0.069809 2.63651C0.071434 2.60608 0.0734344 2.57558 0.0749969 2.54501Z" fill="var(--fill-0, #F0F0F0)"/>
<path id="Vector_3" d="M0.0533638 2.89365C0.0501763 2.93858 0.0470515 2.98352 0.0434265 3.02833C0.0470515 2.98352 0.0501138 2.93858 0.0533638 2.89365Z" fill="var(--fill-0, #F0F0F0)"/>
<path id="Vector_4" d="M0 0C0.005875 0.0535 0.0117506 0.106938 0.0170631 0.160563C0.0117506 0.106875 0.0058125 0.0535 0 0Z" fill="var(--fill-0, #F0F0F0)"/>
<path id="Vector_5" d="M0.0696716 0.851166C0.0713591 0.881666 0.0734221 0.912104 0.0748596 0.942666C0.0733596 0.912104 0.0713591 0.881603 0.0696716 0.851166Z" fill="var(--fill-0, #F0F0F0)"/>
<path id="Vector_6" d="M0.0879822 1.28732C0.0888572 1.3182 0.0894809 1.3492 0.0902309 1.38007C0.0895434 1.34907 0.0887947 1.3182 0.0879822 1.28732Z" fill="var(--fill-0, #F0F0F0)"/>
<path id="Vector_7" d="M0.0434265 0.459198C0.0470515 0.50401 0.0501763 0.548948 0.0533638 0.593885C0.0501138 0.548948 0.0470515 0.50401 0.0434265 0.459198Z" fill="var(--fill-0, #F0F0F0)"/>
</g>
</svg>
