<svg preserveAspectRatio="none" width="100%" height="100%" overflow="visible" style="display: block;" viewBox="0 0 12 11" fill="none" xmlns="http://www.w3.org/2000/svg">
<g id="Group">
<path id="Vector" d="M9.48831 6.37038C10.2755 4.17625 9.39112 1.78994 7.49318 0.60144C7.83456 0.645878 8.17631 0.726253 8.51356 0.84719C11.045 1.75544 12.3609 4.54369 11.4526 7.07507C10.5444 9.60663 7.75612 10.9224 5.22468 10.0141C4.88737 9.89313 4.57243 9.73782 4.28075 9.55513C6.50137 9.84432 8.70112 8.5645 9.48831 6.37038V6.37038Z" fill="var(--fill-0, #F0F0F0)"/>
<path id="Vector_2" d="M5.12225 0L4.43818 0.883875L3.38637 0.506438L4.0155 1.43006L3.33156 2.31381L4.40437 2.00094L5.03362 2.92444L5.06737 1.80744L6.14025 1.4945L5.08843 1.11719L5.12225 0Z" fill="var(--fill-0, #F0F0F0)"/>
<path id="Vector_3" d="M6.96919 2.87994L6.28512 3.76376L5.23325 3.38632L5.86244 4.30994L5.17844 5.19369L6.25125 4.88069L6.8805 5.80438L6.91438 4.68732L7.98719 4.37432L6.93531 3.99694L6.96919 2.87994Z" fill="var(--fill-0, #F0F0F0)"/>
<path id="Vector_4" d="M1.86575 1.04889L1.18168 1.93264L0.12987 1.55533L0.759058 2.47889L0.075058 3.3627L1.14781 3.04976L1.77706 3.97333L1.81093 2.85633L2.88374 2.54339L1.83193 2.16595L1.86575 1.04889Z" fill="var(--fill-0, #F0F0F0)"/>
<path id="Vector_5" d="M1.79075 4.34775L1.10675 5.23156L0.0548744 4.85419L0.684125 5.77781L0 6.66156L1.07294 6.34869L1.70212 7.27219L1.73594 6.15519L2.80881 5.84225L1.75688 5.46481L1.79075 4.34775Z" fill="var(--fill-0, #F0F0F0)"/>
<path id="Vector_6" d="M4.92988 5.47406L4.24582 6.35781L3.194 5.98044L3.82325 6.90406L3.13913 7.78775L4.21207 7.47487L4.84125 8.3985L4.87507 7.28137L5.94794 6.9685L4.896 6.59112L4.92988 5.47406Z" fill="var(--fill-0, #F0F0F0)"/>
</g>
</svg>
