<svg preserveAspectRatio="none" width="100%" height="100%" overflow="visible" style="display: block;" viewBox="0 0 8 6" fill="none" xmlns="http://www.w3.org/2000/svg">
<path id="Vector" d="M7.06787 0.248517C7.14653 0.326904 7.20894 0.420049 7.25153 0.522608C7.29411 0.625167 7.31604 0.735124 7.31604 0.846173C7.31604 0.957223 7.29411 1.06718 7.25153 1.16974C7.20894 1.2723 7.14653 1.36544 7.06787 1.44383L3.13037 5.38133C3.05198 5.45999 2.95884 5.5224 2.85628 5.56499C2.75372 5.60757 2.64376 5.62949 2.53271 5.62949C2.42166 5.62949 2.31171 5.60757 2.20915 5.56499C2.10659 5.5224 2.01344 5.45999 1.93506 5.38133L0.247557 3.69383C0.169072 3.61534 0.106814 3.52217 0.064338 3.41962C0.021862 3.31708 2.18798e-09 3.20717 0 3.09617C-2.18798e-09 2.98518 0.021862 2.87527 0.064338 2.77272C0.106814 2.67018 0.169072 2.577 0.247557 2.49852C0.326043 2.42003 0.419218 2.35777 0.521764 2.3153C0.62431 2.27282 0.734218 2.25096 0.845213 2.25096C0.956208 2.25096 1.06612 2.27282 1.16866 2.3153C1.27121 2.35777 1.36438 2.42003 1.44287 2.49852L2.53342 3.58766L5.87396 0.246408C5.95246 0.168097 6.04563 0.106027 6.14813 0.0637467C6.25064 0.0214665 6.36047 -0.000194587 6.47135 1.31703e-06C6.58224 0.000197221 6.69199 0.0222464 6.79435 0.0648886C6.8967 0.107531 6.98965 0.169929 7.06787 0.248517Z" fill="var(--fill-0, white)"/>
</svg>
