<svg preserveAspectRatio="none" width="100%" height="100%" overflow="visible" style="display: block;" viewBox="0 0 18 8" fill="none" xmlns="http://www.w3.org/2000/svg">
<g id="Group">
<path id="Vector" d="M8.75039 0L9.16095 1.2635H10.4895L9.41482 2.0445L9.82507 3.308L8.75039 2.527L7.6757 3.308L8.08595 2.0445L7.01126 1.2635H8.33982L8.75039 0Z" fill="var(--fill-0, #FFDA44)"/>
<path id="Vector_2" d="M3.69837 2.20993L4.48824 2.92105L5.40868 2.38968L4.97643 3.36062L5.76624 4.07187L4.70924 3.96074L4.27699 4.93168L4.05587 3.89212L2.99893 3.78099L3.91931 3.24949L3.69837 2.20993Z" fill="var(--fill-0, #FFDA44)"/>
<path id="Vector_3" d="M0 5.90833L1.03963 6.12927L1.57106 5.20883L1.68219 6.26577L2.72169 6.48689L1.75081 6.91921L1.86194 7.97608L1.15063 7.18639L0.17975 7.61864L0.711187 6.69814L0 5.90833Z" fill="var(--fill-0, #FFDA44)"/>
<path id="Vector_4" d="M13.8027 2.20996L13.0129 2.92109L12.0924 2.38971L12.5246 3.36065L11.7349 4.0719L12.7919 3.96077L13.2241 4.93171L13.4452 3.89215L14.5022 3.78102L13.5818 3.24952L13.8027 2.20996Z" fill="var(--fill-0, #FFDA44)"/>
<path id="Vector_5" d="M17.5009 5.90833L16.4613 6.12927L15.9299 5.20883L15.8187 6.26577L14.7792 6.48689L15.7501 6.91921L15.639 7.97608L16.3503 7.18639L17.3211 7.61864L16.7897 6.69814L17.5009 5.90833Z" fill="var(--fill-0, #FFDA44)"/>
</g>
</svg>
