<svg preserveAspectRatio="none" width="100%" height="100%" overflow="visible" style="display: block;" viewBox="0 0 11 11" fill="none" xmlns="http://www.w3.org/2000/svg">
<path id="Vector" d="M3.34438 3.06056L6.35131 7.03844C5.87756 7.75581 5.88006 8.72231 6.428 9.44713C7.123 10.3666 8.43181 10.5486 9.35131 9.8535C10.2708 9.1585 10.4528 7.84969 9.75763 6.93025C9.20981 6.20544 8.28056 5.93944 7.46119 6.19956L2.77488 0L1.665 0.839L0 2.09737L1.678 4.31706L3.34438 3.06056ZM7.67331 7.63369C7.97981 7.40194 8.41613 7.46269 8.64781 7.76906C8.87944 8.07556 8.81887 8.51187 8.51237 8.74362C8.20594 8.97519 7.76963 8.91469 7.538 8.60812C7.30619 8.30162 7.36688 7.86531 7.67331 7.63369V7.63369Z" fill="var(--fill-0, #ACABB1)"/>
</svg>
