<svg preserveAspectRatio="none" width="100%" height="100%" overflow="visible" style="display: block;" viewBox="0 0 12 14" fill="none" xmlns="http://www.w3.org/2000/svg">
<g id="Group">
<path id="Vector" d="M0 0H2.08694V2.08694H0V0Z" fill="var(--fill-0, #D80027)"/>
<path id="Vector_2" d="M9.04343 0H11.1304V2.08694H9.04343V0Z" fill="var(--fill-0, #D80027)"/>
<path id="Vector_3" d="M9.04343 4.52176H11.1304V6.6087H9.04343V4.52176Z" fill="var(--fill-0, #D80027)"/>
<path id="Vector_4" d="M0 4.52176H2.08694V6.6087H0V4.52176Z" fill="var(--fill-0, #D80027)"/>
<path id="Vector_5" d="M4.5217 0H6.60864V2.08694H4.5217V0Z" fill="var(--fill-0, #D80027)"/>
<path id="Vector_6" d="M5.5652 11.1304C5.2017 11.1304 4.85126 11.0742 4.5217 10.9703V13.1179C4.85995 13.1824 5.20845 13.2174 5.5652 13.2174C5.92195 13.2174 6.27045 13.1824 6.6087 13.1179V10.9703C6.27914 11.0741 5.9287 11.1304 5.5652 11.1304Z" fill="var(--fill-0, #D80027)"/>
<path id="Vector_7" d="M2.13343 8.2168L0.467926 9.8823C0.756676 10.5397 1.16868 11.1309 1.67505 11.6265L3.15005 10.1515C2.62368 9.64298 2.25699 8.97048 2.13343 8.2168Z" fill="var(--fill-0, #D80027)"/>
<path id="Vector_8" d="M10.6624 9.88245L8.99694 8.21695C8.87331 8.97057 8.50669 9.64301 7.98038 10.1518L9.45538 11.6268C9.96163 11.1311 10.3737 10.5399 10.6624 9.88245Z" fill="var(--fill-0, #D80027)"/>
</g>
</svg>
