<svg preserveAspectRatio="none" width="100%" height="100%" overflow="visible" style="display: block;" viewBox="0 0 12 12" fill="none" xmlns="http://www.w3.org/2000/svg">
<path id="Vector" d="M11.7343 10.3923C10.9845 9.07632 9.81371 8.05096 8.41039 7.48125C9.10825 6.95786 9.62373 6.22815 9.88383 5.39551C10.1439 4.56286 10.1355 3.66949 9.8596 2.84193C9.58375 2.01437 9.0545 1.29458 8.34684 0.784525C7.63917 0.274468 6.78896 0 5.91664 0C5.04431 0 4.1941 0.274468 3.48643 0.784525C2.77877 1.29458 2.24952 2.01437 1.97367 2.84193C1.69782 3.66949 1.68934 4.56286 1.94944 5.39551C2.20954 6.22815 2.72503 6.95786 3.42289 7.48125C2.01956 8.05096 0.848768 9.07632 0.0989787 10.3923C0.052519 10.467 0.0215538 10.5503 0.00792404 10.6372C-0.00570574 10.7241 -0.00172194 10.8128 0.0196387 10.8982C0.0409993 10.9835 0.0793006 11.0637 0.132266 11.1339C0.185231 11.2042 0.251778 11.2631 0.327952 11.3071C0.404126 11.3511 0.488371 11.3793 0.575678 11.3901C0.662986 11.4009 0.751574 11.3941 0.836177 11.3699C0.920779 11.3458 0.999668 11.3049 1.06815 11.2497C1.13664 11.1945 1.19332 11.1261 1.23484 11.0485C2.22578 9.3357 3.97578 8.31414 5.91664 8.31414C7.85749 8.31414 9.60749 9.33625 10.5984 11.0485C10.6884 11.1932 10.8311 11.2972 10.9964 11.3386C11.1616 11.3799 11.3365 11.3554 11.484 11.2702C11.6315 11.1849 11.7401 11.0457 11.7868 10.8819C11.8335 10.718 11.8147 10.5425 11.7343 10.3923ZM3.07289 4.15789C3.07289 3.59545 3.23967 3.04564 3.55214 2.57799C3.86462 2.11034 4.30875 1.74585 4.82838 1.53061C5.34801 1.31537 5.91979 1.25906 6.47142 1.36878C7.02306 1.47851 7.52976 1.74935 7.92747 2.14706C8.32518 2.54476 8.59602 3.05147 8.70574 3.6031C8.81547 4.15474 8.75915 4.72652 8.54392 5.24615C8.32868 5.76577 7.96419 6.20991 7.49654 6.52238C7.02889 6.83486 6.47908 7.00164 5.91664 7.00164C5.16269 7.00077 4.43988 6.70089 3.90676 6.16777C3.37364 5.63465 3.07375 4.91183 3.07289 4.15789Z" fill="var(--fill-0, #475569)"/>
</svg>
