<?xml version="1.0" encoding="UTF-8"?>
<svg id="Camada_2" data-name="Camada 2" xmlns="http://www.w3.org/2000/svg" xmlns:xlink="http://www.w3.org/1999/xlink" viewBox="0 0 595.5 168.27">
  <defs>
    <style>
      .cls-1 {
        fill: url(#Gradiente_sem_nome_46);
      }

      .cls-2 {
        fill: url(#Gradiente_sem_nome_31);
      }

      .cls-3 {
        fill: #1d1d1b;
      }

      .cls-3, .cls-4 {
        font-family: InterVariable-ExtraBold, 'Inter Variable';
        font-size: 141.88px;
        font-variation-settings: 'opsz' 14, 'wght' 800;
        font-weight: 700;
        letter-spacing: -.04em;
      }

      .cls-5 {
        fill: url(#Gradiente_sem_nome_31-2);
      }

      .cls-6 {
        fill: url(#Gradiente_sem_nome_31-3);
      }
    </style>
    <linearGradient id="Gradiente_sem_nome_31" data-name="Gradiente sem nome 31" x1="329.64" y1="70.58" x2="648.38" y2="70.58" gradientUnits="userSpaceOnUse">
      <stop offset="0" stop-color="#db2878"/>
      <stop offset=".51" stop-color="#e21d49"/>
      <stop offset="1" stop-color="#674897"/>
    </linearGradient>
    <linearGradient id="Gradiente_sem_nome_31-2" data-name="Gradiente sem nome 31" x1="275.47" y1="83.65" x2="545.17" y2="83.65" xlink:href="#Gradiente_sem_nome_31"/>
    <linearGradient id="Gradiente_sem_nome_31-3" data-name="Gradiente sem nome 31" x1="438.81" y1="83.41" x2="641.3" y2="83.41" xlink:href="#Gradiente_sem_nome_31"/>
    <linearGradient id="Gradiente_sem_nome_46" data-name="Gradiente sem nome 46" x1="378.45" y1="83.65" x2="613.96" y2="83.65" gradientUnits="userSpaceOnUse">
      <stop offset="0" stop-color="#db2878"/>
      <stop offset=".67" stop-color="#e21d49"/>
      <stop offset=".86" stop-color="#674897"/>
    </linearGradient>
  </defs>
  <g id="Camada_1-2" data-name="Camada 1">
    <g>
      <g>
        <text class="cls-4" transform="translate(0 122.55)"><tspan x="0" y="0">open</tspan></text>
        <g>
          <path d="M358.51,18.97v103.22h-24.18V18.97h24.18Z"/>
          <path d="M403.62,123.59c-8.08,0-15.03-1.67-20.85-5.02-5.82-3.35-10.29-8.01-13.41-13.99-3.12-5.98-4.68-12.94-4.68-20.89s1.56-14.97,4.68-20.96c3.12-5.98,7.59-10.64,13.41-13.99,5.82-3.35,12.77-5.02,20.85-5.02s15.03,1.67,20.85,5.02c5.82,3.35,10.28,8.01,13.37,13.99,3.09,5.98,4.64,12.97,4.64,20.96s-1.55,14.91-4.64,20.89c-3.09,5.98-7.55,10.65-13.37,13.99-5.82,3.35-12.77,5.02-20.85,5.02ZM403.62,105.09c3.09,0,5.7-.9,7.83-2.7,2.12-1.8,3.73-4.32,4.81-7.55,1.08-3.23,1.63-7,1.63-11.29s-.54-8.05-1.63-11.26c-1.09-3.21-2.69-5.69-4.81-7.45-2.12-1.76-4.73-2.63-7.83-2.63s-5.7.88-7.83,2.63c-2.12,1.76-3.73,4.24-4.81,7.45-1.09,3.21-1.63,6.96-1.63,11.26s.54,8.06,1.63,11.29c1.08,3.23,2.69,5.75,4.81,7.55,2.12,1.8,4.73,2.7,7.83,2.7Z"/>
          <path d="M466.87,122.13l-28.06-77.45h25.49l11.57,37.89c1.57,5.08,2.93,10.28,4.09,15.59,1.15,5.31,2.33,10.92,3.53,16.83h-4.43c1.15-5.91,2.3-11.51,3.43-16.8,1.13-5.29,2.46-10.5,3.98-15.62l11.36-37.89h25.22l-28.2,77.45h-27.99Z"/>
          <path d="M559.06,123.59c-8.08,0-15.06-1.6-20.92-4.81-5.87-3.21-10.36-7.79-13.47-13.75s-4.68-13.07-4.68-21.34,1.56-14.92,4.68-20.92c3.12-6,7.54-10.68,13.27-14.03,5.73-3.35,12.47-5.02,20.23-5.02,5.45,0,10.45.86,15,2.56,4.55,1.71,8.5,4.24,11.85,7.59,3.35,3.35,5.93,7.47,7.76,12.37,1.82,4.9,2.74,10.55,2.74,16.97v6.1h-66.92v-14.06h55.42l-11.29,3.33c0-3.6-.54-6.7-1.63-9.28-1.09-2.59-2.69-4.57-4.81-5.96-2.12-1.39-4.76-2.08-7.9-2.08s-5.8.7-7.97,2.11c-2.17,1.41-3.82,3.37-4.95,5.89-1.13,2.52-1.7,5.46-1.7,8.83v10.11c0,3.97.66,7.29,1.97,9.94,1.32,2.66,3.15,4.64,5.51,5.96s5.1,1.97,8.24,1.97c2.17,0,4.15-.3,5.92-.9,1.78-.6,3.3-1.5,4.57-2.7,1.27-1.2,2.23-2.66,2.87-4.36l21.55,3.53c-1.29,4.43-3.52,8.3-6.69,11.6-3.16,3.3-7.16,5.85-11.98,7.66-4.83,1.8-10.38,2.7-16.66,2.7Z"/>
        </g>
      </g>
      <g>
        <text class="cls-3" transform="translate(0 122.55)"><tspan x="0" y="0">open</tspan></text>
        <g>
          <path class="cls-2" d="M358.51,18.97v103.22h-24.18V18.97h24.18Z"/>
          <path class="cls-5" d="M403.62,123.59c-8.08,0-15.03-1.67-20.85-5.02-5.82-3.35-10.29-8.01-13.41-13.99-3.12-5.98-4.68-12.94-4.68-20.89s1.56-14.97,4.68-20.96c3.12-5.98,7.59-10.64,13.41-13.99,5.82-3.35,12.77-5.02,20.85-5.02s15.03,1.67,20.85,5.02c5.82,3.35,10.28,8.01,13.37,13.99,3.09,5.98,4.64,12.97,4.64,20.96s-1.55,14.91-4.64,20.89c-3.09,5.98-7.55,10.65-13.37,13.99-5.82,3.35-12.77,5.02-20.85,5.02ZM403.62,105.09c3.09,0,5.7-.9,7.83-2.7,2.12-1.8,3.73-4.32,4.81-7.55,1.08-3.23,1.63-7,1.63-11.29s-.54-8.05-1.63-11.26c-1.09-3.21-2.69-5.69-4.81-7.45-2.12-1.76-4.73-2.63-7.83-2.63s-5.7.88-7.83,2.63c-2.12,1.76-3.73,4.24-4.81,7.45-1.09,3.21-1.63,6.96-1.63,11.26s.54,8.06,1.63,11.29c1.08,3.23,2.69,5.75,4.81,7.55,2.12,1.8,4.73,2.7,7.83,2.7Z"/>
          <path class="cls-6" d="M466.87,122.13l-28.06-77.45h25.49l11.57,37.89c1.57,5.08,2.93,10.28,4.09,15.59,1.15,5.31,2.33,10.92,3.53,16.83h-4.43c1.15-5.91,2.3-11.51,3.43-16.8,1.13-5.29,2.46-10.5,3.98-15.62l11.36-37.89h25.22l-28.2,77.45h-27.99Z"/>
          <path class="cls-1" d="M559.06,123.59c-8.08,0-15.06-1.6-20.92-4.81-5.87-3.21-10.36-7.79-13.47-13.75s-4.68-13.07-4.68-21.34,1.56-14.92,4.68-20.92c3.12-6,7.54-10.68,13.27-14.03,5.73-3.35,12.47-5.02,20.23-5.02,5.45,0,10.45.86,15,2.56,4.55,1.71,8.5,4.24,11.85,7.59,3.35,3.35,5.93,7.47,7.76,12.37,1.82,4.9,2.74,10.55,2.74,16.97v6.1h-66.92v-14.06h55.42l-11.29,3.33c0-3.6-.54-6.7-1.63-9.28-1.09-2.59-2.69-4.57-4.81-5.96-2.12-1.39-4.76-2.08-7.9-2.08s-5.8.7-7.97,2.11c-2.17,1.41-3.82,3.37-4.95,5.89-1.13,2.52-1.7,5.46-1.7,8.83v10.11c0,3.97.66,7.29,1.97,9.94,1.32,2.66,3.15,4.64,5.51,5.96s5.1,1.97,8.24,1.97c2.17,0,4.15-.3,5.92-.9,1.78-.6,3.3-1.5,4.57-2.7,1.27-1.2,2.23-2.66,2.87-4.36l21.55,3.53c-1.29,4.43-3.52,8.3-6.69,11.6-3.16,3.3-7.16,5.85-11.98,7.66-4.83,1.8-10.38,2.7-16.66,2.7Z"/>
        </g>
      </g>
    </g>
  </g>
</svg>